<?xml version="1.0" encoding="utf-8"?>
<!-- Generator: Adobe Illustrator 16.0.0, SVG Export Plug-In . SVG Version: 6.00 Build 0)  -->
<!DOCTYPE svg PUBLIC "-//W3C//DTD SVG 1.1//EN" "http://www.w3.org/Graphics/SVG/1.1/DTD/svg11.dtd">
<svg version="1.1" id="Layer_1" xmlns="http://www.w3.org/2000/svg" xmlns:xlink="http://www.w3.org/1999/xlink" x="0px" y="0px"
	 width="283.46px" height="283.46px" viewBox="0 0 283.46 283.46" enable-background="new 0 0 283.46 283.46" xml:space="preserve">
<g id="Layer_1_1_">
	<g>
		<path fill="#FFFFFF" d="M534.605,603.449c-149.458,0-298.917,0-448.375,0c0-214.211,0-428.423,0-642.634
			c149.458,0,298.917,0,448.375,0C534.605,175.026,534.605,389.238,534.605,603.449z M339.091,535.844
			c-2.517,0.655-4.528,1.876-5.928,3.976c-1.433,2.149-1.842,4.512-1.356,7.02c0.782,4.029,4.488,7.145,8.595,7.276
			c4.418,0.143,8.312-2.769,9.332-6.968c0.509-2.1,0.312-4.133-0.596-6.083c-1.199-2.579-3.275-4.17-5.988-5.074
			c0-0.554,0-1.058,0-1.562c0-7.99-0.024-15.98,0.024-23.972c0.009-1.309-0.392-2.245-1.316-3.164
			c-8.521-8.462-16.995-16.97-25.506-25.44c-0.641-0.638-0.903-1.278-0.901-2.18c0.031-7.991-0.006-15.981,0.041-23.972
			c0.008-1.396-0.396-2.44-1.401-3.43c-5.003-4.925-9.935-9.92-14.927-14.857c-0.679-0.673-0.945-1.349-0.938-2.302
			c0.04-6.189,0.055-12.378-0.009-18.567c-0.012-1.218,0.38-2.045,1.227-2.88c5.095-5.027,10.124-10.123,15.216-15.154
			c1.167-1.152,1.769-2.434,1.683-4.067c-0.045-0.876-0.02-1.756,0.001-2.633c0.008-0.278,0.103-0.558,0.153-0.817
			c2.429,2.393,4.789,4.717,7.097,6.987c-0.049,0.817-0.133,1.59-0.134,2.363c-0.01,7.897-0.007,15.796-0.007,23.693
			c0,0.491,0,0.984,0,1.399c-4.47,1.843-6.413,4.762-5.769,8.473c0.59,3.386,3.557,5.934,6.99,6
			c3.413,0.066,6.375-2.229,7.182-5.574c0.393-1.629,0.229-3.213-0.481-4.728c-1.032-2.196-2.845-3.452-5.091-4.07
			c0-8.288,0-16.478,0-24.889c0.483,0.445,0.821,0.734,1.135,1.049c4.238,4.253,8.458,8.524,12.724,12.748
			c0.713,0.705,1.017,1.4,1.014,2.415c-0.032,14.271-0.022,28.542-0.022,42.813c0,0.501,0,1.002,0,1.446
			c-3.792,2.011-4.969,2.978-6.15,5.094c-1.37,2.452-1.688,5.06-1.012,7.77c1.182,4.745,5.455,7.96,10.424,7.889
			c4.83-0.069,9.048-3.506,10.071-8.175c0.523-2.391,0.265-4.684-0.788-6.882c-1.444-3.015-3.913-4.82-7.057-5.761
			c0-9.245,0-18.402,0-27.729c0.313,0.233,0.504,0.343,0.654,0.492c6.052,6.032,12.097,12.07,18.158,18.093
			c0.466,0.463,0.631,0.952,0.63,1.594c-0.014,10.809-0.017,21.615,0.004,32.423c0.001,0.72-0.263,1.206-0.752,1.687
			c-2.042,2.007-4.056,4.043-6.084,6.063c-0.289,0.289-0.603,0.553-0.879,0.803c-4.312-1.617-7.782-0.68-9.784,2.6
			c-1.801,2.951-1.252,6.76,1.313,9.104c2.555,2.334,6.406,2.525,9.188,0.455c3.133-2.331,3.635-5.745,1.479-10.334
			c0.297-0.313,0.603-0.654,0.926-0.978c1.99-1.995,3.944-4.025,5.993-5.959c0.95-0.896,1.335-1.843,1.327-3.155
			c-0.046-9.653-0.025-19.306-0.022-28.959c0-0.524,0.036-1.05,0.066-1.894c0.86,0.85,1.437,1.5,2.097,2.049
			c0.776,0.646,1.021,1.395,1.02,2.407c-0.031,22.124-0.022,44.246-0.022,66.369c0,0.498,0,0.997,0,1.437
			c-4.304,1.693-6.288,4.702-5.631,8.376c0.632,3.53,3.536,6.002,7.076,6.019c3.436,0.018,6.443-2.357,7.115-5.647
			c0.353-1.731,0.155-3.402-0.69-4.972c-1.095-2.033-2.867-3.181-5.014-3.731c-0.263-2.117-0.17-56.338,0.122-57.468
			c1.77,1.768,3.477,3.502,5.224,5.196c0.507,0.49,0.704,1.001,0.697,1.703c-0.033,3.049,0.028,6.098-0.036,9.145
			c-0.023,1.115,0.354,1.898,1.131,2.67c6.295,6.245,12.557,12.525,18.825,18.798c0.349,0.35,0.677,0.722,0.965,1.028
			c-1.322,4.27-0.173,7.653,3.121,9.466c2.978,1.64,6.702,0.962,8.946-1.627c2.179-2.516,2.337-6.288,0.367-8.977
			c-1.021-1.393-2.372-2.329-4.041-2.75c-2.495-0.628-4.726,0.039-6.658,1.604c-0.227-0.184-0.343-0.261-0.44-0.357
			c-6.273-6.268-12.542-12.54-18.826-18.796c-0.466-0.465-0.636-0.947-0.631-1.59c0.024-3.188-0.007-6.375,0.023-9.562
			c0.007-0.796-0.219-1.398-0.794-1.963c-2.276-2.23-4.505-4.509-6.78-6.74c-0.346-0.339-0.849-0.518-1.337-0.806
			c0-2.425-0.068-4.921,0.026-7.41c0.052-1.36-0.377-2.322-1.346-3.282c-8.593-8.521-17.124-17.103-25.713-25.627
			c-0.829-0.822-1.15-1.639-1.132-2.789c0.062-4.017-0.045-8.037,0.057-12.053c0.042-1.674-0.536-2.859-1.697-4.018
			c-9.22-9.197-18.387-18.449-27.593-27.663c-0.671-0.671-0.956-1.345-0.955-2.297c0.023-27.388,0.019-54.776,0.021-82.164
			c0-0.487,0.03-0.976,0.057-1.734c0.548,0.509,0.886,0.802,1.203,1.117c3.333,3.33,6.643,6.684,10.012,9.976
			c0.757,0.74,1.048,1.489,1.046,2.541c-0.031,13.624-0.03,27.249,0,40.874c0.002,0.853-0.237,1.437-0.816,2.064
			c-3.622,3.927-5.004,8.571-4.008,13.815c1.479,7.773,8.661,13.369,16.863,12.709c7.786-0.626,13.978-6.99,14.416-14.985
			c0.523-9.535-7.687-17.41-17.185-16.489c-0.349,0.034-0.703,0.005-1.046,0.005c-0.289-2.011-0.195-24.084,0.118-25.075
			c0.322,0.297,0.633,0.562,0.92,0.85c8.399,8.394,16.786,16.793,25.202,25.165c0.616,0.613,0.822,1.229,0.82,2.071
			c-0.024,8.868-0.015,17.735-0.015,26.604c0,0.407,0,0.814,0,1.339c-3.101,0.451-5.716,1.724-7.785,3.982
			c-2.108,2.304-3.344,5.036-3.278,8.161c0.15,7.243,4.192,11.284,11.082,12.886c0,2.106,0.055,4.184-0.021,6.255
			c-0.046,1.202,0.325,2.069,1.19,2.93c10.154,10.094,20.27,20.228,30.395,30.35c0.325,0.326,0.674,0.637,0.97,0.988
			c0.198,0.236,0.453,0.532,0.459,0.807c0.041,1.785,0.021,3.571,0.021,5.274c-4.205,2.021-5.97,5.021-5.168,8.58
			c0.766,3.392,3.638,5.721,7.059,5.724c3.419,0.002,6.389-2.355,7.08-5.697c0.336-1.62,0.182-3.219-0.581-4.723
			c-1.169-2.304-3.149-3.525-5.655-4.031c0-1.688-0.072-3.258,0.023-4.817c0.075-1.26-0.358-2.149-1.247-3.033
			c-10.218-10.162-20.398-20.359-30.589-30.548c-0.261-0.262-0.553-0.498-0.774-0.791c-0.184-0.244-0.396-0.55-0.4-0.831
			c-0.033-2.162-0.018-4.326-0.018-6.564c4.176-0.594,7.291-2.694,9.64-6.391c0.432,0.538,0.717,0.966,1.073,1.323
			c3.289,3.308,6.616,6.579,9.877,9.913c0.979,1.003,2.048,1.429,3.443,1.408c3.925-0.058,7.852,0.001,11.776-0.037
			c0.852-0.008,1.463,0.234,2.067,0.847c4.222,4.27,8.466,8.517,12.738,12.734c0.68,0.671,0.95,1.346,0.946,2.3
			c-0.036,7.204-0.001,14.41-0.035,21.614c-0.007,1.294,0.394,2.287,1.318,3.197c3.752,3.693,7.46,7.434,11.182,11.156
			c0.35,0.35,0.688,0.712,1.003,1.038c-3.5,6.911-2.466,13.113,2.778,17.122c4.752,3.632,11.548,3.347,15.946-0.667
			c4.518-4.121,5.443-10.779,2.213-15.911c-3.533-5.614-9.647-7.179-16.871-4.274c-0.277-0.256-0.591-0.522-0.881-0.812
			c-3.433-3.426-6.845-6.872-10.304-10.271c-0.684-0.671-0.939-1.357-0.936-2.308c0.036-7.158,0-14.318,0.036-21.477
			c0.007-1.337-0.376-2.367-1.346-3.324c-5.064-4.994-10.091-10.026-15.093-15.084c-0.914-0.923-1.893-1.339-3.19-1.323
			c-4.018,0.05-8.036,0.002-12.054,0.031c-0.747,0.006-1.292-0.204-1.823-0.741c-3.867-3.905-7.756-7.789-11.657-11.66
			c-0.492-0.488-0.707-0.993-0.763-1.689c-0.382-4.831-2.846-8.272-7.121-10.466c-0.4-0.206-0.816-0.382-1.266-0.59
			c0-0.619,0-1.169,0-1.72c0-9.422-0.021-18.844,0.022-28.265c0.007-1.407-0.396-2.492-1.436-3.429
			c-1.028-0.927-1.971-1.948-2.95-2.927c-9.112-9.11-18.219-18.228-27.353-27.317c-0.677-0.675-0.978-1.344-0.946-2.299
			c0.066-1.983-0.043-3.974,0.04-5.956c0.07-1.696-0.515-3-1.717-4.189c-5.812-5.749-11.557-11.566-17.377-17.307
			c-0.961-0.947-1.359-1.893-1.358-3.252c0.031-69.232,0.028-138.466,0.026-207.697c0-0.463-0.025-0.926,0-1.386
			c0.092-1.635-0.545-2.899-1.718-4.047c-3.929-3.844-7.785-7.761-11.681-11.637c-0.475-0.473-0.812-0.922-0.798-1.662
			c0.046-2.539,0.003-5.08,0.034-7.62c0.005-0.382,0.122-0.853,0.364-1.125c0.864-0.968,1.068-2.085,1.065-3.333
			c-0.018-11.362-0.011-22.723-0.011-34.085c0-0.496,0-0.99,0-1.648c-3.673,0.002-7.192-0.012-10.834,0.009c0,0.696,0,1.196,0,1.696
			c0,4.85,0,9.699,0,14.549c0,6.465,0.004,12.932-0.004,19.398c-0.001,1.036,0.063,2.072,0.759,2.881
			c0.507,0.59,0.558,1.217,0.556,1.922c-0.015,3.094,0.048,6.19-0.028,9.283c-0.041,1.656,0.543,2.909,1.706,4.051
			c3.82,3.755,7.567,7.586,11.396,11.334c0.791,0.775,1.103,1.547,1.101,2.654c-0.024,59.903-0.025,119.807,0.004,179.709
			c0,1.108-0.3,1.886-1.083,2.66c-5.712,5.654-11.36,11.371-17.082,17.014c-1.108,1.094-1.57,2.252-1.551,3.801
			c0.067,5.356,0.026,10.715,0.026,16.073c0,0.493,0,0.988,0,1.437c-8.374,2.354-12.21,10.981-8.012,18.958
			c-0.367,0.274-0.861,0.559-1.252,0.947c-10.657,10.636-21.295,21.291-31.964,31.916c-0.986,0.982-1.542,2.022-1.431,3.43
			c0.053,0.668-0.038,1.347-0.062,1.972c-5.906,1.516-9.589,6.114-9.814,11.353c-0.296,6.896,3.339,11.139,9.793,13.259
			c0,0.725-0.005,1.413,0.001,2.104c0.108,12.422,0.204,24.844,0.352,37.266c0.012,1.014-0.275,1.707-0.986,2.416
			c-9.56,9.513-19.081,19.064-28.642,28.576c-0.991,0.985-1.439,2.027-1.431,3.43c0.046,7.204,0.01,14.41,0.036,21.615
			c0.003,0.799-0.224,1.378-0.799,1.939c-2.409,2.357-4.775,4.76-7.164,7.139c-0.247,0.246-0.537,0.447-0.81,0.673
			c-0.205-0.189-0.343-0.311-0.476-0.438c-4-3.831-9.411-4.799-14.19-2.538c-4.815,2.276-7.522,7.043-7.121,12.538
			c0.486,6.641,6.882,11.946,13.552,11.238c7.367-0.781,12.355-7.26,11.159-14.565c-0.147-0.894,0.091-1.443,0.709-2.05
			c3.033-2.975,5.989-6.03,9.044-8.981c1.119-1.081,1.581-2.25,1.57-3.799c-0.055-7.112-0.011-14.226-0.042-21.337
			c-0.004-0.856,0.228-1.474,0.854-2.062c1.347-1.263,2.625-2.599,3.931-3.906c8.297-8.294,16.584-16.597,24.9-24.87
			c0.953-0.947,1.454-1.958,1.377-3.312c-0.08-1.382-0.051-2.77-0.052-4.155c0-0.286,0.075-0.573,0.145-1.066
			c2.276,2.272,4.412,4.37,6.488,6.522c0.268,0.276,0.32,0.841,0.326,1.273c0.031,2.263-0.029,4.527,0.034,6.788
			c0.028,1.042-0.269,1.792-1.027,2.545c-7.442,7.384-14.833,14.82-22.275,22.205c-0.824,0.817-1.152,1.646-1.145,2.798
			c0.046,6.744,0.024,13.487,0.02,20.23c0,0.481-0.045,0.963-0.074,1.536c-0.707-0.247-1.254-0.484-1.823-0.631
			c-2.908-0.746-5.435-0.03-7.394,2.228c-1.962,2.262-2.346,4.904-1.141,7.635c1.206,2.733,3.42,4.211,6.415,4.3
			c5.207,0.151,8.773-5.004,6.893-9.867c-0.159-0.416-0.313-0.865-0.318-1.302c-0.008-0.824,0.143-1.648,0.145-2.475
			c0.014-6.883,0.027-13.765-0.013-20.645c-0.007-1.053,0.303-1.798,1.051-2.541c7.439-7.387,14.836-14.817,22.271-22.209
			c0.773-0.769,1.167-1.55,1.141-2.669c-0.067-2.861-0.063-5.728-0.001-8.59c0.023-1.066-0.339-1.818-1.087-2.55
			c-2.678-2.611-5.297-5.285-7.956-7.915c-0.485-0.479-0.789-0.965-0.786-1.681c0.011-2.217-0.036-4.434-0.047-6.649
			c-0.001-0.232,0.093-0.464,0.166-0.804c0.259,0.216,0.407,0.32,0.534,0.447c5.75,5.746,11.492,11.498,17.255,17.233
			c0.469,0.467,0.635,0.951,0.625,1.592c-0.029,1.938-0.065,3.882,0.012,5.818c0.041,1.014-0.295,1.706-1.006,2.413
			c-9.466,9.41-18.896,18.858-28.363,28.266c-0.819,0.815-1.163,1.641-1.159,2.798c0.037,10.576,0.022,21.153,0.022,31.729
			c0,0.537,0,1.074,0,1.536c-4.365,1.647-6.377,4.6-5.811,8.318c0.502,3.291,3.332,5.904,6.603,6.099
			c3.604,0.214,6.651-1.961,7.557-5.416c0.425-1.619,0.294-3.21-0.392-4.736c-1.014-2.256-2.848-3.558-5.22-4.221
			c0-0.459,0-0.821,0-1.187c0-10.484,0.011-20.969-0.02-31.452c-0.003-0.867,0.271-1.455,0.871-2.053
			c8.645-8.599,17.267-17.221,25.896-25.833c0.243-0.243,0.518-0.454,0.998-0.871c0,1.241-0.069,2.2,0.019,3.146
			c0.096,1.023-0.309,1.709-1.017,2.411c-7.6,7.553-15.163,15.144-22.759,22.702c-0.705,0.701-1.048,1.415-1.04,2.429
			c0.043,4.895,0.045,9.791-0.001,14.686c-0.011,1.063,0.332,1.823,1.087,2.55c2.062,1.985,4.064,4.034,6.087,6.062
			c0.321,0.322,0.627,0.659,0.913,0.962c-1.45,4.497-0.365,7.933,3.032,9.768c3.041,1.641,6.866,0.893,9.032-1.764
			c2.196-2.694,2.192-6.538-0.01-9.201c-2.481-3.002-6.027-3.365-10.3-0.997c-2.23-2.229-4.497-4.463-6.712-6.747
			c-0.272-0.282-0.37-0.834-0.372-1.263c-0.026-4.433-0.005-8.867-0.029-13.301c-0.003-0.7,0.21-1.211,0.708-1.708
			c6.841-6.812,13.661-13.642,20.492-20.462c0.202-0.201,0.466-0.341,0.774-0.564c0,2.994,0,5.833,0,8.636
			c-4.357,1.547-6.336,4.425-5.792,8.323c0.446,3.21,3.229,5.811,6.473,6.05c3.54,0.262,6.666-1.856,7.611-5.166
			c0.475-1.659,0.38-3.297-0.305-4.878c-0.981-2.265-2.781-3.608-5.152-4.288c0-0.646,0-1.195,0-1.744
			c0-9.099-0.019-18.197,0.023-27.297c0.005-1.156-0.333-1.979-1.155-2.794c-6.464-6.404-12.877-12.858-19.333-19.269
			c-0.643-0.639-0.896-1.28-0.9-2.179c-0.034-5.726-0.125-11.45-0.188-17.177c-0.003-0.308,0.073-0.615,0.107-0.882
			c6.297-2.34,9.543-6.161,9.62-11.886c0.089-6.513-3.448-10.551-9.447-12.601c-0.254-1.11,0.015-1.919,0.844-2.742
			c10.318-10.256,20.597-20.553,30.887-30.838c0.323-0.322,0.664-0.627,0.982-0.927c8.431,4.865,16.021,0.241,18.431-5.154
			c1.381-3.092,1.594-6.248,0.444-9.437c-1.54-4.273-4.677-6.853-8.966-8.084c-0.029-0.316-0.067-0.544-0.067-0.77
			c-0.004-5.312,0.012-10.623-0.021-15.936c-0.005-0.735,0.316-1.191,0.789-1.664c4.156-4.139,8.3-8.29,12.451-12.434
			c0.241-0.24,0.524-0.439,0.982-0.817c0,0.657,0,1.06,0,1.463c0,17.551-0.005,35.101,0.021,52.651
			c0.001,0.911-0.283,1.542-0.918,2.172c-6.812,6.774-13.589,13.584-20.406,20.351c-0.814,0.809-1.186,1.628-1.179,2.792
			c0.045,7.667,0.023,15.335,0.023,23c0,0.497,0,0.995,0,1.428c-4.69,1.971-6.581,4.897-5.791,8.796
			c0.657,3.237,3.601,5.642,6.954,5.68c3.525,0.04,6.483-2.306,7.19-5.704c0.803-3.856-1.013-6.734-5.551-8.725
			c-0.018-0.235-0.058-0.505-0.058-0.775c-0.004-7.759,0.008-15.52-0.02-23.278c-0.002-0.734,0.311-1.191,0.786-1.665
			c5.985-5.969,11.959-11.947,17.939-17.92c0.243-0.243,0.526-0.445,1.01-0.85c0,1.689-0.04,3.104,0.015,4.514
			c0.03,0.804-0.238,1.376-0.808,1.938c-3.354,3.309-6.651,6.674-10.02,9.966c-0.822,0.804-1.201,1.619-1.181,2.788
			c0.066,3.786,0.024,7.573,0.024,11.361c0,0.492,0,0.986,0,1.41c-4.586,1.871-6.503,4.845-5.743,8.718
			c0.636,3.243,3.57,5.685,6.902,5.744c3.527,0.062,6.449-2.23,7.243-5.654c0.381-1.647,0.163-3.209-0.557-4.715
			c-1.022-2.142-2.812-3.349-5.021-3.987c-0.038-0.251-0.089-0.43-0.09-0.608c-0.006-3.973,0.004-7.944-0.019-11.916
			c-0.003-0.613,0.235-1.033,0.653-1.445c2.592-2.567,5.165-5.155,7.751-7.729c0.207-0.206,0.469-0.357,0.848-0.643
			c0,0.566,0,0.932,0,1.299c0,18.335-0.006,36.671,0.019,55.007c0.001,0.866-0.278,1.452-0.878,2.047
			c-5.115,5.074-10.176,10.204-15.316,15.253c-1.352,1.327-1.925,2.76-1.92,4.662c0.046,21.568,0.023,43.138,0.048,64.707
			c0.001,0.952-0.265,1.628-0.942,2.302c-6.849,6.802-13.651,13.65-20.508,20.444c-1.238,1.228-1.78,2.582-1.768,4.317
			c0.049,6.695,0.02,13.394,0.02,20.09c0,0.538,0,1.076,0,1.54c-7.766,2.795-12.018,10.099-10.715,17.678
			c1.302,7.578,7.558,12.978,15.094,13.223c7.326,0.236,14.004-4.788,15.793-11.877c0.916-3.63,0.621-7.162-0.957-10.543
			c-2.21-4.732-6.008-7.591-11.055-8.924c0-0.514,0-0.924,0-1.334c0-5.912,0.02-11.823-0.02-17.735
			c-0.007-0.962,0.315-1.618,0.987-2.286c6.746-6.709,13.434-13.478,20.203-20.161c1.389-1.373,1.98-2.838,1.97-4.786
			c-0.06-11.638-0.029-23.276-0.027-34.916c0-0.477,0.027-0.954,0.05-1.691c0.566,0.537,0.905,0.845,1.228,1.166
			c3.171,3.166,6.318,6.355,9.521,9.486c0.75,0.734,1.062,1.477,1.06,2.536c-0.03,18.382-0.022,36.765-0.022,55.146
			c0,0.505,0,1.009,0,1.59c-2.147,0.674-4.032,1.71-5.593,3.284c-1.527,1.542-2.605,3.35-3.18,5.438
			c-0.587,2.134-0.615,4.288-0.071,6.437c1.439,5.683,6.704,9.654,12.476,9.422c5.919-0.236,10.902-4.485,11.92-10.136
			c0.537-2.979,0.104-5.8-1.374-8.434c-1.924-3.427-4.927-5.413-8.703-6.271c0-8.968,0-17.852,0-27.001
			c0.502,0.459,0.838,0.742,1.146,1.051c7.155,7.15,14.298,14.312,21.473,21.441c0.684,0.678,0.933,1.366,0.93,2.311
			c-0.03,7.575-0.017,15.148-0.017,22.723C339.091,534.886,339.091,535.34,339.091,535.844z M219.973,415.138
			c7.342-1.389,11.646-5.621,12.012-11.627c0.18-2.964-0.509-5.684-2.22-8.119c-2.32-3.303-5.603-4.958-9.639-5.407
			c0-0.65,0-1.197,0-1.744c0-16.626,0.01-33.253-0.023-49.879c-0.003-1.109,0.33-1.877,1.111-2.654
			c12.989-12.941,25.942-25.918,38.93-38.861c0.953-0.95,1.41-1.959,1.39-3.307c-0.051-3.463,0.019-6.929-0.037-10.391
			c-0.017-1.052,0.299-1.799,1.047-2.544c10.181-10.133,20.314-20.313,30.513-30.428c1.218-1.208,1.715-2.459,1.71-4.154
			c-0.042-17.596-0.025-35.192-0.025-52.789c0-36.44-0.01-72.88,0.026-109.32c0.003-1.793-0.52-3.116-1.813-4.389
			c-6.587-6.476-13.083-13.043-19.634-19.556c-0.6-0.597-0.894-1.181-0.871-2.05c0.062-2.354,0.034-4.71,0.013-7.066
			c-0.006-0.598,0.132-1.019,0.67-1.383c1.277-0.866,1.823-2.107,1.82-3.67c-0.021-11.593-0.011-23.185-0.015-34.777
			c0-0.354-0.062-0.708-0.094-1.041c-1.905-0.276-9.709-0.193-10.678,0.107c-0.014,0.265-0.043,0.541-0.043,0.814
			c-0.002,11.685,0.009,23.37-0.015,35.054c-0.003,1.588,0.601,2.835,1.935,3.585c0.891,0.5,1.041,1.125,1.029,2.018
			c-0.037,2.632,0.033,5.266-0.032,7.898c-0.034,1.351,0.43,2.352,1.387,3.3c6.69,6.633,13.334,13.314,20.017,19.956
			c0.637,0.634,0.909,1.268,0.909,2.175c-0.021,53.343-0.021,106.688,0.002,160.03c0,0.918-0.301,1.54-0.933,2.165
			c-3.616,3.568-7.212,7.156-10.777,10.776c-0.635,0.644-1.276,0.9-2.177,0.897c-8.498-0.03-16.995,0.004-25.493-0.041
			c-1.254-0.007-2.16,0.359-3.043,1.254c-6.805,6.911-13.653,13.777-20.491,20.656c-0.353,0.354-0.723,0.693-1.06,1.015
			c-4.283-1.941-7.742-1.317-9.996,1.753c-2.026,2.76-1.861,6.508,0.401,9.083c2.232,2.544,6.004,3.181,8.964,1.51
			c1.503-0.85,2.579-2.08,3.201-3.691c0.89-2.308,0.512-4.518-0.639-6.604c0.265-0.287,0.444-0.497,0.639-0.692
			c6.9-6.945,13.807-13.886,20.693-20.845c0.5-0.506,1.017-0.683,1.71-0.681c7.389,0.02,14.779,0.011,22.168,0.014
			c0.351,0,0.702,0.036,1.244,0.064c-0.885,1.122-1.582,1.918-3.083,1.896c-6.233-0.092-12.47-0.033-18.704-0.048
			c-0.77-0.001-1.423,0.12-2.004,0.705c-4.002,4.032-8.024,8.043-12.047,12.055c-0.449,0.448-0.68,0.945-0.673,1.598
			c0.024,2.448-0.048,4.898,0.042,7.342c0.031,0.834-0.156,1.447-0.586,2.146c-1.604,2.604-1.593,5.289,0.104,7.825
			c1.66,2.481,4.101,3.57,7.06,3.127c4.076-0.612,6.733-4.339,6.081-8.341c-0.655-4.008-4.511-6.641-8.62-5.884
			c-0.396,0.073-0.788,0.161-1.329,0.271c0-1.807,0.031-3.508-0.015-5.208c-0.021-0.752,0.219-1.29,0.753-1.818
			c3.45-3.407,6.882-6.834,10.287-10.285c0.565-0.573,1.138-0.808,1.938-0.805c4.988,0.032,9.977,0.015,14.965,0.021
			c0.34,0,0.68,0.061,1.216,0.113c-0.491,0.518-0.825,0.885-1.175,1.234c-3.525,3.528-7.036,7.071-10.593,10.569
			c-0.924,0.907-1.335,1.894-1.313,3.196c0.059,3.602,0.007,7.204,0.031,10.807c0.005,0.732-0.158,1.295-0.706,1.839
			c-7.204,7.166-14.388,14.351-21.558,21.549c-0.504,0.507-1.018,0.692-1.711,0.682c-2.124-0.034-4.251,0.036-6.373-0.033
			c-1.062-0.033-1.82,0.312-2.56,1.062c-3.497,3.557-7.057,7.052-10.556,10.606c-0.604,0.614-1.213,0.856-2.064,0.843
			c-2.908-0.046-5.818-0.015-8.729-0.021c-0.407,0-0.814-0.041-1.17-0.061c-2.369-3.913-5.472-5.34-9.009-4.203
			c-3.21,1.032-5.348,4.204-5.021,7.449c0.357,3.539,2.885,6.165,6.397,6.618c1.614,0.208,3.125-0.144,4.517-0.975
			c2.274-1.357,3.318-3.49,3.624-6.088c0.573,0,1.032,0,1.49,0c2.956,0,5.912-0.029,8.868,0.019c0.95,0.015,1.649-0.269,2.32-0.95
			c3.238-3.292,6.576-6.489,9.758-9.834c1.209-1.271,2.439-1.997,4.202-1.72c0.73,0.115,1.504-0.114,2.373,0.171
			c-0.442,0.464-0.752,0.8-1.074,1.124c-4.408,4.409-8.842,8.794-13.202,13.249c-0.781,0.798-1.524,1.127-2.626,1.096
			c-2.724-0.076-5.45,0.015-8.174-0.044c-1.062-0.022-1.829,0.325-2.56,1.077c-2.283,2.354-4.617,4.657-6.951,6.961
			c-0.313,0.309-0.723,0.694-1.109,0.722c-1.316,0.089-2.644,0.033-3.914,0.033c-1.185-4.789-4.945-6.379-7.959-6.068
			c-3.319,0.342-5.998,2.994-6.386,6.314c-0.406,3.488,1.626,6.713,4.916,7.764c1.639,0.523,3.278,0.488,4.885-0.145
			c2.354-0.927,3.727-2.757,4.482-5.118c1.394,0,2.688-0.057,3.974,0.018c1.06,0.062,1.832-0.288,2.567-1.047
			c2.314-2.388,4.702-4.703,7.033-7.074c0.49-0.499,0.989-0.726,1.699-0.716c2.632,0.038,5.265,0.012,7.897,0.021
			c0.305,0.001,0.61,0.072,0.961,0.116c0.065,1.165,0.222,2.244-0.108,3.379c-2.661,0-5.246,0.047-7.828-0.021
			c-1.191-0.03-2.067,0.298-2.924,1.178c-3.477,3.576-7.047,7.061-10.55,10.611c-0.597,0.605-1.194,0.877-2.056,0.869
			c-4.387-0.041-8.775-0.033-13.163-0.006c-0.784,0.005-1.36-0.181-1.945-0.765c-2.51-2.508-6.284-2.838-9.131-0.883
			c-2.865,1.969-3.939,5.659-2.574,8.837c1.344,3.127,4.746,4.923,8.047,4.252c3.456-0.702,5.869-3.709,5.826-7.26
			c-0.005-0.446,0-0.89,0-1.468c0.598,0,1.097,0,1.595,0c4.018,0,8.036-0.039,12.054,0.024c1.165,0.018,1.983-0.354,2.789-1.177
			c3.523-3.596,7.115-7.123,10.654-10.703c0.565-0.572,1.146-0.818,1.947-0.803c2.032,0.044,4.064,0.011,6.096,0.019
			c0.401,0.002,0.803,0.059,1.348,0.099c0,1.471-0.028,2.848,0.012,4.221c0.021,0.663-0.238,1.123-0.689,1.573
			c-6.477,6.458-12.944,12.921-19.399,19.399c-0.462,0.463-0.939,0.649-1.587,0.643c-2.678-0.026-5.358,0.046-8.035-0.035
			c-1.319-0.041-2.268,0.421-3.171,1.342c-3.561,3.623-7.172,7.197-10.766,10.788c-0.35,0.348-0.711,0.681-1.039,0.993
			c-5.509-3.322-10.252-3.012-13.811,0.822c-3.211,3.458-3.521,8.689-0.74,12.497c2.786,3.815,7.854,5.144,12.123,3.154
			c2.128-0.989,3.723-2.553,4.743-4.667c1.32-2.74,1.213-5.535,0.201-8.272c0.078-0.158,0.1-0.259,0.16-0.32
			c3.911-3.927,7.819-7.856,11.755-11.758c0.258-0.256,0.723-0.421,1.095-0.428c2.263-0.036,4.525-0.016,6.788-0.002
			c0.166,0.001,0.33,0.108,0.505,0.168c0.018,0.372,0.046,0.692,0.046,1.012c0.002,13.625-0.004,27.249,0.017,40.874
			c0.001,0.757-0.236,1.286-0.766,1.812c-4.916,4.883-9.807,9.788-14.708,14.684c-0.228,0.229-0.472,0.435-0.772,0.709
			c-2.417-2.124-5.177-3.356-8.432-3.287c-3.307,0.069-6.113,1.295-8.392,3.679c-3.97,4.152-4.358,10.52-0.957,15.139
			c3.364,4.568,9.486,6.112,14.617,3.663c2.553-1.219,4.443-3.123,5.63-5.694c1.541-3.339,1.404-6.706-0.119-10.329
			c0.381-0.275,0.841-0.527,1.198-0.884c5.105-5.083,10.172-10.206,15.312-15.253c1.079-1.06,1.502-2.159,1.496-3.661
			c-0.045-14.226-0.024-28.45-0.032-42.676c-0.001-0.755,0.066-1.391,0.679-1.991c3.496-3.429,6.939-6.908,10.407-10.364
			c0.2-0.199,0.468-0.332,0.795-0.56c0.03,0.344,0.061,0.521,0.061,0.698c0.002,7.759-0.006,15.519,0.016,23.277
			c0.002,0.666-0.24,1.119-0.693,1.564c-1.812,1.781-3.572,3.614-5.406,5.37c-0.728,0.695-1.018,1.441-1.011,2.442
			c0.035,5.635,0.036,11.271-0.002,16.903c-0.007,1.012,0.325,1.738,1.04,2.432c2.284,2.221,4.453,4.565,6.799,6.718
			c1.173,1.076,1.71,2.21,1.472,3.747c-0.069,0.444,0.012,1.029-0.241,1.311c-1.167,1.289-2.427,2.492-3.612,3.686
			c-3.882-2.129-7.556-1.628-9.918,1.237c-2.216,2.688-2.222,6.502-0.015,9.194c2.164,2.64,5.881,3.414,8.904,1.847
			c1.531-0.795,2.647-1.985,3.329-3.575c0.978-2.281,0.655-4.5-0.488-6.804c1.284-1.232,2.523-2.472,3.82-3.646
			c0.714-0.646,1.003-1.383,0.955-2.329c-0.05-0.967-0.056-1.941,0.002-2.909c0.061-1.008-0.322-1.743-1.034-2.438
			c-2.511-2.453-4.961-4.968-7.469-7.423c-0.571-0.559-0.824-1.129-0.819-1.935c0.031-5.079,0.029-10.16,0.002-15.241
			c-0.005-0.752,0.216-1.296,0.756-1.819c1.822-1.769,3.58-3.604,5.41-5.366c0.688-0.662,0.96-1.374,0.953-2.324
			c-0.035-4.849-0.017-9.699-0.017-14.549c0.001-3.971-0.005-7.943,0.009-11.915c0.002-0.45-0.041-1.03,0.206-1.322
			c0.781-0.926,1.69-1.742,2.549-2.6c0.094,0.045,0.186,0.092,0.278,0.137c0,0.446,0,0.893,0,1.34
			c0,11.084-0.017,22.168,0.026,33.252c0.004,1.118-0.364,1.662-1.33,2.229c-4.673,2.742-6.909,6.925-6.297,12.291
			c0.605,5.306,3.709,8.809,8.782,10.529c0.425,0.145,0.851,0.285,1.281,0.429c0.021,0.31,0.05,0.537,0.05,0.764
			c0.003,6.42-0.013,12.841,0.023,19.26c0.004,0.798-0.358,1.276-0.861,1.779c-6.571,6.557-13.134,13.124-19.701,19.685
			c-0.279,0.279-0.596,0.524-0.921,0.809c-0.31-0.282-0.541-0.506-0.784-0.714c-2.465-2.12-5.774-2.413-8.495-0.757
			c-2.689,1.639-3.992,4.781-3.271,7.892c0.854,3.68,4.485,6.034,8.335,5.404c3.66-0.6,6.373-4.157,5.827-7.857
			c-0.166-1.127,0.178-1.78,0.915-2.514c6.847-6.805,13.654-13.648,20.505-20.448c0.815-0.811,1.188-1.641,1.179-2.799
			c-0.044-6.189-0.021-12.378-0.021-18.567C219.973,416.301,219.973,415.753,219.973,415.138z M412.148,301.13
			c-0.381-0.469-0.669-0.895-1.025-1.252c-6.722-6.732-13.48-13.43-20.153-20.21c-1.208-1.228-2.439-1.707-4.139-1.682
			c-5.956,0.084-11.915,0.01-17.872,0.055c-1.01,0.008-1.707-0.292-2.418-1.006c-10.038-10.079-20.096-20.138-30.18-30.171
			c-0.78-0.776-1.121-1.538-1.117-2.65c0.044-16.765,0.047-33.529,0.056-50.294c0.012-20.552,0.021-41.104,0.027-61.656
			c0.005-16.072,0.013-32.144-0.021-48.216c-0.002-1.104,0.303-1.879,1.095-2.657c6.326-6.213,12.596-12.484,18.919-18.699
			c0.969-0.951,1.394-1.964,1.36-3.313c-0.069-2.679-0.023-5.361-0.019-8.042c0.001-0.408,0.036-0.815,0.059-1.297
			c2.222-0.977,2.801-2.754,2.785-5.067c-0.074-11.13-0.034-22.262-0.034-33.392c0-0.538,0-1.077,0-1.583
			c-1.943-0.288-9.788-0.209-10.818,0.103c0,0.479,0,0.983,0,1.487c0,9.145,0,18.289,0,27.433c0,2.356,0.013,4.711-0.005,7.067
			c-0.01,1.298,0.522,2.318,1.492,3.135c0.313,0.265,0.652,0.501,1.055,0.809c0,2.498-0.041,5.036,0.021,7.57
			c0.026,1.044-0.27,1.796-1.03,2.543c-6.197,6.081-12.323,12.234-18.541,18.294c-1.303,1.271-1.808,2.622-1.806,4.413
			c0.033,18.797,0.005,37.593,0.001,56.39c-0.007,35.563-0.001,71.124-0.037,106.686c-0.002,1.461,0.407,2.562,1.476,3.545
			c1.426,1.312,2.722,2.767,4.143,4.086c0.735,0.684,1.02,1.398,1.016,2.412c-0.038,9.283-0.007,18.566-0.044,27.851
			c-0.005,1.107,0.334,1.893,1.12,2.664c3.66,3.589,7.267,7.232,10.891,10.859c0.355,0.355,0.697,0.726,1.026,1.069
			c-1.853,4.576-1.145,7.976,2.072,10.137c2.821,1.895,6.612,1.558,9.061-0.804c2.457-2.371,2.923-6.111,1.113-9.02
			c-0.914-1.467-2.202-2.474-3.829-3.04c-2.242-0.777-4.356-0.324-6.339,0.769c-0.187-0.13-0.313-0.192-0.408-0.287
			c-3.792-3.784-7.572-7.579-11.382-11.347c-0.483-0.479-0.589-0.989-0.587-1.611c0.008-8.175,0.003-16.35,0.011-24.525
			c0-0.332,0.086-0.663,0.153-1.152c0.449,0.416,0.757,0.686,1.044,0.974c13.851,13.845,27.695,27.693,41.559,41.522
			c0.638,0.635,0.917,1.268,0.912,2.174c-0.036,6.233-0.002,12.47-0.032,18.704c-0.007,1.239,0.372,2.211,1.272,3.076
			c1.899,1.822,3.698,3.749,5.615,5.553c0.782,0.736,1.03,1.513,1.028,2.552c-0.028,12.332-0.005,24.663-0.041,36.993
			c-0.003,1.25,0.356,2.155,1.251,3.043c7.803,7.74,15.563,15.524,23.335,23.297c0.356,0.356,0.696,0.728,1.026,1.073
			c-2.314,4.463-1.915,7.91,1.159,10.369c2.668,2.135,6.595,2.061,9.202-0.175c2.613-2.239,3.282-6.078,1.58-9.069
			c-1.886-3.312-5.276-4.34-9.694-2.896c-0.243-0.219-0.526-0.447-0.782-0.704c-7.843-7.835-15.675-15.68-23.532-23.497
			c-0.613-0.61-0.83-1.231-0.828-2.076c0.023-11.177,0.015-22.354,0.019-33.53c0-0.399,0.048-0.798,0.084-1.369
			c1.335,1.01,2.183,1.901,2.162,3.663c-0.104,8.866-0.033,17.734-0.064,26.602c-0.004,1.093,0.297,1.907,1.089,2.693
			c7.178,7.124,14.328,14.278,21.461,21.45c0.705,0.708,1.419,1.035,2.431,1.02c3.463-0.054,6.927-0.035,10.391-0.004
			c0.469,0.005,1.067,0.099,1.382,0.392c1.615,1.51,3.157,3.099,4.806,4.739c-0.571,0.276-1.025,0.48-1.467,0.71
			c-2.896,1.509-4.439,4.812-3.71,7.934c0.782,3.347,3.584,5.621,6.962,5.653c3.377,0.031,6.194-2.086,7.078-5.321
			c0.873-3.187-0.502-6.644-3.449-8.141c-1.277-0.649-2.327-1.391-3.278-2.479c-1.605-1.841-3.453-3.467-5.147-5.234
			c-0.69-0.72-1.426-1.039-2.437-1.024c-3.37,0.05-6.743-0.005-10.113,0.036c-0.891,0.011-1.541-0.228-2.188-0.878
			c-6.705-6.749-13.435-13.473-20.183-20.18c-0.641-0.637-0.906-1.275-0.902-2.179c0.031-7.713,0.019-15.426,0.019-23.14
			c0-0.396,0-0.793,0-1.188c0.105-0.031,0.212-0.064,0.317-0.096c0.939,0.996,2.092,1.675,2.056,3.505
			c-0.128,6.417-0.034,12.839-0.067,19.258c-0.005,1.003,0.298,1.736,1.01,2.442c5.737,5.692,11.452,11.408,17.148,17.142
			c0.704,0.709,1.439,1.027,2.442,1.018c4.203-0.041,8.406,0.006,12.609-0.035c0.949-0.011,1.626,0.276,2.299,0.954
			c5.92,5.967,11.841,11.936,17.85,17.812c1.194,1.168,1.198,2.326,0.933,3.691c-7.56,1.417-10.645,7.548-10.247,12.548
			c0.491,6.173,5.224,10.741,11.308,11.059c5.656,0.294,10.961-3.826,12.076-9.394c0.575-2.871,0.184-5.611-1.252-8.17
			c-1.96-3.493-5.042-5.394-9.009-6.084c0-0.728-0.056-1.373,0.012-2.007c0.121-1.157-0.322-1.985-1.145-2.801
			c-6.43-6.372-12.833-12.77-19.202-19.202c-0.822-0.829-1.658-1.146-2.804-1.131c-4.201,0.055-8.405,0.006-12.607,0.036
			c-0.753,0.006-1.295-0.216-1.827-0.752c-5.374-5.401-10.764-10.789-16.166-16.163c-0.497-0.492-0.716-0.999-0.714-1.703
			c0.023-5.357,0.012-10.715,0.02-16.073c0-0.295,0.085-0.591,0.172-1.154c1.032,1.398,2.333,1.365,3.647,1.363
			c7.343-0.011,14.686,0.009,22.028-0.022c0.905-0.005,1.551,0.262,2.186,0.903c4.255,4.3,8.546,8.564,12.821,12.846
			c0.285,0.286,0.538,0.604,0.787,0.886c-4.405,6.674-2.066,13.436,1.963,16.892c4.603,3.945,11.379,4.041,16.065,0.199
			c4.703-3.854,5.979-10.505,2.998-15.78c-1.484-2.628-3.643-4.513-6.478-5.576c-3.523-1.321-6.973-1.005-10.567,0.722
			c-0.292-0.377-0.564-0.817-0.92-1.175c-4.564-4.581-9.164-9.126-13.694-13.737c-1.082-1.099-2.202-1.61-3.775-1.595
			c-7.388,0.071-14.778,0.021-22.169,0.047c-0.888,0.004-1.546-0.219-2.192-0.871c-5.69-5.74-11.407-11.452-17.146-17.145
			c-0.612-0.607-0.844-1.216-0.839-2.065c0.03-6.143-0.02-12.285,0.041-18.427c0.016-1.51-0.474-2.618-1.541-3.667
			c-4.643-4.565-9.227-9.189-13.832-13.796c-0.336-0.336-0.652-0.69-0.979-1.036c0.045-0.092,0.092-0.182,0.138-0.273
			c0.401,0,0.803,0,1.203,0c4.342,0,8.684,0.027,13.024-0.022c0.923-0.011,1.544,0.311,2.17,0.939
			c6.679,6.71,13.381,13.397,20.073,20.094c0.289,0.289,0.553,0.603,0.812,0.889c-4.025,6.521-1.584,13.031,2.608,16.204
			c4.627,3.502,11.172,3.122,15.368-0.915c4.156-3.998,4.811-10.461,1.525-15.201c-1.67-2.411-3.934-4.011-6.768-4.751
			C418.625,298.396,415.405,299.069,412.148,301.13z"/>
		<path d="M339.091,535.844c0-0.504,0-0.958,0-1.41c0-7.573-0.013-15.148,0.018-22.723c0.003-0.944-0.246-1.633-0.93-2.312
			c-7.175-7.129-14.317-14.29-21.473-21.44c-0.309-0.309-0.645-0.592-1.146-1.052c0,9.15,0,18.034,0,27.002
			c3.776,0.858,6.78,2.846,8.703,6.272c1.478,2.633,1.911,5.454,1.374,8.433c-1.019,5.65-6.001,9.899-11.92,10.136
			c-5.772,0.232-11.036-3.738-12.476-9.422c-0.544-2.148-0.516-4.303,0.071-6.437c0.574-2.09,1.652-3.896,3.18-5.438
			c1.561-1.573,3.445-2.61,5.593-3.284c0-0.582,0-1.086,0-1.59c0-18.382-0.009-36.765,0.022-55.146
			c0.001-1.059-0.31-1.802-1.06-2.536c-3.203-3.131-6.351-6.319-9.521-9.486c-0.323-0.322-0.661-0.629-1.228-1.166
			c-0.022,0.738-0.05,1.215-0.05,1.691c-0.002,11.64-0.032,23.278,0.027,34.916c0.011,1.949-0.581,3.413-1.971,4.786
			c-6.77,6.684-13.457,13.452-20.202,20.161c-0.673,0.669-0.994,1.326-0.987,2.287c0.039,5.911,0.02,11.822,0.02,17.734
			c0,0.41,0,0.821,0,1.333c5.047,1.334,8.845,4.191,11.055,8.925c1.578,3.382,1.873,6.914,0.957,10.543
			c-1.79,7.088-8.467,12.113-15.793,11.876c-7.537-0.244-13.792-5.644-15.094-13.222c-1.304-7.579,2.949-14.882,10.715-17.678
			c0-0.464,0-1.002,0-1.539c0-6.697,0.029-13.396-0.02-20.091c-0.013-1.735,0.527-3.09,1.768-4.317
			c6.856-6.794,13.659-13.643,20.508-20.444c0.678-0.673,0.943-1.35,0.942-2.302c-0.024-21.568-0.002-43.138-0.048-64.707
			c-0.005-1.902,0.568-3.335,1.92-4.662c5.141-5.048,10.2-10.179,15.316-15.253c0.6-0.595,0.879-1.181,0.878-2.047
			c-0.024-18.336-0.02-36.673-0.02-55.007c0-0.367,0-0.732,0-1.299c-0.379,0.285-0.64,0.437-0.847,0.644
			c-2.586,2.573-5.159,5.16-7.752,7.729c-0.417,0.412-0.656,0.832-0.652,1.445c0.022,3.972,0.012,7.944,0.019,11.916
			c0,0.179,0.051,0.357,0.09,0.608c2.209,0.64,3.997,1.846,5.021,3.987c0.72,1.506,0.938,3.068,0.557,4.715
			c-0.794,3.424-3.716,5.718-7.243,5.654c-3.332-0.06-6.267-2.501-6.903-5.744c-0.759-3.873,1.158-6.847,5.744-8.718
			c0-0.424,0-0.917,0-1.41c0-3.788,0.041-7.575-0.024-11.361c-0.021-1.169,0.358-1.985,1.181-2.788
			c3.368-3.292,6.666-6.657,10.019-9.967c0.569-0.562,0.839-1.133,0.808-1.938c-0.054-1.41-0.015-2.825-0.015-4.514
			c-0.483,0.404-0.766,0.607-1.009,0.85c-5.98,5.973-11.954,11.951-17.939,17.919c-0.477,0.475-0.788,0.933-0.786,1.666
			c0.027,7.759,0.016,15.52,0.02,23.278c0,0.271,0.039,0.54,0.058,0.775c4.538,1.99,6.354,4.868,5.551,8.725
			c-0.707,3.398-3.665,5.745-7.19,5.704c-3.354-0.038-6.297-2.442-6.954-5.68c-0.791-3.897,1.101-6.825,5.791-8.796
			c0-0.434,0-0.931,0-1.428c0-7.666,0.021-15.333-0.023-22.999c-0.008-1.165,0.364-1.983,1.179-2.792
			c6.818-6.768,13.594-13.577,20.405-20.352c0.635-0.63,0.92-1.261,0.919-2.172c-0.025-17.55-0.02-35.1-0.021-52.651
			c0-0.403,0-0.806,0-1.463c-0.457,0.379-0.741,0.577-0.982,0.817c-4.151,4.144-8.295,8.296-12.451,12.434
			c-0.473,0.473-0.794,0.928-0.789,1.664c0.033,5.312,0.018,10.623,0.021,15.936c0,0.227,0.038,0.453,0.067,0.771
			c4.289,1.231,7.425,3.81,8.966,8.083c1.149,3.188,0.937,6.345-0.444,9.437c-2.41,5.396-10,10.02-18.431,5.154
			c-0.318,0.3-0.66,0.604-0.982,0.927c-10.29,10.285-20.568,20.581-30.887,30.838c-0.829,0.823-1.098,1.632-0.844,2.742
			c6,2.05,9.536,6.088,9.447,12.601c-0.077,5.725-3.323,9.547-9.621,11.887c-0.033,0.266-0.109,0.573-0.106,0.881
			c0.062,5.726,0.154,11.451,0.188,17.177c0.005,0.899,0.258,1.539,0.9,2.179c6.457,6.41,12.869,12.866,19.333,19.269
			c0.822,0.815,1.16,1.639,1.155,2.794c-0.042,9.099-0.023,18.198-0.023,27.297c0,0.549,0,1.099,0,1.743
			c2.371,0.681,4.171,2.024,5.152,4.289c0.686,1.581,0.78,3.219,0.305,4.878c-0.945,3.31-4.071,5.428-7.612,5.166
			c-3.244-0.239-6.025-2.84-6.472-6.05c-0.544-3.899,1.435-6.777,5.792-8.322c0-2.804,0-5.643,0-8.637
			c-0.31,0.224-0.572,0.363-0.774,0.565c-6.831,6.819-13.652,13.649-20.492,20.461c-0.498,0.496-0.71,1.008-0.708,1.708
			c0.023,4.434,0.003,8.867,0.029,13.302c0.002,0.428,0.1,0.979,0.372,1.262c2.215,2.284,4.481,4.518,6.711,6.747
			c4.272-2.368,7.819-2.005,10.3,0.997c2.202,2.664,2.206,6.507,0.011,9.201c-2.166,2.657-5.991,3.404-9.032,1.764
			c-3.398-1.834-4.482-5.271-3.032-9.768c-0.286-0.302-0.592-0.64-0.913-0.962c-2.023-2.027-4.024-4.077-6.087-6.062
			c-0.755-0.727-1.097-1.486-1.088-2.55c0.047-4.895,0.044-9.791,0.002-14.687c-0.009-1.013,0.334-1.727,1.04-2.429
			c7.596-7.558,15.159-15.148,22.759-22.701c0.708-0.702,1.112-1.387,1.017-2.411c-0.088-0.944-0.019-1.904-0.019-3.146
			c-0.48,0.417-0.756,0.628-0.998,0.871c-8.631,8.613-17.253,17.234-25.896,25.833c-0.601,0.598-0.875,1.186-0.871,2.053
			c0.03,10.484,0.02,20.969,0.02,31.452c0,0.364,0,0.729,0,1.188c2.372,0.662,4.205,1.964,5.219,4.219
			c0.686,1.527,0.816,3.118,0.393,4.737c-0.906,3.455-3.952,5.63-7.557,5.416c-3.271-0.194-6.1-2.808-6.603-6.099
			c-0.565-3.719,1.444-6.671,5.811-8.317c0-0.463,0-1,0-1.537c0-10.576,0.015-21.152-0.022-31.729
			c-0.005-1.157,0.34-1.983,1.159-2.798c9.468-9.407,18.896-18.855,28.363-28.266c0.711-0.707,1.047-1.398,1.006-2.412
			c-0.079-1.938-0.041-3.881-0.013-5.819c0.011-0.64-0.155-1.126-0.624-1.592c-5.762-5.733-11.505-11.486-17.255-17.232
			c-0.127-0.128-0.276-0.232-0.535-0.448c-0.072,0.34-0.166,0.572-0.165,0.804c0.011,2.216,0.058,4.433,0.047,6.649
			c-0.003,0.717,0.301,1.201,0.785,1.681c2.66,2.631,5.279,5.304,7.957,7.915c0.748,0.731,1.11,1.483,1.087,2.55
			c-0.062,2.863-0.066,5.729,0.001,8.59c0.026,1.119-0.368,1.9-1.142,2.669c-7.435,7.393-14.831,14.822-22.271,22.209
			c-0.748,0.743-1.058,1.489-1.051,2.541c0.04,6.881,0.026,13.762,0.013,20.644c-0.002,0.826-0.152,1.651-0.145,2.476
			c0.005,0.436,0.158,0.886,0.318,1.301c1.881,4.864-1.686,10.021-6.893,9.868c-2.995-0.088-5.21-1.567-6.415-4.3
			c-1.205-2.729-0.822-5.374,1.14-7.635c1.96-2.259,4.486-2.974,7.395-2.228c0.569,0.146,1.117,0.384,1.823,0.631
			c0.029-0.573,0.074-1.055,0.074-1.536c0.004-6.743,0.026-13.486-0.02-20.23c-0.008-1.152,0.321-1.979,1.145-2.798
			c7.442-7.386,14.832-14.822,22.275-22.205c0.759-0.753,1.056-1.503,1.027-2.545c-0.062-2.261-0.003-4.524-0.035-6.788
			c-0.007-0.433-0.06-0.998-0.325-1.272c-2.077-2.154-4.212-4.25-6.488-6.523c-0.069,0.494-0.145,0.78-0.145,1.066
			c0.001,1.386-0.028,2.774,0.052,4.155c0.077,1.354-0.424,2.365-1.377,3.312c-8.316,8.272-16.604,16.576-24.9,24.87
			c-1.307,1.307-2.584,2.644-3.932,3.906c-0.626,0.588-0.857,1.206-0.854,2.062c0.031,7.111-0.013,14.225,0.041,21.337
			c0.013,1.549-0.449,2.718-1.569,3.798c-3.055,2.952-6.011,6.007-9.044,8.982c-0.617,0.605-0.855,1.156-0.71,2.05
			c1.197,7.306-3.791,13.784-11.159,14.565c-6.669,0.708-13.065-4.597-13.551-11.238c-0.401-5.495,2.305-10.262,7.12-12.538
			c4.78-2.261,10.191-1.293,14.191,2.538c0.132,0.128,0.271,0.251,0.475,0.438c0.273-0.226,0.564-0.427,0.81-0.673
			c2.39-2.379,4.756-4.781,7.165-7.139c0.575-0.562,0.802-1.14,0.799-1.94c-0.026-7.204,0.009-14.41-0.036-21.614
			c-0.01-1.402,0.439-2.444,1.431-3.43c9.562-9.512,19.082-19.063,28.642-28.577c0.711-0.708,0.998-1.401,0.985-2.415
			c-0.146-12.421-0.243-24.844-0.352-37.266c-0.006-0.69,0-1.379,0-2.103c-6.454-2.121-10.09-6.363-9.793-13.26
			c0.226-5.239,3.908-9.837,9.814-11.353c0.023-0.625,0.115-1.304,0.062-1.971c-0.11-1.407,0.445-2.448,1.431-3.431
			c10.669-10.625,21.307-21.28,31.964-31.915c0.39-0.39,0.885-0.674,1.252-0.947c-4.198-7.977-0.362-16.604,8.011-18.959
			c0-0.448,0-0.942,0-1.437c0-5.358,0.042-10.717-0.025-16.073c-0.02-1.549,0.442-2.707,1.55-3.801
			c5.722-5.643,11.371-11.359,17.083-17.013c0.783-0.775,1.083-1.553,1.083-2.661c-0.029-59.903-0.028-119.807-0.004-179.709
			c0.001-1.106-0.311-1.879-1.102-2.653c-3.827-3.749-7.575-7.579-11.395-11.334c-1.164-1.143-1.748-2.395-1.707-4.051
			c0.077-3.093,0.014-6.188,0.028-9.283c0.003-0.705-0.048-1.333-0.555-1.922c-0.695-0.81-0.761-1.845-0.759-2.882
			c0.008-6.465,0.004-12.932,0.004-19.398c0-4.85,0-9.699,0-14.549c0-0.5,0-1,0-1.696c3.642-0.021,7.16-0.007,10.834-0.009
			c0,0.658,0,1.152,0,1.648c0,11.361-0.008,22.723,0.011,34.084c0.002,1.249-0.201,2.365-1.065,3.333
			c-0.243,0.272-0.359,0.742-0.364,1.124c-0.03,2.54,0.012,5.081-0.034,7.62c-0.014,0.739,0.323,1.189,0.798,1.662
			c3.896,3.877,7.753,7.793,11.681,11.637c1.171,1.147,1.81,2.412,1.718,4.048c-0.024,0.46,0,0.923,0,1.385
			c0,69.232,0.005,138.465-0.026,207.698c-0.002,1.358,0.397,2.305,1.358,3.252c5.82,5.74,11.565,11.557,17.377,17.307
			c1.202,1.189,1.787,2.493,1.717,4.189c-0.084,1.982,0.026,3.973-0.04,5.956c-0.031,0.955,0.27,1.625,0.946,2.299
			c9.134,9.09,18.24,18.207,27.352,27.317c0.98,0.979,1.923,2,2.951,2.928c1.039,0.936,1.442,2.021,1.436,3.428
			c-0.043,9.421-0.022,18.843-0.022,28.265c0,0.551,0,1.101,0,1.72c0.449,0.208,0.865,0.384,1.265,0.59
			c4.276,2.193,6.741,5.635,7.122,10.467c0.056,0.695,0.271,1.2,0.763,1.688c3.901,3.871,7.79,7.755,11.657,11.661
			c0.53,0.537,1.076,0.746,1.822,0.74c4.019-0.029,8.037,0.019,12.055-0.031c1.298-0.017,2.276,0.4,3.189,1.323
			c5.002,5.058,10.029,10.09,15.094,15.084c0.969,0.958,1.353,1.987,1.346,3.324c-0.036,7.158,0,14.318-0.036,21.477
			c-0.004,0.95,0.252,1.637,0.935,2.308c3.459,3.398,6.872,6.845,10.305,10.271c0.289,0.29,0.603,0.556,0.88,0.812
			c7.225-2.904,13.339-1.339,16.871,4.275c3.231,5.131,2.306,11.79-2.212,15.91c-4.398,4.014-11.194,4.299-15.946,0.667
			c-5.244-4.009-6.278-10.211-2.778-17.122c-0.313-0.326-0.652-0.687-1.003-1.037c-3.722-3.724-7.43-7.463-11.182-11.157
			c-0.925-0.909-1.325-1.903-1.318-3.197c0.033-7.204,0-14.41,0.035-21.614c0.004-0.953-0.267-1.629-0.946-2.3
			c-4.273-4.218-8.517-8.465-12.738-12.734c-0.604-0.612-1.216-0.854-2.067-0.847c-3.925,0.038-7.853-0.021-11.776,0.037
			c-1.396,0.021-2.464-0.405-3.443-1.408c-3.262-3.334-6.588-6.605-9.878-9.912c-0.355-0.357-0.641-0.786-1.072-1.323
			c-2.349,3.696-5.466,5.797-9.641,6.391c0,2.238-0.015,4.401,0.018,6.564c0.005,0.282,0.218,0.588,0.401,0.831
			c0.22,0.292,0.512,0.529,0.773,0.79c10.191,10.189,20.372,20.386,30.59,30.548c0.889,0.884,1.322,1.775,1.246,3.033
			c-0.095,1.561-0.023,3.131-0.023,4.818c2.506,0.506,4.486,1.728,5.655,4.031c0.764,1.503,0.917,3.104,0.582,4.724
			c-0.691,3.34-3.663,5.698-7.081,5.696c-3.42-0.002-6.294-2.333-7.058-5.724c-0.804-3.56,0.963-6.561,5.167-8.58
			c0-1.702,0.021-3.489-0.021-5.274c-0.006-0.275-0.26-0.57-0.459-0.807c-0.295-0.353-0.644-0.662-0.969-0.987
			c-10.124-10.125-20.239-20.259-30.394-30.353c-0.865-0.86-1.234-1.729-1.19-2.93c0.076-2.071,0.021-4.148,0.021-6.255
			c-6.89-1.6-10.93-5.643-11.081-12.886c-0.065-3.125,1.17-5.857,3.278-8.161c2.068-2.259,4.684-3.531,7.784-3.982
			c0-0.524,0-0.932,0-1.339c0-8.868-0.009-17.735,0.015-26.604c0.004-0.842-0.203-1.457-0.82-2.071
			c-8.416-8.372-16.802-16.771-25.197-25.162c-0.289-0.287-0.6-0.554-0.921-0.849c-0.313,0.99-0.406,23.064-0.118,25.073
			c0.342,0,0.697,0.029,1.047-0.003c9.496-0.922,17.706,6.953,17.183,16.488c-0.438,7.996-6.63,14.359-14.416,14.984
			c-8.202,0.66-15.385-4.934-16.863-12.708c-0.996-5.244,0.386-9.889,4.008-13.816c0.579-0.628,0.818-1.211,0.816-2.064
			c-0.029-13.624-0.03-27.249,0-40.874c0.002-1.05-0.289-1.8-1.045-2.539c-3.368-3.294-6.678-6.646-10.013-9.976
			c-0.316-0.315-0.654-0.61-1.203-1.118c-0.025,0.76-0.056,1.247-0.056,1.733c-0.003,27.388,0.002,54.776-0.021,82.165
			c-0.001,0.952,0.284,1.627,0.955,2.298c9.207,9.212,18.373,18.464,27.593,27.663c1.161,1.156,1.739,2.343,1.696,4.017
			c-0.102,4.016,0.006,8.036-0.057,12.054c-0.018,1.15,0.305,1.965,1.134,2.787c8.588,8.525,17.119,17.106,25.711,25.628
			c0.969,0.96,1.399,1.923,1.348,3.282c-0.095,2.489-0.027,4.985-0.027,7.41c0.488,0.287,0.99,0.467,1.337,0.806
			c2.275,2.23,4.503,4.511,6.779,6.739c0.576,0.565,0.802,1.169,0.794,1.964c-0.029,3.187,0.001,6.374-0.022,9.561
			c-0.004,0.644,0.166,1.127,0.632,1.59c6.284,6.256,12.552,12.528,18.826,18.796c0.096,0.097,0.212,0.175,0.439,0.358
			c1.933-1.563,4.162-2.232,6.657-1.604c1.67,0.422,3.022,1.359,4.042,2.75c1.971,2.689,1.812,6.462-0.368,8.979
			c-2.242,2.589-5.967,3.267-8.945,1.627c-3.295-1.814-4.442-5.196-3.122-9.466c-0.286-0.309-0.613-0.68-0.964-1.03
			c-6.27-6.271-12.53-12.551-18.825-18.797c-0.777-0.771-1.154-1.556-1.131-2.67c0.064-3.047,0.003-6.097,0.036-9.145
			c0.008-0.701-0.19-1.214-0.697-1.704c-1.748-1.692-3.454-3.429-5.224-5.196c-0.291,1.13-0.385,55.351-0.121,57.47
			c2.146,0.55,3.919,1.696,5.014,3.73c0.845,1.57,1.043,3.241,0.688,4.972c-0.672,3.289-3.679,5.665-7.115,5.648
			c-3.538-0.017-6.443-2.49-7.074-6.021c-0.656-3.674,1.327-6.682,5.629-8.374c0-0.441,0-0.939,0-1.438
			c0-22.122-0.007-44.245,0.022-66.368c0.001-1.013-0.241-1.762-1.019-2.408c-0.66-0.549-1.236-1.198-2.097-2.049
			c-0.03,0.845-0.065,1.37-0.065,1.895c-0.005,9.652-0.025,19.306,0.022,28.959c0.007,1.312-0.378,2.26-1.328,3.156
			c-2.048,1.932-4.003,3.965-5.993,5.958c-0.322,0.323-0.629,0.663-0.926,0.977c2.154,4.591,1.653,8.004-1.479,10.336
			c-2.78,2.068-6.633,1.878-9.188-0.457c-2.564-2.343-3.113-6.152-1.312-9.104c2-3.278,5.47-4.217,9.784-2.598
			c0.276-0.252,0.59-0.516,0.878-0.803c2.028-2.021,4.041-4.059,6.085-6.064c0.489-0.481,0.753-0.968,0.752-1.687
			c-0.021-10.809-0.02-21.615-0.005-32.422c0-0.643-0.164-1.132-0.63-1.595c-6.061-6.023-12.104-12.062-18.158-18.092
			c-0.149-0.15-0.341-0.26-0.653-0.494c0,9.329,0,18.487,0,27.729c3.143,0.94,5.61,2.746,7.056,5.761
			c1.054,2.198,1.312,4.491,0.787,6.883c-1.022,4.67-5.24,8.105-10.07,8.175c-4.968,0.071-9.241-3.143-10.423-7.888
			c-0.676-2.711-0.359-5.319,1.011-7.771c1.181-2.114,2.358-3.083,6.151-5.092c0-0.444,0-0.946,0-1.447
			c0-14.271-0.01-28.543,0.022-42.813c0.002-1.013-0.301-1.709-1.014-2.415c-4.267-4.223-8.485-8.495-12.725-12.748
			c-0.312-0.314-0.65-0.603-1.136-1.05c0,8.411,0,16.602,0,24.889c2.247,0.619,4.061,1.875,5.091,4.071
			c0.712,1.516,0.874,3.099,0.481,4.729c-0.806,3.345-3.767,5.64-7.182,5.573c-3.432-0.067-6.398-2.613-6.988-6
			c-0.646-3.711,1.298-6.63,5.769-8.474c0-0.415,0-0.907,0-1.398c0-7.897-0.003-15.796,0.006-23.693
			c0.001-0.772,0.086-1.546,0.133-2.362c-2.306-2.272-4.666-4.597-7.096-6.989c-0.051,0.262-0.146,0.539-0.152,0.818
			c-0.021,0.878-0.046,1.757-0.001,2.632c0.085,1.636-0.517,2.916-1.683,4.068c-5.094,5.03-10.123,10.126-15.217,15.155
			c-0.847,0.834-1.239,1.662-1.227,2.88c0.063,6.188,0.05,12.377,0.009,18.565c-0.007,0.954,0.26,1.63,0.939,2.302
			c4.99,4.938,9.923,9.934,14.926,14.858c1.006,0.988,1.409,2.033,1.401,3.43c-0.046,7.989-0.009,15.98-0.04,23.971
			c-0.004,0.902,0.26,1.542,0.9,2.181c8.511,8.472,16.986,16.979,25.506,25.44c0.925,0.918,1.325,1.855,1.316,3.164
			c-0.05,7.99-0.024,15.98-0.024,23.971c0,0.505,0,1.009,0,1.562c2.713,0.905,4.789,2.497,5.988,5.075
			c0.907,1.951,1.104,3.984,0.596,6.082c-1.019,4.199-4.914,7.111-9.331,6.969c-4.106-0.132-7.814-3.246-8.595-7.277
			c-0.486-2.508-0.078-4.869,1.355-7.02C334.563,537.72,336.575,536.5,339.091,535.844z M339.342,357.312
			c-4.264-0.001-7.641,3.358-7.651,7.61c-0.011,4.253,3.364,7.683,7.579,7.702c4.297,0.019,7.749-3.414,7.738-7.697
			C346.998,360.701,343.587,357.313,339.342,357.312z M271.822,535.006c-4.214,0.007-7.656,3.441-7.666,7.647
			c-0.012,4.221,3.394,7.655,7.618,7.685c4.288,0.03,7.77-3.439,7.732-7.705C279.47,538.406,276.037,534.999,271.822,535.006z
			 M241.402,367.758c-0.018,3.9,3.101,7.065,6.986,7.089c3.907,0.023,7.1-3.077,7.148-6.941c0.049-3.922-3.16-7.185-7.069-7.188
			C244.607,360.713,241.42,363.888,241.402,367.758z M442.116,464.312c-3.901-0.022-7.057,3.065-7.119,6.967
			c-0.061,3.912,3.158,7.174,7.078,7.168c3.863-0.005,7.034-3.179,7.052-7.06C449.146,467.512,445.997,464.333,442.116,464.312z
			 M196.961,500.689c3.914,0.026,7.068-3.067,7.1-6.963c0.032-3.958-3.142-7.183-7.061-7.175c-3.838,0.009-7.058,3.225-7.071,7.065
			C189.916,497.475,193.085,500.663,196.961,500.689z M313.39,533.328c3.867-0.017,7.027-3.199,7.026-7.076
			c-0.002-3.879-3.156-7.044-7.037-7.059c-3.931-0.016-7.137,3.208-7.101,7.139C306.314,530.195,309.514,533.343,313.39,533.328z
			 M291.329,303.585c-3.9-0.021-7.069,3.065-7.14,6.955c-0.07,3.876,3.197,7.181,7.095,7.176c3.857-0.004,7.038-3.192,7.048-7.062
			C298.339,306.752,295.223,303.604,291.329,303.585z M358.278,392.689c0.027,3.878,3.217,7.046,7.077,7.027
			c3.84-0.017,7.053-3.233,7.066-7.074c0.015-3.9-3.247-7.107-7.182-7.064C361.342,385.621,358.25,388.78,358.278,392.689z
			 M340.751,538.47c-3.542,0.036-6.44,2.96-6.425,6.478c0.017,3.59,2.971,6.467,6.598,6.423c3.533-0.043,6.39-2.981,6.347-6.526
			C347.227,541.321,344.274,538.433,340.751,538.47z M344.222,466.26c-2.81-0.019-5.132,2.256-5.164,5.061
			c-0.033,2.772,2.296,5.146,5.073,5.17c2.797,0.025,5.119-2.269,5.142-5.08C349.294,468.581,347.038,466.278,344.222,466.26z
			 M287.01,382.373c2.471,0.017,4.509-1.955,4.555-4.405c0.047-2.499-2.021-4.574-4.542-4.562c-2.461,0.012-4.479,2.026-4.486,4.482
			S284.537,382.356,287.01,382.373z M271.273,463.032c2.458-0.015,4.483-2.043,4.479-4.486c-0.004-2.462-2.007-4.474-4.472-4.489
			c-2.522-0.017-4.608,2.068-4.559,4.552C266.773,461.071,268.804,463.046,271.273,463.032z M297.585,369.892
			c2.491,0.009,4.498-1.982,4.509-4.471c0.01-2.484-1.987-4.488-4.48-4.494c-2.498-0.006-4.503,1.979-4.514,4.468
			C293.088,367.876,295.089,369.883,297.585,369.892z M373.496,530.298c-2.447-0.034-4.515,1.956-4.576,4.404
			c-0.061,2.485,2.023,4.621,4.511,4.621c2.427,0,4.495-2.054,4.519-4.485C377.973,532.412,375.932,530.333,373.496,530.298z
			 M403.341,458.923c0.012-2.47-1.973-4.51-4.422-4.545c-2.447-0.034-4.508,1.966-4.552,4.418c-0.044,2.525,1.997,4.622,4.494,4.619
			C401.306,463.412,403.329,461.382,403.341,458.923z M350.271,500.888c0.022,2.486,2.045,4.472,4.531,4.445
			c2.482-0.024,4.459-2.05,4.436-4.543c-0.025-2.499-2.035-4.469-4.533-4.439C352.204,496.379,350.25,498.378,350.271,500.888z
			 M320.348,432.667c0,2.497,1.988,4.502,4.47,4.506c2.477,0.006,4.49-2.006,4.493-4.488c0.002-2.499-1.985-4.497-4.478-4.502
			C322.336,428.178,320.348,430.166,320.348,432.667z M412.789,511.856c-0.002-2.469-2.002-4.496-4.452-4.515
			c-2.433-0.017-4.498,2.015-4.53,4.453c-0.031,2.501,2.06,4.616,4.537,4.59C410.782,516.358,412.791,514.311,412.789,511.856z
			 M255.269,492.418c0.024,2.465,2.046,4.459,4.508,4.449c2.479-0.012,4.466-1.998,4.474-4.475c0.008-2.539-2.033-4.558-4.567-4.516
			C257.224,487.917,255.243,489.955,255.269,492.418z M230.35,481.731c-2.512-0.015-4.492,1.94-4.509,4.451
			c-0.016,2.508,1.948,4.505,4.444,4.519c2.497,0.015,4.502-1.962,4.517-4.454C234.817,483.747,232.844,481.747,230.35,481.731z
			 M236.379,502.51c-0.03,2.508,1.922,4.521,4.414,4.551c2.519,0.03,4.516-1.905,4.548-4.41c0.034-2.511-1.915-4.523-4.408-4.553
			C238.426,498.067,236.411,500.021,236.379,502.51z"/>
		<path d="M219.973,415.138c0,0.615,0,1.163,0,1.711c0,6.188-0.023,12.378,0.021,18.565c0.009,1.158-0.363,1.99-1.179,2.8
			c-6.851,6.8-13.658,13.645-20.505,20.448c-0.737,0.734-1.081,1.388-0.915,2.515c0.546,3.699-2.167,7.258-5.827,7.856
			c-3.85,0.631-7.481-1.725-8.335-5.403c-0.721-3.112,0.582-6.255,3.271-7.892c2.721-1.657,6.03-1.363,8.495,0.755
			c0.243,0.21,0.475,0.433,0.784,0.716c0.325-0.284,0.641-0.529,0.921-0.811c6.567-6.56,13.13-13.126,19.701-19.683
			c0.503-0.503,0.865-0.981,0.861-1.78c-0.036-6.42-0.021-12.839-0.023-19.26c0-0.227-0.029-0.454-0.05-0.764
			c-0.431-0.144-0.856-0.285-1.281-0.428c-5.073-1.721-8.177-5.224-8.782-10.531c-0.612-5.364,1.624-9.548,6.297-12.29
			c0.966-0.565,1.334-1.111,1.33-2.229c-0.043-11.083-0.026-22.167-0.026-33.253c0-0.445,0-0.893,0-1.339
			c-0.093-0.046-0.185-0.092-0.278-0.137c-0.858,0.857-1.768,1.674-2.549,2.599c-0.248,0.294-0.204,0.874-0.206,1.323
			c-0.014,3.973-0.008,7.943-0.009,11.916c0,4.85-0.019,9.698,0.017,14.548c0.007,0.95-0.265,1.662-0.953,2.324
			c-1.83,1.762-3.588,3.598-5.41,5.366c-0.54,0.523-0.76,1.066-0.756,1.82c0.027,5.08,0.029,10.16-0.002,15.24
			c-0.005,0.806,0.248,1.376,0.819,1.936c2.508,2.455,4.958,4.97,7.469,7.423c0.712,0.695,1.095,1.431,1.034,2.438
			c-0.058,0.967-0.052,1.94-0.002,2.908c0.048,0.947-0.241,1.683-0.955,2.329c-1.297,1.176-2.537,2.413-3.82,3.647
			c1.144,2.304,1.466,4.522,0.488,6.803c-0.682,1.59-1.797,2.781-3.329,3.575c-3.023,1.567-6.74,0.793-8.904-1.846
			c-2.207-2.692-2.2-6.508,0.015-9.195c2.362-2.865,6.036-3.365,9.918-1.237c1.186-1.193,2.445-2.397,3.612-3.687
			c0.252-0.279,0.172-0.864,0.241-1.31c0.238-1.536-0.299-2.67-1.472-3.747c-2.346-2.152-4.515-4.497-6.799-6.717
			c-0.714-0.695-1.047-1.42-1.04-2.432c0.038-5.635,0.036-11.271,0.002-16.903c-0.007-1.002,0.283-1.747,1.011-2.442
			c1.834-1.757,3.595-3.591,5.406-5.37c0.453-0.445,0.695-0.898,0.693-1.564c-0.021-7.76-0.014-15.519-0.016-23.277
			c0-0.18-0.03-0.356-0.061-0.699c-0.327,0.228-0.595,0.361-0.795,0.561c-3.469,3.455-6.911,6.936-10.407,10.363
			c-0.612,0.602-0.68,1.237-0.679,1.992c0.008,14.225-0.013,28.45,0.032,42.675c0.006,1.503-0.417,2.601-1.496,3.661
			c-5.141,5.048-10.208,10.171-15.312,15.254c-0.357,0.355-0.817,0.606-1.198,0.884c1.523,3.622,1.66,6.989,0.119,10.329
			c-1.187,2.569-3.077,4.475-5.63,5.693c-5.131,2.451-11.253,0.906-14.617-3.664c-3.401-4.618-3.013-10.984,0.957-15.138
			c2.278-2.383,5.086-3.608,8.392-3.678c3.255-0.069,6.015,1.162,8.432,3.285c0.301-0.272,0.545-0.48,0.772-0.707
			c4.9-4.896,9.792-9.802,14.708-14.685c0.529-0.525,0.767-1.056,0.766-1.811c-0.021-13.626-0.015-27.25-0.017-40.874
			c0-0.32-0.028-0.641-0.046-1.012c-0.175-0.061-0.339-0.167-0.505-0.168c-2.263-0.015-4.525-0.034-6.788,0.001
			c-0.372,0.007-0.836,0.172-1.095,0.428c-3.936,3.902-7.844,7.832-11.755,11.757c-0.061,0.062-0.083,0.163-0.16,0.321
			c1.012,2.737,1.12,5.532-0.201,8.272c-1.021,2.115-2.615,3.677-4.743,4.668c-4.269,1.989-9.337,0.661-12.123-3.155
			c-2.78-3.808-2.47-9.039,0.74-12.497c3.559-3.833,8.302-4.145,13.811-0.821c0.327-0.313,0.689-0.646,1.039-0.995
			c3.595-3.589,7.205-7.163,10.766-10.787c0.903-0.921,1.852-1.382,3.171-1.342c2.677,0.082,5.357,0.009,8.035,0.036
			c0.647,0.007,1.125-0.18,1.587-0.644c6.455-6.478,12.923-12.942,19.399-19.398c0.451-0.451,0.71-0.91,0.689-1.573
			c-0.04-1.373-0.012-2.75-0.012-4.221c-0.545-0.042-0.946-0.097-1.348-0.099c-2.031-0.01-4.063,0.024-6.096-0.019
			c-0.801-0.017-1.382,0.23-1.947,0.802c-3.539,3.58-7.132,7.107-10.654,10.704c-0.806,0.823-1.624,1.193-2.789,1.176
			c-4.018-0.062-8.036-0.024-12.054-0.024c-0.498,0-0.997,0-1.595,0c0,0.578-0.005,1.022,0,1.467
			c0.043,3.552-2.368,6.559-5.826,7.261c-3.302,0.672-6.703-1.125-8.047-4.252c-1.365-3.177-0.291-6.868,2.574-8.836
			c2.848-1.956,6.622-1.626,9.131,0.882c0.585,0.585,1.161,0.771,1.945,0.766c4.388-0.027,8.776-0.035,13.163,0.005
			c0.86,0.008,1.458-0.265,2.056-0.869c3.503-3.551,7.073-7.034,10.55-10.611c0.856-0.881,1.732-1.208,2.924-1.177
			c2.582,0.066,5.167,0.02,7.828,0.02c0.33-1.134,0.174-2.214,0.108-3.379c-0.351-0.044-0.656-0.114-0.961-0.116
			c-2.633-0.009-5.266,0.018-7.897-0.021c-0.71-0.011-1.21,0.217-1.699,0.716c-2.331,2.37-4.719,4.688-7.033,7.075
			c-0.735,0.759-1.508,1.109-2.566,1.047c-1.287-0.075-2.581-0.018-3.975-0.018c-0.756,2.36-2.129,4.19-4.482,5.118
			c-1.606,0.633-3.246,0.666-4.885,0.143c-3.29-1.051-5.322-4.274-4.916-7.762c0.388-3.321,3.066-5.973,6.386-6.315
			c3.014-0.311,6.774,1.28,7.959,6.068c1.271,0,2.598,0.056,3.914-0.034c0.387-0.025,0.796-0.412,1.109-0.72
			c2.334-2.304,4.668-4.609,6.951-6.961c0.73-0.754,1.498-1.101,2.56-1.077c2.724,0.059,5.45-0.033,8.174,0.044
			c1.102,0.031,1.845-0.298,2.626-1.096c4.36-4.457,8.794-8.841,13.202-13.251c0.323-0.322,0.632-0.659,1.074-1.123
			c-0.869-0.285-1.644-0.057-2.373-0.171c-1.764-0.277-2.994,0.448-4.202,1.72c-3.183,3.345-6.52,6.543-9.758,9.834
			c-0.67,0.682-1.37,0.965-2.32,0.95c-2.956-0.047-5.912-0.018-8.868-0.018c-0.458,0-0.917,0-1.49,0
			c-0.306,2.596-1.35,4.729-3.624,6.087c-1.392,0.83-2.902,1.182-4.517,0.975c-3.513-0.453-6.04-3.078-6.397-6.617
			c-0.327-3.246,1.811-6.418,5.021-7.45c3.537-1.138,6.64,0.291,9.009,4.203c0.355,0.021,0.763,0.061,1.17,0.062
			c2.91,0.006,5.82-0.025,8.729,0.021c0.853,0.014,1.46-0.229,2.064-0.844c3.499-3.554,7.059-7.048,10.556-10.605
			c0.738-0.751,1.498-1.097,2.56-1.062c2.122,0.068,4.249-0.002,6.373,0.032c0.693,0.011,1.207-0.175,1.711-0.681
			c7.17-7.199,14.354-14.384,21.558-21.55c0.547-0.543,0.711-1.106,0.706-1.838c-0.024-3.603,0.027-7.205-0.031-10.807
			c-0.021-1.303,0.39-2.289,1.313-3.197c3.556-3.497,7.066-7.04,10.593-10.569c0.35-0.349,0.684-0.717,1.175-1.235
			c-0.536-0.051-0.876-0.111-1.216-0.111c-4.988-0.007-9.977,0.012-14.965-0.021c-0.801-0.004-1.373,0.23-1.938,0.803
			c-3.405,3.452-6.838,6.879-10.287,10.286c-0.534,0.529-0.773,1.066-0.753,1.819c0.046,1.699,0.015,3.401,0.015,5.208
			c0.541-0.11,0.934-0.199,1.329-0.273c4.109-0.756,7.965,1.877,8.62,5.884c0.652,4.002-2.006,7.729-6.081,8.341
			c-2.959,0.444-5.399-0.645-7.06-3.126c-1.696-2.536-1.708-5.221-0.104-7.826c0.43-0.696,0.617-1.31,0.586-2.144
			c-0.09-2.443-0.018-4.895-0.042-7.342c-0.007-0.653,0.224-1.149,0.673-1.599c4.022-4.011,8.046-8.021,12.047-12.054
			c0.581-0.586,1.234-0.707,2.004-0.705c6.234,0.015,12.471-0.045,18.704,0.046c1.501,0.023,2.198-0.773,3.083-1.896
			c-0.542-0.029-0.894-0.063-1.244-0.063c-7.39-0.004-14.779,0.005-22.168-0.015c-0.693-0.002-1.21,0.175-1.71,0.681
			c-6.887,6.96-13.793,13.898-20.693,20.845c-0.195,0.196-0.374,0.406-0.639,0.692c1.15,2.086,1.528,4.296,0.639,6.604
			c-0.622,1.611-1.697,2.842-3.201,3.691c-2.96,1.671-6.731,1.034-8.964-1.51c-2.263-2.575-2.428-6.323-0.401-9.083
			c2.254-3.069,5.713-3.694,9.996-1.752c0.337-0.322,0.707-0.661,1.06-1.017c6.838-6.878,13.687-13.745,20.491-20.655
			c0.882-0.895,1.789-1.26,3.043-1.254c8.498,0.045,16.995,0.011,25.493,0.041c0.901,0.004,1.543-0.253,2.177-0.898
			c3.565-3.619,7.161-7.207,10.777-10.776c0.633-0.623,0.933-1.246,0.933-2.163c-0.022-53.344-0.022-106.688-0.002-160.031
			c0-0.906-0.272-1.541-0.909-2.174c-6.683-6.642-13.326-13.323-20.017-19.956c-0.957-0.949-1.421-1.949-1.387-3.301
			c0.064-2.632-0.005-5.265,0.032-7.897c0.012-0.893-0.139-1.519-1.029-2.018c-1.334-0.749-1.938-1.997-1.935-3.584
			c0.023-11.685,0.013-23.37,0.015-35.055c0-0.274,0.029-0.548,0.043-0.813c0.969-0.301,8.772-0.383,10.678-0.108
			c0.031,0.332,0.094,0.687,0.094,1.041c0.004,11.592-0.007,23.184,0.015,34.777c0.003,1.563-0.543,2.805-1.82,3.669
			c-0.538,0.365-0.676,0.785-0.67,1.384c0.021,2.355,0.049,4.712-0.013,7.066c-0.022,0.869,0.271,1.453,0.871,2.05
			c6.551,6.513,13.047,13.081,19.634,19.557c1.294,1.272,1.816,2.596,1.813,4.389c-0.036,36.44-0.026,72.88-0.026,109.32
			c0,17.597-0.017,35.192,0.025,52.79c0.005,1.694-0.492,2.946-1.71,4.153c-10.198,10.115-20.332,20.295-30.513,30.427
			c-0.749,0.746-1.063,1.493-1.047,2.544c0.057,3.463-0.013,6.928,0.037,10.393c0.021,1.346-0.437,2.356-1.39,3.307
			c-12.987,12.943-25.94,25.92-38.93,38.861c-0.781,0.777-1.114,1.544-1.111,2.653c0.033,16.626,0.023,33.254,0.023,49.88
			c0,0.547,0,1.094,0,1.744c4.036,0.449,7.319,2.104,9.639,5.406c1.711,2.436,2.399,5.156,2.22,8.119
			C231.619,409.517,227.315,413.75,219.973,415.138z M160.714,441.25c0.021,4.288,3.491,7.742,7.755,7.721
			c4.251-0.022,7.743-3.539,7.727-7.779c-0.017-4.254-3.525-7.725-7.785-7.704C164.118,433.508,160.693,436.962,160.714,441.25z
			 M226.58,402.59c0.04-3.868-3.086-7.068-6.969-7.133c-3.907-0.065-7.176,3.162-7.17,7.078c0.006,3.871,3.174,7.045,7.046,7.059
			C223.37,409.609,226.54,406.479,226.58,402.59z M163.529,384.171c-3.221-0.022-5.819,2.544-5.82,5.753
			c-0.003,3.208,2.586,5.782,5.808,5.774c3.136-0.007,5.716-2.553,5.769-5.693C169.338,386.828,166.74,384.195,163.529,384.171z
			 M183.374,348.861c2.47,0.013,4.505-1.972,4.535-4.424c0.032-2.468-1.942-4.503-4.406-4.543c-2.537-0.04-4.62,1.984-4.612,4.484
			C178.897,346.84,180.905,348.847,183.374,348.861z M216.718,287.625c-0.028,2.475,1.929,4.516,4.392,4.581
			c2.432,0.063,4.515-1.939,4.569-4.394c0.056-2.549-1.938-4.631-4.45-4.641C218.771,283.164,216.746,285.162,216.718,287.625z
			 M238.32,291.068c0.003,2.481,2.021,4.502,4.494,4.498c2.472-0.005,4.471-2.023,4.471-4.513c0-2.497-2.003-4.504-4.485-4.496
			C240.319,286.566,238.318,288.582,238.32,291.068z M189.351,331.275c0.037,2.438,2.105,4.465,4.54,4.454
			c2.425-0.013,4.496-2.084,4.504-4.505c0.009-2.463-2.17-4.594-4.624-4.527C191.323,326.764,189.315,328.845,189.351,331.275z
			 M190.253,457.412c-2.442,0.01-4.491,2.045-4.507,4.479c-0.018,2.48,2.123,4.597,4.594,4.542c2.447-0.055,4.462-2.127,4.433-4.56
			C194.744,459.421,192.7,457.404,190.253,457.412z M198.471,434.414c-0.031,2.458,1.945,4.496,4.413,4.549
			c2.526,0.055,4.601-1.98,4.591-4.504c-0.009-2.459-2.022-4.478-4.477-4.491C200.547,429.957,198.502,431.963,198.471,434.414z
			 M166.543,357.618c-0.015,2.512,1.942,4.491,4.453,4.505c2.509,0.014,4.501-1.949,4.515-4.448c0.014-2.5-1.961-4.499-4.456-4.512
			C168.549,353.15,166.56,355.116,166.543,357.618z"/>
		<path d="M412.148,301.13c3.258-2.062,6.478-2.734,9.935-1.832c2.834,0.739,5.098,2.339,6.768,4.75
			c3.284,4.739,2.63,11.201-1.526,15.2c-4.194,4.038-10.74,4.417-15.368,0.915c-4.192-3.173-6.634-9.683-2.606-16.203
			c-0.261-0.286-0.523-0.601-0.812-0.89c-6.693-6.695-13.395-13.384-20.074-20.094c-0.625-0.628-1.246-0.949-2.17-0.938
			c-4.341,0.05-8.683,0.021-13.023,0.021c-0.401,0-0.802,0-1.203,0c-0.046,0.092-0.093,0.182-0.139,0.273
			c0.326,0.346,0.644,0.7,0.979,1.036c4.604,4.606,9.188,9.231,13.831,13.797c1.068,1.049,1.557,2.156,1.542,3.667
			c-0.062,6.143-0.011,12.285-0.042,18.427c-0.005,0.849,0.228,1.457,0.839,2.064c5.738,5.692,11.456,11.404,17.146,17.146
			c0.647,0.651,1.305,0.874,2.193,0.87c7.389-0.025,14.779,0.025,22.168-0.046c1.573-0.016,2.694,0.495,3.774,1.595
			c4.531,4.611,9.131,9.157,13.694,13.736c0.356,0.357,0.629,0.799,0.921,1.176c3.595-1.728,7.043-2.044,10.567-0.723
			c2.834,1.063,4.992,2.948,6.478,5.576c2.98,5.275,1.704,11.928-2.998,15.78c-4.687,3.842-11.464,3.747-16.064-0.198
			c-4.03-3.456-6.37-10.219-1.965-16.892c-0.249-0.282-0.502-0.6-0.787-0.887c-4.274-4.28-8.566-8.546-12.821-12.846
			c-0.635-0.642-1.279-0.907-2.185-0.903c-7.343,0.032-14.687,0.012-22.029,0.023c-1.314,0.001-2.615,0.035-3.646-1.364
			c-0.089,0.564-0.173,0.86-0.173,1.155c-0.008,5.357,0.004,10.715-0.02,16.073c-0.003,0.703,0.217,1.21,0.713,1.703
			c5.402,5.373,10.792,10.761,16.165,16.164c0.532,0.535,1.073,0.757,1.827,0.753c4.202-0.031,8.406,0.018,12.607-0.036
			c1.146-0.017,1.981,0.3,2.803,1.13c6.37,6.432,12.773,12.83,19.203,19.201c0.822,0.815,1.266,1.645,1.145,2.802
			c-0.066,0.633-0.013,1.279-0.013,2.007c3.966,0.689,7.05,2.59,9.01,6.083c1.437,2.56,1.827,5.299,1.252,8.171
			c-1.115,5.567-6.42,9.687-12.077,9.393c-6.084-0.315-10.815-4.885-11.307-11.058c-0.398-5.001,2.688-11.131,10.247-12.548
			c0.265-1.365,0.262-2.523-0.933-3.692c-6.01-5.876-11.929-11.845-17.85-17.812c-0.673-0.678-1.349-0.964-2.299-0.955
			c-4.203,0.043-8.406-0.005-12.609,0.036c-1.003,0.009-1.738-0.309-2.442-1.019c-5.696-5.733-11.411-11.448-17.148-17.141
			c-0.711-0.707-1.015-1.44-1.01-2.443c0.034-6.419-0.062-12.84,0.067-19.257c0.036-1.83-1.116-2.51-2.057-3.506
			c-0.105,0.033-0.211,0.064-0.317,0.097c0,0.396,0,0.793,0,1.188c0,7.713,0.014,15.426-0.018,23.139
			c-0.003,0.903,0.262,1.544,0.902,2.18c6.748,6.706,13.478,13.43,20.183,20.181c0.646,0.649,1.297,0.888,2.188,0.876
			c3.37-0.041,6.743,0.015,10.113-0.035c1.011-0.015,1.745,0.305,2.437,1.025c1.693,1.767,3.542,3.393,5.147,5.232
			c0.949,1.09,2.001,1.832,3.278,2.48c2.947,1.497,4.32,4.954,3.449,8.141c-0.884,3.235-3.701,5.352-7.078,5.321
			c-3.378-0.031-6.181-2.307-6.962-5.653c-0.729-3.12,0.814-6.425,3.71-7.933c0.441-0.23,0.895-0.436,1.467-0.712
			c-1.648-1.641-3.189-3.229-4.806-4.738c-0.314-0.293-0.913-0.387-1.383-0.392c-3.464-0.031-6.928-0.049-10.391,0.004
			c-1.011,0.016-1.725-0.312-2.43-1.021c-7.132-7.173-14.282-14.326-21.46-21.451c-0.792-0.786-1.093-1.6-1.089-2.693
			c0.031-8.866-0.038-17.734,0.064-26.601c0.021-1.762-0.827-2.654-2.162-3.664c-0.036,0.571-0.084,0.97-0.084,1.369
			c-0.004,11.177,0.004,22.354-0.019,33.53c-0.002,0.845,0.215,1.467,0.828,2.077c7.857,7.817,15.689,15.661,23.529,23.496
			c0.258,0.257,0.54,0.485,0.784,0.704c4.418-1.443,7.809-0.415,9.693,2.896c1.703,2.989,1.034,6.829-1.579,9.069
			c-2.607,2.235-6.534,2.31-9.202,0.175c-3.074-2.459-3.474-5.906-1.159-10.369c-0.331-0.347-0.67-0.717-1.026-1.073
			c-7.771-7.772-15.532-15.557-23.336-23.297c-0.894-0.888-1.254-1.793-1.25-3.043c0.036-12.33,0.013-24.661,0.04-36.993
			c0.003-1.04-0.245-1.815-1.028-2.552c-1.916-1.804-3.715-3.73-5.614-5.555c-0.9-0.863-1.278-1.835-1.272-3.074
			c0.03-6.235-0.004-12.471,0.032-18.704c0.005-0.906-0.274-1.539-0.912-2.174c-13.863-13.829-27.708-27.678-41.559-41.522
			c-0.287-0.288-0.595-0.558-1.044-0.974c-0.067,0.488-0.152,0.82-0.153,1.152c-0.008,8.176-0.004,16.35-0.012,24.525
			c-0.001,0.622,0.104,1.133,0.588,1.611c3.809,3.768,7.59,7.562,11.382,11.347c0.095,0.095,0.221,0.157,0.408,0.287
			c1.982-1.093,4.097-1.546,6.338-0.769c1.627,0.566,2.916,1.573,3.83,3.04c1.809,2.907,1.345,6.648-1.113,9.02
			c-2.448,2.361-6.239,2.697-9.061,0.804c-3.217-2.161-3.926-5.561-2.072-10.137c-0.329-0.344-0.671-0.714-1.026-1.069
			c-3.624-3.627-7.231-7.271-10.892-10.859c-0.785-0.771-1.124-1.557-1.119-2.664c0.037-9.284,0.004-18.567,0.044-27.851
			c0.003-1.014-0.281-1.729-1.016-2.412c-1.42-1.319-2.717-2.773-4.144-4.086c-1.067-0.981-1.477-2.083-1.475-3.545
			c0.036-35.562,0.03-71.123,0.037-106.686c0.004-18.797,0.031-37.593-0.001-56.39c-0.002-1.791,0.503-3.142,1.806-4.413
			c6.217-6.06,12.344-12.212,18.541-18.294c0.761-0.747,1.055-1.5,1.03-2.543c-0.062-2.535-0.021-5.072-0.021-7.57
			c-0.402-0.308-0.742-0.543-1.056-0.809c-0.97-0.817-1.502-1.837-1.491-3.135c0.017-2.355,0.004-4.711,0.004-7.067
			c0-9.144,0-18.289,0-27.433c0-0.504,0-1.008,0-1.487c1.031-0.312,8.876-0.39,10.819-0.103c0,0.506,0,1.045,0,1.583
			c0,11.13-0.04,22.262,0.034,33.392c0.016,2.314-0.563,4.091-2.785,5.067c-0.022,0.482-0.058,0.89-0.059,1.297
			c-0.005,2.681-0.051,5.363,0.018,8.042c0.034,1.349-0.391,2.363-1.359,3.313c-6.325,6.215-12.593,12.486-18.919,18.699
			c-0.793,0.778-1.097,1.553-1.095,2.657c0.032,16.072,0.025,32.145,0.021,48.216c-0.006,20.552-0.016,41.104-0.027,61.656
			c-0.009,16.765-0.013,33.529-0.058,50.294c-0.002,1.112,0.338,1.874,1.119,2.65c10.084,10.033,20.142,20.092,30.18,30.171
			c0.71,0.714,1.408,1.014,2.418,1.006c5.957-0.045,11.915,0.03,17.872-0.055c1.698-0.025,2.93,0.454,4.139,1.682
			c6.673,6.78,13.432,13.478,20.153,20.21C411.479,300.236,411.767,300.663,412.148,301.13z M456.438,423.883
			c4.26,0.009,7.76-3.469,7.772-7.722c0.013-4.246-3.484-7.77-7.725-7.784c-4.239-0.016-7.76,3.49-7.77,7.736
			C448.704,420.373,452.185,423.875,456.438,423.883z M426.829,310.686c-0.017-4.283-3.473-7.689-7.779-7.667
			c-4.261,0.022-7.749,3.544-7.707,7.782c0.04,4.224,3.629,7.76,7.823,7.708C423.434,318.457,426.845,314.974,426.829,310.686z
			 M448.062,366.755c0.004,3.91,3.116,7.039,7.016,7.055c3.883,0.016,7.074-3.113,7.123-6.983c0.051-3.878-3.234-7.178-7.12-7.152
			C451.206,359.7,448.059,362.875,448.062,366.755z M421.951,396.699c-2.466-0.018-4.504,1.961-4.547,4.418
			c-0.045,2.502,2.01,4.561,4.541,4.55c2.484-0.009,4.47-1.993,4.473-4.473C426.42,398.74,424.41,396.717,421.951,396.699z
			 M355.581,298.05c-2.484-0.02-4.52,1.971-4.544,4.447c-0.026,2.48,1.971,4.513,4.454,4.538c2.48,0.024,4.519-1.972,4.542-4.446
			C360.055,300.111,358.054,298.072,355.581,298.05z M434.535,401.268c0.029,2.498,2.04,4.438,4.558,4.399
			c2.502-0.037,4.445-2.046,4.408-4.557c-0.036-2.484-2.066-4.445-4.562-4.409C436.448,396.739,434.506,398.752,434.535,401.268z"/>
		<path fill="#FFFFFF" d="M339.342,357.312c4.245,0.001,7.655,3.389,7.666,7.615c0.012,4.283-3.44,7.716-7.738,7.696
			c-4.215-0.019-7.59-3.448-7.579-7.701C331.702,360.67,335.079,357.311,339.342,357.312z"/>
		<path fill="#FFFFFF" d="M271.822,535.006c4.215-0.008,7.648,3.399,7.685,7.627c0.037,4.266-3.444,7.735-7.732,7.705
			c-4.225-0.029-7.63-3.464-7.618-7.685C264.166,538.448,267.608,535.013,271.822,535.006z"/>
		<path fill="#FFFFFF" d="M241.402,367.758c0.019-3.87,3.205-7.045,7.064-7.041c3.909,0.004,7.118,3.267,7.069,7.188
			c-0.049,3.864-3.241,6.965-7.148,6.941C244.502,374.824,241.384,371.659,241.402,367.758z"/>
		<path fill="#FFFFFF" d="M442.116,464.312c3.881,0.021,7.03,3.2,7.012,7.075c-0.019,3.881-3.188,7.056-7.052,7.06
			c-3.921,0.006-7.14-3.256-7.078-7.168C435.06,467.377,438.214,464.29,442.116,464.312z"/>
		<path fill="#FFFFFF" d="M196.961,500.689c-3.876-0.024-7.046-3.213-7.033-7.072c0.014-3.841,3.233-7.057,7.072-7.065
			c3.918-0.008,7.092,3.217,7.061,7.175C204.03,497.622,200.875,500.715,196.961,500.689z"/>
		<path fill="#FFFFFF" d="M313.39,533.328c-3.875,0.016-7.076-3.133-7.111-6.995c-0.036-3.932,3.17-7.155,7.101-7.14
			c3.881,0.015,7.036,3.18,7.037,7.059C320.417,530.128,317.257,533.31,313.39,533.328z"/>
		<path fill="#FFFFFF" d="M291.329,303.585c3.895,0.019,7.012,3.167,7.003,7.069c-0.01,3.869-3.189,7.059-7.048,7.062
			c-3.897,0.006-7.165-3.3-7.095-7.176C284.259,306.651,287.428,303.565,291.329,303.585z"/>
		<path fill="#FFFFFF" d="M358.278,392.689c-0.028-3.909,3.064-7.068,6.962-7.111c3.937-0.043,7.196,3.164,7.182,7.064
			c-0.014,3.841-3.227,7.058-7.066,7.074C361.495,399.735,358.305,396.567,358.278,392.689z"/>
		<path fill="#FFFFFF" d="M340.751,538.47c3.522-0.037,6.476,2.851,6.519,6.374c0.043,3.545-2.813,6.482-6.346,6.526
			c-3.627,0.044-6.582-2.833-6.598-6.423C334.311,541.43,337.209,538.506,340.751,538.47z"/>
		<path fill="#FFFFFF" d="M344.222,466.26c2.815,0.018,5.072,2.32,5.051,5.15c-0.022,2.812-2.345,5.105-5.142,5.08
			c-2.777-0.024-5.106-2.397-5.073-5.17C339.09,468.516,341.413,466.242,344.222,466.26z"/>
		<path fill="#FFFFFF" d="M287.01,382.373c-2.474-0.017-4.481-2.029-4.475-4.485c0.009-2.456,2.026-4.471,4.487-4.482
			c2.521-0.012,4.589,2.065,4.541,4.562C291.519,380.417,289.481,382.389,287.01,382.373z"/>
		<path fill="#FFFFFF" d="M271.273,463.032c-2.469,0.015-4.501-1.961-4.551-4.424c-0.051-2.484,2.036-4.568,4.559-4.552
			c2.466,0.016,4.468,2.027,4.472,4.489C275.756,460.989,273.731,463.017,271.273,463.032z"/>
		<path fill="#FFFFFF" d="M297.585,369.892c-2.495-0.009-4.497-2.016-4.485-4.497c0.011-2.489,2.016-4.474,4.513-4.468
			c2.493,0.006,4.49,2.01,4.48,4.494C302.083,367.911,300.077,369.901,297.585,369.892z"/>
		<path fill="#FFFFFF" d="M373.496,530.298c2.437,0.034,4.477,2.113,4.453,4.54c-0.023,2.432-2.093,4.485-4.519,4.485
			c-2.487,0-4.571-2.136-4.511-4.621C368.981,532.254,371.048,530.264,373.496,530.298z"/>
		<path fill="#FFFFFF" d="M403.341,458.923c-0.013,2.46-2.035,4.488-4.479,4.492c-2.497,0.003-4.538-2.094-4.494-4.619
			c0.044-2.452,2.104-4.452,4.552-4.418C401.369,454.414,403.353,456.453,403.341,458.923z"/>
		<path fill="#FFFFFF" d="M350.271,500.888c-0.021-2.51,1.933-4.509,4.435-4.537c2.497-0.028,4.508,1.94,4.532,4.439
			c0.024,2.493-1.952,4.519-4.435,4.543C352.315,505.36,350.293,503.375,350.271,500.888z"/>
		<path fill="#FFFFFF" d="M320.348,432.667c0-2.501,1.988-4.488,4.486-4.484c2.492,0.005,4.479,2.003,4.477,4.501
			c-0.003,2.483-2.017,4.494-4.493,4.489C322.336,437.168,320.348,435.163,320.348,432.667z"/>
		<path fill="#FFFFFF" d="M412.789,511.856c0.002,2.455-2.007,4.501-4.445,4.528c-2.478,0.026-4.568-2.089-4.535-4.59
			c0.03-2.438,2.096-4.47,4.528-4.453C410.787,507.36,412.787,509.387,412.789,511.856z"/>
		<path fill="#FFFFFF" d="M255.269,492.418c-0.026-2.464,1.955-4.502,4.414-4.541c2.533-0.042,4.574,1.977,4.566,4.516
			c-0.007,2.477-1.994,4.463-4.474,4.475C257.315,496.877,255.293,494.883,255.269,492.418z"/>
		<path fill="#FFFFFF" d="M230.35,481.731c2.494,0.016,4.467,2.016,4.452,4.516c-0.014,2.492-2.02,4.47-4.517,4.454
			c-2.495-0.014-4.46-2.011-4.443-4.519C225.858,483.671,227.838,481.716,230.35,481.731z"/>
		<path fill="#FFFFFF" d="M236.379,502.51c0.031-2.489,2.047-4.443,4.554-4.412c2.493,0.029,4.441,2.042,4.408,4.553
			c-0.032,2.505-2.029,4.44-4.548,4.41C238.301,507.031,236.349,505.018,236.379,502.51z"/>
		<path fill="#FFFFFF" d="M160.714,441.25c-0.021-4.288,3.404-7.742,7.695-7.763c4.26-0.021,7.769,3.45,7.786,7.704
			c0.016,4.24-3.477,7.755-7.728,7.777C164.206,448.993,160.736,445.539,160.714,441.25z"/>
		<path fill="#FFFFFF" d="M226.58,402.59c-0.04,3.889-3.211,7.019-7.093,7.004c-3.872-0.014-7.04-3.188-7.046-7.059
			c-0.006-3.916,3.263-7.144,7.17-7.078C223.495,395.522,226.621,398.722,226.58,402.59z"/>
		<path fill="#FFFFFF" d="M163.529,384.171c3.211,0.023,5.81,2.656,5.756,5.834c-0.053,3.141-2.633,5.687-5.769,5.693
			c-3.222,0.007-5.81-2.566-5.808-5.774C157.709,386.715,160.307,384.149,163.529,384.171z"/>
		<path fill="#FFFFFF" d="M183.374,348.861c-2.468-0.014-4.477-2.021-4.483-4.482c-0.008-2.5,2.076-4.524,4.612-4.484
			c2.464,0.04,4.438,2.074,4.406,4.543C187.877,346.889,185.843,348.874,183.374,348.861z"/>
		<path fill="#FFFFFF" d="M216.718,287.625c0.027-2.464,2.053-4.462,4.511-4.453c2.512,0.01,4.506,2.091,4.45,4.641
			c-0.055,2.454-2.138,4.457-4.569,4.394C218.647,292.141,216.691,290.1,216.718,287.625z"/>
		<path fill="#FFFFFF" d="M238.32,291.068c-0.002-2.486,1.999-4.502,4.48-4.51c2.482-0.009,4.484,1.998,4.484,4.495
			c0.001,2.49-1.998,4.508-4.471,4.513C240.342,295.57,238.323,293.549,238.32,291.068z"/>
		<path fill="#FFFFFF" d="M189.351,331.275c-0.036-2.429,1.972-4.511,4.42-4.578c2.454-0.066,4.632,2.064,4.624,4.527
			c-0.008,2.421-2.079,4.492-4.504,4.505C191.457,335.74,189.388,333.711,189.351,331.275z"/>
		<path fill="#FFFFFF" d="M190.253,457.412c2.446-0.008,4.49,2.01,4.52,4.462c0.03,2.433-1.985,4.505-4.433,4.56
			c-2.471,0.055-4.611-2.062-4.594-4.542C185.762,459.456,187.811,457.421,190.253,457.412z"/>
		<path fill="#FFFFFF" d="M198.471,434.414c0.031-2.45,2.076-4.457,4.527-4.446c2.454,0.013,4.468,2.032,4.477,4.491
			c0.01,2.523-2.064,4.559-4.591,4.504C200.417,438.91,198.44,436.872,198.471,434.414z"/>
		<path fill="#FFFFFF" d="M166.543,357.618c0.016-2.502,2.006-4.469,4.512-4.455c2.495,0.013,4.47,2.013,4.456,4.513
			c-0.014,2.498-2.007,4.461-4.515,4.447C168.486,362.109,166.529,360.129,166.543,357.618z"/>
		<path fill="#FFFFFF" d="M456.438,423.883c-4.253-0.008-7.734-3.511-7.723-7.77c0.011-4.246,3.531-7.752,7.771-7.736
			c4.24,0.016,7.737,3.538,7.725,7.784C464.198,420.415,460.698,423.892,456.438,423.883z"/>
		<path fill="#FFFFFF" d="M426.829,310.686c0.016,4.288-3.395,7.771-7.663,7.823c-4.194,0.052-7.781-3.484-7.823-7.708
			c-0.041-4.238,3.447-7.76,7.707-7.782C423.356,302.997,426.813,306.403,426.829,310.686z"/>
		<path fill="#FFFFFF" d="M448.062,366.755c-0.003-3.88,3.146-7.056,7.019-7.081c3.886-0.025,7.171,3.274,7.12,7.152
			c-0.049,3.87-3.24,6.999-7.123,6.983C451.178,373.794,448.066,370.666,448.062,366.755z"/>
		<path fill="#FFFFFF" d="M421.951,396.699c2.459,0.019,4.47,2.041,4.467,4.496c-0.004,2.479-1.988,4.463-4.473,4.473
			c-2.531,0.01-4.586-2.049-4.542-4.55C417.447,398.66,419.485,396.682,421.951,396.699z"/>
		<path fill="#FFFFFF" d="M355.581,298.05c2.474,0.021,4.475,2.061,4.452,4.539c-0.023,2.477-2.062,4.471-4.542,4.446
			c-2.483-0.025-4.48-2.058-4.454-4.538C351.061,300.021,353.096,298.031,355.581,298.05z"/>
		<path fill="#FFFFFF" d="M434.535,401.268c-0.028-2.516,1.913-4.53,4.402-4.566c2.497-0.035,4.525,1.925,4.563,4.409
			c0.036,2.511-1.907,4.52-4.408,4.557C436.575,405.708,434.564,403.766,434.535,401.268z"/>
	</g>
</g>
<g id="Layer_2">
</g>
</svg>
