<?xml version="1.0" encoding="utf-8"?>
<!-- Generator: Adobe Illustrator 16.0.0, SVG Export Plug-In . SVG Version: 6.00 Build 0)  -->
<!DOCTYPE svg PUBLIC "-//W3C//DTD SVG 1.1//EN" "http://www.w3.org/Graphics/SVG/1.1/DTD/svg11.dtd">
<svg version="1.1" id="Layer_1" xmlns="http://www.w3.org/2000/svg" xmlns:xlink="http://www.w3.org/1999/xlink" x="0px" y="0px"
	 width="612px" height="792px" viewBox="0 0 612 792" enable-background="new 0 0 612 792" xml:space="preserve">
<g id="Layer_1_1_">
	<g>
		<path fill="#FFFFFF" d="M612,807.824c-203.414,0-406.83,0-610.245,0c0-291.545,0-583.092,0-874.637c203.415,0,406.831,0,610.245,0
			C612,224.732,612,516.279,612,807.824z M345.902,715.811c-3.425,0.896-6.162,2.555-8.067,5.412
			c-1.948,2.926-2.507,6.142-1.846,9.554c1.063,5.485,6.109,9.725,11.697,9.903c6.013,0.194,11.313-3.767,12.701-9.482
			c0.693-2.858,0.425-5.626-0.811-8.281c-1.633-3.507-4.459-5.673-8.15-6.904c0-0.753,0-1.441,0-2.125
			c0-10.873-0.033-21.749,0.034-32.627c0.012-1.782-0.535-3.055-1.793-4.306c-11.597-11.515-23.131-23.096-34.713-34.625
			c-0.871-0.869-1.23-1.741-1.228-2.966c0.042-10.878-0.008-21.752,0.056-32.626c0.011-1.9-0.54-3.321-1.906-4.667
			c-6.81-6.705-13.521-13.504-20.315-20.223c-0.924-0.915-1.287-1.836-1.278-3.13c0.055-8.428,0.075-16.851-0.012-25.274
			c-0.016-1.654,0.517-2.782,1.669-3.917c6.935-6.842,13.779-13.779,20.709-20.626c1.588-1.568,2.406-3.312,2.289-5.537
			c-0.061-1.19-0.026-2.39,0.003-3.583c0.011-0.379,0.138-0.759,0.207-1.11c3.308,3.257,6.519,6.419,9.66,9.508
			c-0.067,1.113-0.182,2.164-0.184,3.217c-0.013,10.748-0.009,21.499-0.009,32.247c0,0.669,0,1.34,0,1.905
			c-6.084,2.506-8.729,6.479-7.852,11.531c0.803,4.605,4.841,8.076,9.514,8.167c4.646,0.088,8.677-3.033,9.774-7.587
			c0.534-2.217,0.314-4.372-0.653-6.435c-1.407-2.989-3.874-4.697-6.931-5.541c0-11.279,0-22.425,0-33.874
			c0.659,0.605,1.12,0.998,1.545,1.428c5.768,5.789,11.512,11.603,17.317,17.352c0.971,0.957,1.383,1.904,1.38,3.287
			c-0.046,19.424-0.031,38.844-0.031,58.269c0,0.684,0,1.363,0,1.969c-5.16,2.735-6.763,4.052-8.372,6.933
			c-1.862,3.338-2.296,6.886-1.376,10.574c1.608,6.458,7.425,10.833,14.188,10.738c6.573-0.096,12.315-4.771,13.708-11.129
			c0.711-3.253,0.358-6.374-1.073-9.365c-1.964-4.104-5.325-6.56-9.605-7.841c0-12.582,0-25.046,0-37.738
			c0.429,0.317,0.687,0.464,0.892,0.669c8.237,8.208,16.465,16.428,24.714,24.625c0.635,0.628,0.857,1.294,0.857,2.168
			c-0.018,14.709-0.024,29.418,0.007,44.129c0,0.977-0.36,1.639-1.024,2.293c-2.78,2.734-5.521,5.505-8.279,8.255
			c-0.396,0.395-0.822,0.753-1.197,1.094c-5.87-2.202-10.594-0.926-13.319,3.537c-2.45,4.017-1.701,9.2,1.791,12.391
			c3.477,3.175,8.718,3.436,12.503,0.619c4.266-3.171,4.948-7.819,2.013-14.066c0.404-0.425,0.821-0.889,1.26-1.327
			c2.709-2.718,5.371-5.479,8.159-8.112c1.291-1.219,1.814-2.509,1.805-4.295c-0.062-13.139-0.035-26.272-0.028-39.413
			c0-0.714,0.047-1.428,0.09-2.576c1.168,1.156,1.955,2.043,2.854,2.787c1.058,0.883,1.388,1.898,1.386,3.277
			c-0.043,30.112-0.029,60.22-0.029,90.328c0,0.68,0,1.359,0,1.956c-5.858,2.307-8.56,6.398-7.663,11.398
			c0.858,4.808,4.811,8.171,9.63,8.194c4.677,0.021,8.77-3.21,9.685-7.689c0.478-2.354,0.211-4.629-0.941-6.765
			c-1.489-2.766-3.902-4.329-6.824-5.08c-0.354-2.882-0.231-76.677,0.168-78.213c2.409,2.405,4.73,4.768,7.107,7.071
			c0.691,0.666,0.961,1.363,0.95,2.318c-0.045,4.148,0.04,8.299-0.049,12.444c-0.031,1.519,0.482,2.587,1.541,3.635
			c8.566,8.503,17.089,17.047,25.618,25.585c0.477,0.477,0.923,0.981,1.314,1.399c-1.8,5.812-0.234,10.417,4.247,12.885
			c4.055,2.229,9.122,1.307,12.178-2.216c2.963-3.423,3.179-8.559,0.498-12.218c-1.388-1.894-3.228-3.171-5.499-3.74
			c-3.396-0.856-6.433,0.05-9.061,2.181c-0.309-0.25-0.468-0.355-0.602-0.485c-8.539-8.53-17.068-17.07-25.622-25.582
			c-0.633-0.635-0.864-1.29-0.86-2.164c0.037-4.34-0.007-8.678,0.033-13.013c0.01-1.085-0.299-1.903-1.079-2.671
			c-3.101-3.037-6.133-6.139-9.23-9.174c-0.47-0.462-1.152-0.705-1.817-1.098c0-3.301-0.093-6.698,0.033-10.087
			c0.072-1.851-0.512-3.16-1.83-4.465c-11.694-11.599-23.306-23.279-34.994-34.877c-1.129-1.122-1.566-2.232-1.542-3.797
			c0.083-5.468-0.06-10.94,0.079-16.404c0.056-2.277-0.732-3.892-2.311-5.468c-12.55-12.52-25.024-25.11-37.555-37.653
			c-0.913-0.911-1.301-1.827-1.301-3.124c0.032-37.275,0.026-74.552,0.029-111.828c0-0.662,0.039-1.326,0.077-2.359
			c0.744,0.692,1.205,1.092,1.638,1.521c4.535,4.532,9.041,9.097,13.626,13.579c1.028,1.007,1.425,2.023,1.422,3.458
			c-0.043,18.539-0.039,37.086,0,55.628c0.003,1.162-0.322,1.956-1.111,2.811c-4.928,5.345-6.81,11.667-5.454,18.803
			c2.013,10.58,11.788,18.194,22.952,17.298c10.598-0.853,19.022-9.513,19.618-20.397c0.712-12.977-10.459-23.695-23.386-22.439
			c-0.477,0.045-0.957,0.004-1.426,0.004c-0.394-2.733-0.266-32.778,0.163-34.124c0.438,0.403,0.86,0.761,1.251,1.155
			c11.433,11.422,22.845,22.856,34.299,34.25c0.841,0.833,1.121,1.672,1.116,2.819c-0.031,12.068-0.018,24.135-0.018,36.206
			c0,0.552,0,1.111,0,1.822c-4.221,0.613-7.781,2.348-10.596,5.421c-2.871,3.135-4.552,6.855-4.463,11.106
			c0.204,9.858,5.707,15.358,15.083,17.537c0,2.869,0.074,5.694-0.029,8.514c-0.061,1.636,0.442,2.817,1.622,3.986
			c13.819,13.738,27.587,27.53,41.367,41.308c0.441,0.444,0.917,0.867,1.318,1.346c0.271,0.322,0.616,0.723,0.625,1.099
			c0.056,2.429,0.029,4.859,0.029,7.176c-5.724,2.753-8.125,6.834-7.035,11.679c1.042,4.616,4.952,7.787,9.607,7.791
			c4.653,0.002,8.695-3.205,9.637-7.754c0.458-2.207,0.247-4.382-0.789-6.427c-1.593-3.138-4.288-4.799-7.7-5.487
			c0-2.297-0.098-4.435,0.033-6.558c0.104-1.717-0.487-2.925-1.695-4.128c-13.909-13.831-27.765-27.712-41.636-41.575
			c-0.353-0.356-0.751-0.678-1.05-1.078c-0.253-0.333-0.542-0.747-0.546-1.133c-0.046-2.942-0.025-5.887-0.025-8.933
			c5.686-0.809,9.924-3.667,13.121-8.697c0.585,0.731,0.975,1.316,1.46,1.802c4.476,4.501,9.005,8.953,13.443,13.49
			c1.332,1.367,2.785,1.945,4.686,1.917c5.342-0.077,10.686,0.002,16.028-0.05c1.158-0.011,1.989,0.319,2.813,1.152
			c5.744,5.811,11.521,11.59,17.337,17.332c0.926,0.912,1.291,1.831,1.287,3.13c-0.047,9.804,0,19.611-0.047,29.418
			c-0.01,1.76,0.536,3.112,1.793,4.353c5.107,5.023,10.155,10.116,15.218,15.182c0.477,0.477,0.939,0.968,1.368,1.412
			c-4.765,9.409-3.357,17.848,3.778,23.303c6.47,4.942,15.72,4.556,21.706-0.905c6.148-5.611,7.408-14.673,3.012-21.655
			c-4.809-7.645-13.132-9.771-22.964-5.819c-0.377-0.35-0.804-0.71-1.197-1.104c-4.674-4.661-9.317-9.353-14.024-13.978
			c-0.932-0.912-1.279-1.849-1.274-3.141c0.052-9.741,0-19.487,0.052-29.229c0.007-1.822-0.515-3.223-1.833-4.525
			c-6.892-6.799-13.734-13.647-20.543-20.528c-1.243-1.26-2.575-1.825-4.339-1.804c-5.471,0.069-10.939,0.002-16.407,0.043
			c-1.016,0.007-1.759-0.275-2.479-1.007c-5.266-5.317-10.558-10.602-15.867-15.872c-0.67-0.664-0.963-1.352-1.039-2.297
			c-0.521-6.577-3.872-11.26-9.69-14.245c-0.546-0.278-1.112-0.52-1.723-0.805c0-0.843,0-1.587,0-2.338
			c0-12.824-0.029-25.646,0.029-38.471c0.011-1.914-0.539-3.392-1.954-4.666c-1.396-1.262-2.683-2.651-4.015-3.984
			c-12.404-12.396-24.794-24.806-37.228-37.179c-0.921-0.919-1.329-1.827-1.286-3.128c0.089-2.7-0.06-5.409,0.054-8.108
			c0.094-2.306-0.7-4.083-2.337-5.701c-7.909-7.823-15.73-15.742-23.651-23.555c-1.307-1.288-1.85-2.575-1.848-4.426
			c0.043-94.226,0.038-188.453,0.035-282.678c0-0.63-0.035-1.26,0-1.886c0.125-2.226-0.742-3.946-2.337-5.509
			c-5.348-5.231-10.596-10.562-15.898-15.838c-0.646-0.643-1.104-1.255-1.086-2.261c0.063-3.456,0.004-6.914,0.047-10.371
			c0.006-0.52,0.166-1.161,0.496-1.531c1.176-1.318,1.454-2.837,1.45-4.536c-0.024-15.464-0.015-30.926-0.015-46.39
			c0-0.674,0-1.348,0-2.243C292.59-0.08,287.8-0.098,282.844-0.07c0,0.948,0,1.627,0,2.309c0,6.6,0,13.201,0,19.801
			c0,8.8,0.005,17.601-0.006,26.401c-0.001,1.41,0.087,2.82,1.033,3.921c0.69,0.803,0.759,1.657,0.757,2.616
			c-0.02,4.211,0.065,8.425-0.039,12.634c-0.055,2.253,0.739,3.958,2.322,5.513c5.2,5.112,10.299,10.325,15.51,15.426
			c1.076,1.054,1.5,2.106,1.498,3.612c-0.034,81.528-0.035,163.058,0.005,244.585c0,1.511-0.408,2.568-1.474,3.621
			c-7.774,7.695-15.461,15.476-23.25,23.156c-1.508,1.487-2.137,3.065-2.11,5.173c0.091,7.293,0.036,14.583,0.036,21.879
			c0,0.668,0,1.344,0,1.952c-11.397,3.207-16.619,14.948-10.905,25.805c-0.5,0.371-1.172,0.759-1.704,1.29
			c-14.505,14.471-28.983,28.976-43.503,43.436c-1.342,1.338-2.099,2.751-1.947,4.671c0.072,0.905-0.052,1.829-0.086,2.681
			c-8.038,2.062-13.05,8.322-13.357,15.453c-0.402,9.386,4.544,15.16,13.328,18.042c0,0.987-0.006,1.924,0.002,2.864
			c0.147,16.904,0.277,33.812,0.479,50.719c0.016,1.378-0.375,2.321-1.343,3.287c-13.011,12.949-25.969,25.947-38.981,38.892
			c-1.349,1.344-1.959,2.761-1.947,4.668c0.062,9.808,0.013,19.614,0.049,29.42c0.004,1.087-0.304,1.877-1.087,2.641
			c-3.279,3.207-6.499,6.478-9.75,9.715c-0.336,0.335-0.73,0.608-1.102,0.919c-0.279-0.259-0.466-0.425-0.647-0.6
			c-5.444-5.211-12.809-6.531-19.313-3.453c-6.554,3.098-10.238,9.586-9.692,17.062c0.662,9.04,9.366,16.262,18.444,15.297
			c10.027-1.065,16.816-9.881,15.188-19.823c-0.2-1.219,0.124-1.965,0.965-2.793c4.128-4.047,8.152-8.205,12.309-12.222
			c1.523-1.472,2.151-3.061,2.137-5.171c-0.074-9.679-0.015-19.359-0.057-29.04c-0.005-1.163,0.31-2.004,1.163-2.805
			c1.833-1.719,3.573-3.537,5.35-5.314c11.292-11.29,22.571-22.591,33.89-33.853c1.297-1.288,1.979-2.662,1.874-4.509
			c-0.109-1.876-0.069-3.768-0.07-5.653c0-0.391,0.103-0.78,0.197-1.449c3.098,3.091,6.005,5.944,8.831,8.874
			c0.364,0.377,0.436,1.146,0.444,1.734c0.042,3.082-0.04,6.16,0.046,9.238c0.039,1.417-0.365,2.439-1.398,3.464
			c-10.129,10.05-20.188,20.171-30.317,30.221c-1.122,1.113-1.569,2.241-1.558,3.81c0.063,9.178,0.034,18.358,0.027,27.534
			c0,0.656-0.061,1.31-0.101,2.091c-0.962-0.337-1.707-0.66-2.481-0.859c-3.958-1.014-7.396-0.04-10.063,3.031
			c-2.67,3.078-3.192,6.674-1.552,10.393c1.642,3.719,4.654,5.729,8.731,5.85c7.087,0.207,11.94-6.808,9.381-13.428
			c-0.217-0.564-0.427-1.178-0.434-1.772c-0.011-1.122,0.194-2.243,0.197-3.369c0.019-9.366,0.037-18.732-0.018-28.096
			c-0.01-1.435,0.412-2.446,1.43-3.46c10.126-10.052,20.193-20.164,30.312-30.225c1.053-1.046,1.589-2.109,1.553-3.633
			c-0.092-3.894-0.086-7.798-0.002-11.691c0.033-1.449-0.461-2.474-1.479-3.473c-3.645-3.553-7.209-7.191-10.828-10.77
			c-0.66-0.654-1.073-1.312-1.07-2.289c0.015-3.018-0.049-6.033-0.064-9.049c-0.001-0.317,0.126-0.632,0.226-1.096
			c0.353,0.298,0.554,0.438,0.727,0.608c7.827,7.821,15.642,15.651,23.484,23.458c0.638,0.636,0.864,1.294,0.851,2.165
			c-0.04,2.639-0.089,5.283,0.016,7.921c0.056,1.379-0.401,2.321-1.369,3.281c-12.883,12.809-25.717,25.669-38.603,38.471
			c-1.115,1.111-1.583,2.232-1.578,3.81c0.051,14.394,0.031,28.788,0.031,43.182c0,0.733,0,1.463,0,2.093
			c-5.941,2.241-8.679,6.26-7.908,11.32c0.683,4.482,4.535,8.037,8.986,8.3c4.906,0.294,9.053-2.668,10.285-7.373
			c0.578-2.202,0.4-4.365-0.533-6.442c-1.379-3.072-3.875-4.841-7.104-5.747c0-0.625,0-1.117,0-1.613
			c0-14.269,0.014-28.538-0.026-42.807c-0.004-1.182,0.368-1.982,1.186-2.796c11.765-11.699,23.5-23.436,35.246-35.157
			c0.331-0.33,0.705-0.617,1.358-1.185c0,1.688-0.094,2.992,0.025,4.282c0.13,1.394-0.419,2.327-1.383,3.278
			c-10.343,10.283-20.637,20.613-30.975,30.9c-0.96,0.955-1.426,1.926-1.416,3.305c0.058,6.662,0.061,13.326-0.001,19.986
			c-0.015,1.45,0.451,2.483,1.479,3.474c2.808,2.7,5.531,5.487,8.284,8.248c0.438,0.438,0.854,0.899,1.243,1.31
			c-1.974,6.119-0.497,10.796,4.127,13.294c4.138,2.232,9.345,1.217,12.292-2.398c2.989-3.67,2.984-8.9-0.013-12.524
			c-3.377-4.085-8.203-4.579-14.019-1.358c-3.036-3.033-6.12-6.074-9.135-9.183c-0.371-0.384-0.504-1.135-0.506-1.717
			c-0.036-6.034-0.006-12.071-0.04-18.104c-0.004-0.951,0.286-1.648,0.963-2.323c9.311-9.271,18.593-18.568,27.891-27.85
			c0.275-0.276,0.634-0.464,1.054-0.771c0,4.075,0,7.942,0,11.756c-5.93,2.105-8.623,6.022-7.882,11.327
			c0.606,4.37,4.394,7.908,8.81,8.235c4.817,0.356,9.072-2.528,10.358-7.029c0.646-2.261,0.517-4.489-0.415-6.642
			c-1.336-3.08-3.786-4.91-7.012-5.835c0-0.88,0-1.627,0-2.375c0-12.384-0.025-24.765,0.032-37.151
			c0.006-1.572-0.453-2.693-1.572-3.803c-8.797-8.719-17.526-17.5-26.313-26.223c-0.875-0.869-1.219-1.745-1.225-2.969
			c-0.047-7.791-0.17-15.582-0.256-23.375c-0.004-0.421,0.1-0.84,0.146-1.202c8.57-3.184,12.988-8.384,13.093-16.176
			c0.121-8.863-4.693-14.359-12.858-17.15c-0.346-1.51,0.02-2.61,1.148-3.731c14.043-13.959,28.032-27.973,42.037-41.972
			c0.44-0.438,0.904-0.853,1.337-1.26c11.475,6.622,21.804,0.327,25.084-7.015c1.879-4.207,2.169-8.506,0.605-12.846
			c-2.096-5.815-6.365-9.325-12.203-11.001c-0.04-0.432-0.092-0.74-0.092-1.048c-0.005-7.23,0.016-14.459-0.029-21.689
			c-0.006-0.999,0.431-1.622,1.074-2.265c5.657-5.633,11.296-11.281,16.947-16.922c0.328-0.327,0.714-0.598,1.337-1.111
			c0,0.894,0,1.441,0,1.991c0,23.887-0.007,47.772,0.028,71.66c0.001,1.24-0.385,2.099-1.25,2.955
			c-9.271,9.222-18.494,18.488-27.773,27.698c-1.108,1.101-1.613,2.216-1.604,3.799c0.061,10.436,0.032,20.871,0.032,31.306
			c0,0.675,0,1.354,0,1.94c-6.383,2.684-8.957,6.668-7.881,11.975c0.895,4.404,4.901,7.675,9.464,7.729
			c4.798,0.054,8.824-3.141,9.787-7.766c1.092-5.246-1.379-9.165-7.555-11.872c-0.024-0.319-0.079-0.687-0.079-1.058
			c-0.005-10.557,0.01-21.121-0.026-31.678c-0.003-1.001,0.423-1.622,1.069-2.27c8.146-8.123,16.277-16.262,24.417-24.39
			c0.331-0.328,0.716-0.604,1.374-1.156c0,2.3-0.055,4.224,0.021,6.144c0.041,1.096-0.325,1.874-1.1,2.64
			c-4.564,4.502-9.053,9.081-13.637,13.562c-1.119,1.096-1.634,2.205-1.606,3.797c0.09,5.153,0.033,10.306,0.033,15.464
			c0,0.668,0,1.342,0,1.917c-6.242,2.548-8.851,6.592-7.817,11.864c0.866,4.417,4.859,7.739,9.394,7.817
			c4.801,0.086,8.778-3.033,9.859-7.694c0.518-2.241,0.222-4.368-0.758-6.415c-1.392-2.914-3.827-4.559-6.833-5.428
			c-0.051-0.343-0.12-0.584-0.122-0.83c-0.008-5.405,0.006-10.812-0.025-16.217c-0.004-0.835,0.32-1.406,0.889-1.97
			c3.527-3.489,7.03-7.012,10.549-10.516c0.282-0.282,0.638-0.487,1.154-0.875c0,0.771,0,1.268,0,1.767
			c0,24.955-0.008,49.909,0.025,74.864c0.001,1.183-0.379,1.979-1.195,2.787c-6.962,6.904-13.849,13.89-20.846,20.762
			c-1.839,1.803-2.62,3.755-2.613,6.344c0.062,29.355,0.032,58.71,0.065,88.065c0.001,1.297-0.361,2.216-1.283,3.133
			c-9.321,9.258-18.58,18.578-27.912,27.825c-1.686,1.67-2.422,3.517-2.406,5.876c0.067,9.111,0.027,18.229,0.027,27.343
			c0,0.735,0,1.465,0,2.099c-10.569,3.803-16.356,13.743-14.583,24.058c1.771,10.315,10.286,17.662,20.543,17.996
			c9.971,0.321,19.06-6.519,21.494-16.165c1.247-4.941,0.846-9.747-1.302-14.349c-3.007-6.438-8.177-10.332-15.045-12.144
			c0-0.699,0-1.26,0-1.816c0-8.046,0.026-16.094-0.027-24.14c-0.009-1.31,0.43-2.202,1.344-3.11
			c9.182-9.131,18.284-18.346,27.497-27.439c1.89-1.868,2.695-3.863,2.681-6.515c-0.081-15.842-0.04-31.679-0.037-47.52
			c0-0.649,0.037-1.301,0.067-2.304c0.771,0.73,1.232,1.149,1.67,1.587c4.316,4.311,8.6,8.65,12.959,12.91
			c1.021,1.001,1.446,2.011,1.442,3.451c-0.042,25.02-0.031,50.037-0.031,75.055c0,0.69,0,1.374,0,2.166
			c-2.922,0.916-5.488,2.327-7.612,4.469c-2.079,2.1-3.546,4.561-4.328,7.403c-0.798,2.903-0.837,5.835-0.097,8.76
			c1.96,7.733,9.125,13.141,16.979,12.823c8.058-0.321,14.838-6.104,16.223-13.796c0.731-4.056,0.142-7.893-1.868-11.478
			c-2.618-4.664-6.706-7.366-11.845-8.536c0-12.204,0-24.297,0-36.747c0.683,0.623,1.141,1.01,1.561,1.431
			c9.736,9.729,19.459,19.476,29.225,29.183c0.93,0.923,1.268,1.856,1.264,3.143c-0.042,10.309-0.021,20.617-0.021,30.926
			C345.902,714.508,345.902,715.127,345.902,715.811z M183.782,551.53c9.992-1.89,15.849-7.651,16.348-15.824
			c0.245-4.036-0.692-7.735-3.021-11.051c-3.157-4.495-7.625-6.749-13.118-7.361c0-0.885,0-1.629,0-2.373
			c0-22.628,0.014-45.257-0.032-67.885c-0.004-1.51,0.449-2.554,1.513-3.613c17.678-17.614,35.308-35.276,52.983-52.891
			c1.297-1.292,1.919-2.666,1.891-4.502c-0.069-4.713,0.025-9.428-0.05-14.142c-0.022-1.43,0.407-2.448,1.425-3.461
			c13.855-13.791,27.648-27.648,41.528-41.413c1.657-1.646,2.333-3.347,2.327-5.654c-0.057-23.948-0.035-47.898-0.035-71.847
			c0-49.597-0.013-99.191,0.036-148.788c0.004-2.439-0.707-4.241-2.468-5.974c-8.965-8.813-17.806-17.752-26.722-26.616
			c-0.816-0.812-1.216-1.607-1.185-2.791c0.083-3.203,0.046-6.411,0.017-9.617c-0.008-0.813,0.179-1.386,0.912-1.882
			c1.738-1.179,2.481-2.868,2.477-4.995c-0.029-15.778-0.015-31.555-0.02-47.333c0-0.481-0.084-0.964-0.127-1.417
			c-2.593-0.375-13.214-0.263-14.533,0.146c-0.018,0.361-0.058,0.736-0.058,1.109c-0.003,15.903,0.012,31.807-0.021,47.709
			c-0.004,2.161,0.818,3.859,2.633,4.88c1.212,0.68,1.417,1.53,1.4,2.746c-0.05,3.583,0.046,7.167-0.044,10.75
			c-0.046,1.838,0.585,3.2,1.888,4.491c9.106,9.028,18.147,18.122,27.243,27.161c0.867,0.863,1.237,1.725,1.237,2.959
			c-0.027,72.601-0.027,145.203,0.002,217.804c0,1.25-0.409,2.095-1.269,2.945c-4.922,4.857-9.816,9.74-14.668,14.668
			c-0.863,0.875-1.737,1.226-2.962,1.221c-11.566-0.04-23.131,0.005-34.697-0.057c-1.706-0.008-2.94,0.489-4.141,1.707
			c-9.261,9.408-18.583,18.751-27.889,28.114c-0.479,0.483-0.984,0.944-1.442,1.383c-5.83-2.643-10.537-1.795-13.605,2.384
			c-2.758,3.758-2.533,8.858,0.546,12.364c3.039,3.462,8.172,4.327,12.199,2.056c2.046-1.156,3.511-2.832,4.357-5.024
			c1.211-3.143,0.697-6.149-0.869-8.988c0.36-0.391,0.605-0.677,0.869-0.942c9.391-9.454,18.791-18.899,28.164-28.371
			c0.681-0.688,1.384-0.93,2.327-0.928c10.057,0.027,20.115,0.017,30.171,0.019c0.477,0,0.956,0.051,1.694,0.088
			c-1.205,1.528-2.154,2.61-4.196,2.582c-8.484-0.125-16.972-0.045-25.457-0.064c-1.047-0.002-1.937,0.163-2.728,0.96
			c-5.447,5.486-10.921,10.947-16.396,16.406c-0.611,0.609-0.925,1.287-0.916,2.175c0.033,3.331-0.065,6.667,0.057,9.992
			c0.043,1.137-0.212,1.972-0.797,2.92c-2.184,3.545-2.168,7.198,0.141,10.652c2.259,3.375,5.581,4.857,9.608,4.256
			c5.547-0.835,9.165-5.908,8.276-11.355c-0.892-5.455-6.14-9.038-11.732-8.007c-0.538,0.1-1.073,0.218-1.809,0.371
			c0-2.46,0.042-4.775-0.02-7.091c-0.028-1.023,0.297-1.755,1.024-2.475c4.696-4.636,9.367-9.301,14.001-13.999
			c0.77-0.779,1.548-1.098,2.639-1.095c6.789,0.045,13.578,0.021,20.367,0.029c0.463,0,0.925,0.083,1.655,0.154
			c-0.668,0.705-1.124,1.205-1.599,1.68c-4.798,4.801-9.576,9.623-14.417,14.383c-1.258,1.236-1.817,2.578-1.788,4.353
			c0.08,4.903,0.01,9.804,0.043,14.709c0.006,0.997-0.216,1.763-0.961,2.5c-9.805,9.754-19.582,19.532-29.34,29.329
			c-0.686,0.69-1.385,0.943-2.329,0.928c-2.891-0.045-5.785,0.05-8.673-0.045c-1.445-0.046-2.478,0.425-3.484,1.445
			c-4.759,4.842-9.604,9.599-14.366,14.437c-0.822,0.835-1.651,1.165-2.81,1.146c-3.958-0.061-7.918-0.017-11.879-0.028
			c-0.554,0-1.109-0.056-1.592-0.084c-3.225-5.323-7.447-7.267-12.261-5.72c-4.369,1.406-7.279,5.723-6.833,10.14
			c0.486,4.814,3.926,8.391,8.708,9.008c2.197,0.283,4.253-0.196,6.146-1.326c3.096-1.849,4.517-4.75,4.933-8.285
			c0.78,0,1.404,0,2.027,0c4.024,0,8.047-0.041,12.07,0.023c1.294,0.021,2.246-0.364,3.159-1.292
			c4.407-4.48,8.95-8.833,13.28-13.385c1.646-1.729,3.321-2.718,5.72-2.34c0.994,0.157,2.047-0.155,3.229,0.232
			c-0.602,0.63-1.023,1.087-1.461,1.529c-6,6.001-12.034,11.968-17.969,18.033c-1.063,1.083-2.075,1.531-3.574,1.49
			c-3.707-0.104-7.418,0.02-11.125-0.062c-1.445-0.028-2.489,0.446-3.484,1.472c-3.107,3.198-6.284,6.335-9.46,9.472
			c-0.427,0.42-0.984,0.942-1.51,0.981c-1.792,0.12-3.598,0.045-5.327,0.045c-1.612-6.519-6.731-8.683-10.832-8.26
			c-4.518,0.464-8.164,4.075-8.691,8.594c-0.553,4.75,2.213,9.136,6.691,10.567c2.23,0.712,4.462,0.665,6.648-0.198
			c3.203-1.258,5.071-3.749,6.101-6.963c1.896,0,3.658-0.078,5.408,0.023c1.442,0.084,2.493-0.395,3.494-1.426
			c3.15-3.25,6.4-6.399,9.573-9.627c0.667-0.682,1.346-0.99,2.312-0.975c3.583,0.052,7.166,0.015,10.749,0.028
			c0.416,0,0.831,0.099,1.308,0.157c0.089,1.585,0.302,3.052-0.147,4.599c-3.622,0-7.14,0.062-10.655-0.028
			c-1.622-0.041-2.814,0.406-3.979,1.605c-4.731,4.864-9.591,9.609-14.358,14.441c-0.812,0.824-1.626,1.192-2.798,1.184
			c-5.971-0.056-11.943-0.047-17.915-0.011c-1.067,0.007-1.852-0.245-2.648-1.041c-3.415-3.413-8.553-3.861-12.427-1.202
			c-3.9,2.68-5.362,7.705-3.503,12.03c1.829,4.256,6.459,6.697,10.951,5.785c4.704-0.956,7.989-5.048,7.93-9.88
			c-0.007-0.607,0-1.212,0-1.999c0.813,0,1.492,0,2.17,0c5.468,0,10.938-0.054,16.406,0.034c1.585,0.026,2.699-0.48,3.795-1.601
			c4.796-4.896,9.685-9.695,14.501-14.568c0.769-0.778,1.561-1.113,2.65-1.094c2.767,0.061,5.532,0.015,8.297,0.028
			c0.546,0.002,1.092,0.08,1.834,0.131c0,2.002-0.039,3.877,0.016,5.747c0.028,0.903-0.324,1.527-0.938,2.14
			c-8.814,8.79-17.617,17.584-26.403,26.404c-0.628,0.628-1.278,0.885-2.16,0.874c-3.645-0.035-7.292,0.064-10.936-0.048
			c-1.796-0.056-3.086,0.571-4.316,1.825c-4.846,4.931-9.761,9.797-14.652,14.685c-0.476,0.475-0.967,0.926-1.414,1.351
			c-7.497-4.523-13.953-4.101-18.796,1.117c-4.37,4.709-4.792,11.827-1.008,17.013c3.792,5.19,10.691,6.998,16.5,4.293
			c2.896-1.349,5.066-3.476,6.455-6.353c1.797-3.731,1.651-7.535,0.274-11.26c0.106-0.216,0.135-0.352,0.218-0.436
			c5.323-5.346,10.642-10.695,15.998-16.001c0.351-0.35,0.983-0.576,1.49-0.583c3.08-0.052,6.159-0.023,9.239-0.002
			c0.226,0,0.449,0.146,0.687,0.227c0.024,0.505,0.063,0.94,0.063,1.376c0.002,18.547-0.006,37.086,0.022,55.631
			c0.001,1.03-0.321,1.751-1.042,2.465c-6.69,6.648-13.347,13.322-20.017,19.985c-0.31,0.312-0.642,0.591-1.052,0.966
			c-3.29-2.893-7.045-4.57-11.476-4.474c-4.5,0.091-8.32,1.763-11.421,5.005c-5.403,5.651-5.932,14.316-1.302,20.604
			c4.578,6.219,12.911,8.32,19.894,4.987c3.475-1.658,6.048-4.249,7.663-7.752c2.097-4.541,1.912-9.125-0.162-14.058
			c0.518-0.373,1.144-0.717,1.63-1.204c6.949-6.915,13.844-13.887,20.84-20.757c1.469-1.443,2.044-2.94,2.037-4.985
			c-0.061-19.357-0.033-38.719-0.044-58.08c-0.001-1.027,0.091-1.892,0.924-2.71c4.758-4.668,9.445-9.4,14.164-14.106
			c0.272-0.272,0.637-0.451,1.082-0.76c0.041,0.469,0.083,0.706,0.083,0.947c0.002,10.563-0.008,21.122,0.021,31.683
			c0.002,0.906-0.328,1.522-0.944,2.129c-2.465,2.425-4.861,4.92-7.357,7.311c-0.991,0.944-1.385,1.961-1.376,3.321
			c0.048,7.669,0.049,15.341-0.002,23.008c-0.009,1.376,0.443,2.366,1.416,3.311c3.109,3.021,6.061,6.21,9.253,9.14
			c1.597,1.465,2.328,3.009,2.003,5.102c-0.094,0.604,0.016,1.402-0.328,1.783c-1.589,1.754-3.303,3.392-4.917,5.018
			c-5.284-2.896-10.284-2.217-13.499,1.683c-3.016,3.658-3.023,8.849-0.02,12.513c2.946,3.594,8.004,4.648,12.12,2.514
			c2.083-1.081,3.603-2.701,4.53-4.864c1.331-3.106,0.892-6.126-0.665-9.261c1.748-1.678,3.435-3.362,5.2-4.965
			c0.972-0.878,1.365-1.879,1.3-3.167c-0.067-1.315-0.076-2.645,0.002-3.96c0.083-1.372-0.438-2.373-1.407-3.317
			c-3.417-3.342-6.753-6.765-10.166-10.104c-0.777-0.761-1.122-1.537-1.115-2.633c0.042-6.914,0.04-13.827,0.002-20.745
			c-0.006-1.024,0.294-1.762,1.029-2.474c2.48-2.41,4.873-4.907,7.363-7.307c0.938-0.899,1.307-1.867,1.297-3.162
			c-0.048-6.598-0.022-13.201-0.022-19.802c0.001-5.403-0.006-10.811,0.012-16.214c0.003-0.615-0.056-1.404,0.281-1.802
			c1.062-1.26,2.3-2.37,3.468-3.537c0.127,0.061,0.253,0.125,0.379,0.188c0,0.604,0,1.212,0,1.82c0,15.087-0.023,30.173,0.036,45.26
			c0.004,1.521-0.497,2.261-1.811,3.032c-6.359,3.729-9.403,9.422-8.57,16.729c0.824,7.22,5.048,11.986,11.952,14.331
			c0.579,0.194,1.158,0.389,1.745,0.58c0.027,0.423,0.067,0.731,0.067,1.04c0.003,8.736-0.017,17.477,0.032,26.213
			c0.006,1.087-0.488,1.738-1.172,2.422c-8.944,8.924-17.875,17.864-26.814,26.793c-0.38,0.379-0.811,0.712-1.253,1.098
			c-0.421-0.384-0.736-0.686-1.067-0.971c-3.354-2.886-7.859-3.283-11.562-1.029c-3.66,2.23-5.433,6.506-4.453,10.738
			c1.162,5.011,6.105,8.216,11.345,7.357c4.981-0.817,8.673-5.658,7.93-10.694c-0.226-1.534,0.242-2.423,1.246-3.421
			c9.319-9.263,18.583-18.577,27.908-27.83c1.11-1.103,1.616-2.233,1.604-3.81c-0.06-8.424-0.027-16.847-0.027-25.271
			C183.782,553.111,183.782,552.367,183.782,551.53z M445.333,396.363c-0.517-0.637-0.907-1.217-1.396-1.704
			c-9.146-9.161-18.348-18.277-27.427-27.508c-1.646-1.669-3.319-2.323-5.634-2.288c-8.106,0.114-16.218,0.013-24.324,0.074
			c-1.375,0.011-2.323-0.396-3.292-1.369c-13.661-13.716-27.35-27.406-41.074-41.062c-1.062-1.058-1.526-2.095-1.521-3.607
			c0.062-22.818,0.063-45.634,0.076-68.452c0.017-27.971,0.029-55.942,0.038-83.914c0.005-21.874,0.017-43.749-0.029-65.623
			c-0.003-1.502,0.412-2.557,1.488-3.617c8.611-8.457,17.143-16.991,25.75-25.45c1.318-1.294,1.896-2.673,1.851-4.509
			c-0.092-3.646-0.031-7.297-0.024-10.946c0-0.555,0.05-1.109,0.081-1.766c3.021-1.33,3.812-3.749,3.789-6.897
			c-0.101-15.147-0.047-30.298-0.047-45.447c0-0.732,0-1.465,0-2.154c-2.644-0.392-13.321-0.285-14.724,0.139
			c0,0.653,0,1.339,0,2.024c0,12.446,0,24.892,0,37.337c0,3.207,0.017,6.413-0.006,9.618c-0.013,1.766,0.711,3.155,2.031,4.267
			c0.425,0.361,0.888,0.682,1.436,1.101c0,3.4-0.057,6.853,0.026,10.302c0.036,1.421-0.367,2.445-1.4,3.461
			c-8.436,8.277-16.773,16.651-25.234,24.898c-1.774,1.73-2.463,3.569-2.459,6.007c0.045,25.583,0.007,51.165,0.002,76.748
			c-0.011,48.402-0.002,96.801-0.051,145.202c-0.002,1.989,0.553,3.487,2.007,4.825c1.94,1.786,3.706,3.764,5.639,5.561
			c1.002,0.931,1.387,1.904,1.382,3.283c-0.051,12.635-0.008,25.27-0.059,37.904c-0.008,1.508,0.454,2.575,1.523,3.626
			c4.982,4.886,9.892,9.843,14.823,14.78c0.482,0.483,0.947,0.987,1.397,1.456c-2.522,6.229-1.558,10.854,2.821,13.796
			c3.839,2.578,8.998,2.118,12.332-1.096c3.342-3.227,3.976-8.317,1.514-12.275c-1.244-1.995-2.999-3.365-5.214-4.135
			c-3.051-1.06-5.928-0.442-8.625,1.044c-0.255-0.175-0.428-0.262-0.556-0.391c-5.162-5.149-10.306-10.315-15.492-15.442
			c-0.655-0.651-0.8-1.346-0.798-2.191c0.012-11.129,0.002-22.254,0.014-33.381c0-0.452,0.117-0.904,0.211-1.568
			c0.611,0.566,1.027,0.933,1.419,1.323c18.852,18.844,37.693,37.691,56.562,56.515c0.869,0.864,1.249,1.726,1.24,2.959
			c-0.048,8.483-0.002,16.97-0.043,25.455c-0.009,1.688,0.506,3.01,1.731,4.188c2.586,2.48,5.034,5.104,7.642,7.556
			c1.067,1.003,1.404,2.061,1.402,3.475c-0.04,16.784-0.009,33.564-0.057,50.348c-0.004,1.702,0.483,2.937,1.701,4.142
			c10.62,10.535,21.185,21.131,31.759,31.707c0.485,0.487,0.948,0.992,1.398,1.462c-3.151,6.072-2.605,10.767,1.579,14.114
			c3.63,2.903,8.974,2.802,12.522-0.242c3.556-3.046,4.468-8.27,2.149-12.34c-2.564-4.509-7.179-5.908-13.191-3.943
			c-0.333-0.298-0.72-0.608-1.067-0.958c-10.672-10.664-21.33-21.342-32.025-31.979c-0.836-0.834-1.13-1.678-1.128-2.825
			c0.031-15.216,0.019-30.425,0.025-45.639c0-0.542,0.065-1.085,0.114-1.861c1.817,1.371,2.972,2.588,2.943,4.986
			c-0.142,12.064-0.048,24.136-0.091,36.202c-0.005,1.488,0.404,2.595,1.485,3.667c9.769,9.693,19.499,19.433,29.208,29.193
			c0.959,0.964,1.93,1.411,3.307,1.387c4.712-0.071,9.43-0.047,14.143-0.004c0.638,0.007,1.453,0.136,1.883,0.535
			c2.196,2.054,4.294,4.213,6.539,6.447c-0.778,0.38-1.398,0.655-1.998,0.966c-3.939,2.054-6.042,6.552-5.047,10.799
			c1.062,4.554,4.877,7.65,9.473,7.694c4.596,0.043,8.433-2.839,9.634-7.241c1.188-4.338-0.683-9.045-4.694-11.079
			c-1.738-0.887-3.164-1.894-4.461-3.378c-2.184-2.504-4.699-4.715-7.006-7.122c-0.939-0.979-1.941-1.415-3.315-1.394
			c-4.587,0.066-9.179-0.009-13.764,0.047c-1.213,0.018-2.099-0.309-2.979-1.194c-9.124-9.185-18.284-18.335-27.47-27.462
			c-0.872-0.867-1.233-1.736-1.229-2.968c0.043-10.496,0.026-20.997,0.026-31.493c0-0.539,0-1.078,0-1.617
			c0.144-0.041,0.288-0.087,0.432-0.13c1.278,1.354,2.847,2.28,2.799,4.771c-0.175,8.731-0.047,17.472-0.092,26.208
			c-0.007,1.365,0.407,2.364,1.372,3.324c7.811,7.748,15.589,15.526,23.342,23.33c0.959,0.967,1.958,1.398,3.324,1.385
			c5.721-0.054,11.44,0.009,17.161-0.047c1.292-0.016,2.213,0.375,3.13,1.299c8.057,8.119,16.114,16.242,24.293,24.24
			c1.624,1.592,1.628,3.169,1.267,5.026c-10.285,1.928-14.486,10.273-13.945,17.077c0.668,8.401,7.11,14.62,15.39,15.052
			c7.698,0.399,14.918-5.207,16.437-12.787c0.783-3.906,0.249-7.636-1.705-11.119c-2.666-4.752-6.86-7.339-12.261-8.279
			c0-0.987-0.076-1.87,0.019-2.73c0.164-1.577-0.44-2.703-1.56-3.812c-8.751-8.674-17.467-17.379-26.135-26.135
			c-1.118-1.128-2.257-1.56-3.814-1.54c-5.719,0.073-11.442,0.009-17.159,0.052c-1.026,0.006-1.764-0.298-2.488-1.024
			c-7.312-7.354-14.648-14.686-22.003-22c-0.673-0.671-0.972-1.356-0.97-2.316c0.033-7.293,0.018-14.586,0.026-21.877
			c0-0.399,0.114-0.805,0.233-1.57c1.404,1.902,3.174,1.857,4.965,1.854c9.993-0.015,19.986,0.011,29.98-0.029
			c1.231-0.007,2.111,0.354,2.977,1.229c5.788,5.85,11.629,11.656,17.446,17.482c0.39,0.389,0.735,0.822,1.072,1.206
			c-5.993,9.083-2.813,18.285,2.673,22.989c6.265,5.371,15.486,5.501,21.865,0.272c6.402-5.248,8.138-14.3,4.081-21.48
			c-2.021-3.576-4.958-6.141-8.818-7.588c-4.793-1.8-9.488-1.368-14.38,0.983c-0.398-0.514-0.77-1.115-1.252-1.601
			c-6.213-6.234-12.474-12.418-18.64-18.695c-1.474-1.497-2.996-2.191-5.14-2.172c-10.053,0.099-20.11,0.027-30.17,0.064
			c-1.21,0.004-2.104-0.298-2.984-1.187c-7.744-7.812-15.524-15.585-23.335-23.333c-0.836-0.828-1.147-1.654-1.144-2.811
			c0.043-8.36-0.026-16.719,0.057-25.08c0.022-2.056-0.644-3.563-2.098-4.989c-6.319-6.216-12.558-12.506-18.825-18.776
			c-0.457-0.46-0.889-0.94-1.332-1.411c0.062-0.125,0.124-0.248,0.188-0.372c0.544,0,1.093,0,1.639,0
			c5.907,0,11.817,0.038,17.726-0.031c1.256-0.015,2.103,0.423,2.951,1.279c9.093,9.133,18.213,18.233,27.322,27.347
			c0.393,0.393,0.751,0.822,1.102,1.21c-5.479,8.877-2.153,17.735,3.552,22.057c6.299,4.765,15.205,4.247,20.915-1.247
			c5.659-5.442,6.548-14.239,2.078-20.688c-2.273-3.281-5.354-5.459-9.212-6.465C454.151,392.642,449.768,393.557,445.333,396.363z"
			/>
		<path fill="#010101" d="M345.902,715.811c0-0.684,0-1.303,0-1.919c0-10.307-0.017-20.617,0.023-30.926
			c0.006-1.283-0.334-2.22-1.264-3.143c-9.764-9.703-19.486-19.453-29.225-29.183c-0.421-0.421-0.878-0.808-1.561-1.431
			c0,12.452,0,24.543,0,36.75c5.141,1.167,9.229,3.874,11.845,8.535c2.012,3.583,2.602,7.423,1.87,11.478
			c-1.387,7.692-8.168,13.473-16.223,13.794c-7.857,0.317-15.021-5.088-16.98-12.823c-0.74-2.925-0.702-5.856,0.097-8.758
			c0.782-2.845,2.249-5.304,4.328-7.405c2.124-2.14,4.689-3.55,7.612-4.467c0-0.794,0-1.478,0-2.166
			c0-25.02-0.012-50.037,0.03-75.055c0.002-1.438-0.421-2.452-1.442-3.453c-4.359-4.26-8.643-8.598-12.959-12.91
			c-0.439-0.438-0.899-0.856-1.67-1.587c-0.03,1.005-0.068,1.654-0.068,2.304c-0.002,15.843-0.043,31.683,0.038,47.52
			c0.015,2.653-0.791,4.648-2.683,6.517c-9.212,9.094-18.315,18.307-27.495,27.438c-0.916,0.912-1.354,1.803-1.344,3.112
			c0.053,8.048,0.026,16.092,0.026,24.138c0,0.557,0,1.119,0,1.816c6.869,1.813,12.038,5.705,15.045,12.144
			c2.148,4.605,2.55,9.409,1.303,14.349c-2.437,9.646-11.523,16.486-21.494,16.165c-10.259-0.332-18.771-7.681-20.543-17.996
			c-1.774-10.312,4.014-20.252,14.583-24.058c0-0.632,0-1.363,0-2.097c0-9.115,0.04-18.231-0.026-27.341
			c-0.018-2.363,0.717-4.206,2.405-5.88c9.332-9.245,18.591-18.567,27.911-27.821c0.923-0.919,1.285-1.838,1.283-3.137
			c-0.034-29.353-0.003-58.708-0.065-88.065c-0.006-2.589,0.774-4.536,2.613-6.344c6.997-6.87,13.883-13.854,20.846-20.76
			c0.816-0.811,1.196-1.606,1.195-2.784c-0.033-24.957-0.026-49.914-0.026-74.869c0-0.499,0-0.995,0-1.767
			c-0.516,0.388-0.871,0.597-1.152,0.878c-3.52,3.501-7.021,7.023-10.551,10.52c-0.568,0.559-0.893,1.13-0.888,1.965
			c0.031,5.403,0.017,10.812,0.025,16.217c0,0.244,0.069,0.487,0.123,0.828c3.006,0.872,5.44,2.514,6.833,5.43
			c0.98,2.047,1.276,4.174,0.758,6.417c-1.081,4.659-5.057,7.778-9.858,7.692c-4.535-0.08-8.529-3.402-9.396-7.815
			c-1.033-5.273,1.576-9.32,7.818-11.868c0-0.575,0-1.246,0-1.917c0-5.155,0.055-10.309-0.034-15.464
			c-0.027-1.588,0.488-2.701,1.607-3.795c4.584-4.482,9.073-9.062,13.635-13.563c0.775-0.766,1.142-1.542,1.099-2.636
			c-0.073-1.922-0.02-3.848-0.02-6.144c-0.658,0.551-1.042,0.826-1.373,1.156c-8.14,8.126-16.27,16.265-24.416,24.386
			c-0.648,0.647-1.073,1.271-1.07,2.27c0.037,10.559,0.021,21.121,0.026,31.681c0,0.368,0.053,0.735,0.078,1.057
			c6.177,2.707,8.648,6.624,7.555,11.872c-0.962,4.627-4.988,7.819-9.786,7.764c-4.566-0.052-8.57-3.322-9.464-7.729
			c-1.077-5.305,1.498-9.289,7.881-11.972c0-0.589,0-1.269,0-1.941c0-10.437,0.029-20.872-0.032-31.306
			c-0.011-1.583,0.496-2.698,1.604-3.799c9.28-9.208,18.501-18.479,27.772-27.698c0.863-0.858,1.252-1.717,1.25-2.955
			c-0.035-23.887-0.026-47.772-0.028-71.662c0-0.547,0-1.096,0-1.991c-0.622,0.516-1.008,0.787-1.337,1.114
			c-5.65,5.639-11.289,11.29-16.946,16.923c-0.643,0.643-1.081,1.263-1.074,2.265c0.045,7.228,0.024,14.458,0.029,21.69
			c0,0.307,0.052,0.614,0.092,1.046c5.837,1.679,10.104,5.186,12.202,11.001c1.564,4.338,1.275,8.637-0.605,12.844
			c-3.28,7.345-13.61,13.637-25.084,7.015c-0.434,0.409-0.898,0.823-1.337,1.262c-14.005,13.999-27.993,28.011-42.038,41.972
			c-1.128,1.119-1.494,2.22-1.148,3.731c8.166,2.789,12.979,8.287,12.858,17.148c-0.105,7.792-4.523,12.994-13.095,16.178
			c-0.044,0.36-0.149,0.781-0.145,1.2c0.085,7.793,0.21,15.584,0.257,23.378c0.006,1.223,0.351,2.097,1.225,2.966
			c8.788,8.723,17.515,17.513,26.312,26.226c1.119,1.106,1.579,2.229,1.572,3.8c-0.057,12.387-0.032,24.77-0.032,37.151
			c0,0.748,0,1.499,0,2.375c3.228,0.925,5.677,2.755,7.013,5.837c0.933,2.15,1.062,4.381,0.415,6.64
			c-1.287,4.506-5.542,7.386-10.361,7.029c-4.416-0.325-8.201-3.865-8.808-8.233c-0.741-5.307,1.952-9.224,7.883-11.326
			c0-3.816,0-7.68,0-11.756c-0.422,0.304-0.779,0.498-1.054,0.77c-9.297,9.284-18.582,18.579-27.891,27.848
			c-0.678,0.675-0.966,1.372-0.964,2.325c0.033,6.033,0.004,12.068,0.04,18.104c0.003,0.58,0.136,1.333,0.506,1.715
			c3.015,3.11,6.1,6.149,9.134,9.185c5.814-3.223,10.642-2.729,14.018,1.356c2.997,3.626,3.002,8.857,0.014,12.524
			c-2.948,3.617-8.154,4.631-12.293,2.398c-4.625-2.496-6.101-7.173-4.127-13.294c-0.389-0.408-0.806-0.869-1.242-1.308
			c-2.754-2.761-5.478-5.55-8.284-8.25c-1.028-0.99-1.493-2.023-1.481-3.471c0.063-6.659,0.06-13.324,0.003-19.989
			c-0.013-1.377,0.454-2.35,1.415-3.305c10.338-10.287,20.632-20.615,30.975-30.896c0.963-0.956,1.514-1.888,1.384-3.283
			c-0.12-1.283-0.025-2.593-0.025-4.282c-0.654,0.57-1.029,0.856-1.358,1.185c-11.747,11.724-23.482,23.458-35.246,35.16
			c-0.817,0.812-1.191,1.615-1.186,2.795c0.041,14.27,0.026,28.538,0.026,42.805c0,0.496,0,0.992,0,1.618
			c3.229,0.901,5.724,2.672,7.103,5.742c0.933,2.077,1.111,4.245,0.535,6.447c-1.234,4.702-5.379,7.662-10.285,7.37
			c-4.452-0.265-8.302-3.819-8.986-8.302c-0.77-5.061,1.966-9.077,7.908-11.316c0-0.632,0-1.361,0-2.095
			c0-14.394,0.02-28.788-0.031-43.184c-0.006-1.575,0.462-2.698,1.578-3.808c12.886-12.804,25.718-25.662,38.603-38.469
			c0.967-0.962,1.425-1.904,1.369-3.283c-0.108-2.636-0.056-5.282-0.018-7.923c0.015-0.869-0.212-1.529-0.85-2.165
			c-7.841-7.803-15.658-15.635-23.484-23.454c-0.172-0.172-0.376-0.314-0.728-0.608c-0.099,0.464-0.227,0.779-0.225,1.092
			c0.014,3.018,0.078,6.033,0.063,9.051c-0.004,0.978,0.409,1.636,1.069,2.287c3.62,3.58,7.185,7.219,10.83,10.771
			c1.018,0.997,1.511,2.021,1.479,3.471c-0.084,3.898-0.09,7.798,0.001,11.691c0.036,1.523-0.501,2.587-1.553,3.635
			c-10.12,10.061-20.186,20.173-30.311,30.225c-1.018,1.012-1.439,2.027-1.43,3.46c0.055,9.363,0.036,18.729,0.017,28.094
			c-0.002,1.126-0.207,2.249-0.196,3.371c0.007,0.593,0.215,1.206,0.433,1.771c2.561,6.62-2.294,13.638-9.38,13.428
			c-4.076-0.118-7.091-2.131-8.731-5.848c-1.64-3.719-1.119-7.316,1.552-10.393c2.667-3.073,6.105-4.047,10.064-3.033
			c0.774,0.199,1.521,0.524,2.481,0.859c0.04-0.779,0.101-1.435,0.101-2.088c0.006-9.179,0.036-18.357-0.026-27.535
			c-0.011-1.568,0.438-2.696,1.558-3.812c10.129-10.05,20.187-20.171,30.317-30.221c1.033-1.022,1.437-2.044,1.398-3.464
			c-0.084-3.076-0.003-6.154-0.047-9.236c-0.01-0.591-0.081-1.359-0.443-1.732c-2.827-2.934-5.732-5.783-8.83-8.878
			c-0.095,0.671-0.197,1.062-0.197,1.449c0.001,1.888-0.039,3.779,0.07,5.656c0.105,1.844-0.576,3.223-1.874,4.508
			c-11.319,11.26-22.597,22.562-33.89,33.851c-1.778,1.777-3.517,3.598-5.351,5.314c-0.852,0.801-1.167,1.645-1.162,2.807
			c0.042,9.681-0.017,19.361,0.056,29.038c0.017,2.11-0.612,3.702-2.136,5.171c-4.157,4.017-8.181,8.175-12.309,12.229
			c-0.84,0.821-1.164,1.572-0.966,2.786c1.629,9.944-5.16,18.761-15.188,19.826c-9.076,0.962-17.782-6.258-18.442-15.298
			c-0.547-7.479,3.137-13.965,9.69-17.064c6.507-3.076,13.871-1.758,19.314,3.455c0.18,0.173,0.369,0.341,0.646,0.598
			c0.372-0.309,0.768-0.58,1.102-0.917c3.252-3.237,6.473-6.505,9.751-9.715c0.783-0.766,1.091-1.554,1.087-2.643
			c-0.036-9.802,0.012-19.612-0.049-29.418c-0.013-1.906,0.598-3.326,1.947-4.665c13.013-12.947,25.971-25.947,38.981-38.896
			c0.968-0.96,1.358-1.904,1.341-3.285c-0.199-16.907-0.331-33.812-0.479-50.719c-0.007-0.942,0-1.877,0-2.862
			c-8.784-2.886-13.732-8.66-13.328-18.046c0.307-7.131,5.319-13.389,13.357-15.451c0.032-0.852,0.157-1.777,0.085-2.681
			c-0.15-1.92,0.606-3.335,1.947-4.673c14.521-14.46,28.999-28.962,43.503-43.434c0.531-0.533,1.204-0.919,1.704-1.29
			c-5.713-10.856-0.493-22.6,10.903-25.803c0-0.612,0-1.285,0-1.956c0-7.293,0.057-14.586-0.034-21.877
			c-0.027-2.107,0.602-3.684,2.109-5.173c7.788-7.68,15.476-15.46,23.25-23.156c1.066-1.055,1.474-2.113,1.474-3.62
			c-0.04-81.531-0.039-163.06-0.005-244.587c0.001-1.505-0.422-2.558-1.499-3.611c-5.209-5.102-10.311-10.315-15.508-15.426
			c-1.584-1.555-2.379-3.259-2.323-5.514c0.105-4.209,0.019-8.422,0.038-12.633c0.004-0.959-0.065-1.814-0.755-2.616
			c-0.946-1.102-1.035-2.511-1.033-3.922c0.011-8.799,0.006-17.601,0.006-26.401c0-6.601,0-13.2,0-19.801c0-0.682,0-1.361,0-2.309
			c4.956-0.029,9.745-0.01,14.745-0.013c0,0.896,0,1.568,0,2.244c0,15.462-0.011,30.925,0.015,46.389
			c0.002,1.699-0.274,3.219-1.451,4.537c-0.331,0.37-0.488,1.01-0.496,1.53c-0.041,3.457,0.016,6.915-0.046,10.371
			c-0.018,1.006,0.44,1.619,1.085,2.262c5.304,5.276,10.552,10.606,15.897,15.838c1.596,1.562,2.465,3.283,2.34,5.509
			c-0.035,0.626,0,1.257,0,1.885c0,94.226,0.006,188.454-0.037,282.682c-0.003,1.847,0.543,3.137,1.85,4.424
			c7.921,7.813,15.74,15.729,23.651,23.558c1.634,1.617,2.431,3.391,2.337,5.701c-0.115,2.696,0.033,5.405-0.056,8.104
			c-0.044,1.301,0.365,2.214,1.288,3.128c12.43,12.373,24.823,24.782,37.226,37.181c1.334,1.333,2.614,2.723,4.017,3.984
			c1.415,1.274,1.961,2.75,1.954,4.666c-0.059,12.823-0.031,25.645-0.031,38.469c0,0.751,0,1.497,0,2.343
			c0.61,0.28,1.177,0.521,1.723,0.802c5.818,2.985,9.172,7.669,9.69,14.245c0.078,0.945,0.371,1.631,1.041,2.295
			c5.307,5.271,10.6,10.56,15.862,15.874c0.723,0.731,1.465,1.014,2.481,1.008c5.471-0.041,10.938,0.023,16.404-0.044
			c1.77-0.023,3.102,0.544,4.343,1.802c6.809,6.883,13.65,13.729,20.543,20.528c1.318,1.305,1.842,2.705,1.832,4.525
			c-0.049,9.741,0,19.487-0.049,29.229c-0.005,1.294,0.343,2.229,1.271,3.143c4.709,4.625,9.354,9.314,14.024,13.976
			c0.396,0.396,0.821,0.757,1.199,1.106c9.834-3.951,18.154-1.822,22.962,5.819c4.398,6.985,3.138,16.047-3.011,21.655
			c-5.986,5.461-15.233,5.85-21.703,0.903c-7.136-5.453-8.545-13.894-3.783-23.3c-0.424-0.444-0.887-0.937-1.363-1.413
			c-5.064-5.067-10.11-10.155-15.218-15.184c-1.261-1.238-1.805-2.591-1.793-4.353c0.045-9.805,0-19.614,0.047-29.416
			c0.004-1.299-0.363-2.218-1.289-3.132c-5.815-5.74-11.591-11.521-17.337-17.332c-0.822-0.831-1.653-1.16-2.812-1.149
			c-5.345,0.049-10.69-0.03-16.03,0.049c-1.898,0.026-3.352-0.552-4.686-1.917c-4.441-4.536-8.968-8.988-13.443-13.49
			c-0.483-0.485-0.873-1.072-1.458-1.802c-3.199,5.03-7.442,7.889-13.124,8.697c0,3.046-0.02,5.99,0.025,8.935
			c0.005,0.387,0.294,0.801,0.546,1.133c0.299,0.396,0.696,0.721,1.051,1.074c13.871,13.867,27.729,27.746,41.634,41.577
			c1.21,1.201,1.801,2.416,1.695,4.129c-0.127,2.122-0.031,4.26-0.031,6.557c3.412,0.688,6.107,2.35,7.697,5.488
			c1.041,2.042,1.247,4.221,0.794,6.426c-0.941,4.547-4.987,7.757-9.639,7.754c-4.655-0.002-8.566-3.177-9.605-7.791
			c-1.094-4.843,1.312-8.928,7.033-11.678c0-2.314,0.028-4.746-0.031-7.177c-0.008-0.376-0.354-0.776-0.625-1.098
			c-0.4-0.481-0.873-0.902-1.319-1.347c-13.775-13.779-27.543-27.571-41.362-41.31c-1.18-1.169-1.68-2.351-1.622-3.986
			c0.104-2.819,0.029-5.645,0.029-8.514c-9.376-2.177-14.875-7.679-15.081-17.537c-0.091-4.251,1.592-7.972,4.461-11.106
			c2.814-3.073,6.375-4.808,10.596-5.421c0-0.711,0-1.271,0-1.822c0-12.071-0.014-24.138,0.018-36.206
			c0.007-1.147-0.275-1.984-1.116-2.819c-11.454-11.394-22.864-22.828-34.292-34.247c-0.396-0.391-0.817-0.753-1.253-1.154
			c-0.428,1.346-0.553,31.392-0.161,34.124c0.465,0,0.947,0.039,1.423-0.004c12.926-1.253,24.102,9.463,23.389,22.442
			c-0.601,10.882-9.025,19.543-19.621,20.395c-11.165,0.897-20.939-6.717-22.951-17.3c-1.355-7.136,0.523-13.458,5.454-18.803
			c0.788-0.854,1.114-1.648,1.111-2.811c-0.04-18.54-0.042-37.084,0-55.628c0.003-1.431-0.393-2.451-1.422-3.456
			c-4.586-4.484-9.089-9.044-13.628-13.578c-0.432-0.428-0.891-0.829-1.639-1.521c-0.034,1.036-0.073,1.696-0.073,2.36
			c-0.006,37.275,0.002,74.55-0.03,111.828c0,1.294,0.388,2.215,1.3,3.127c12.531,12.537,25.007,25.128,37.557,37.649
			c1.579,1.575,2.365,3.188,2.307,5.466c-0.139,5.464,0.009,10.938-0.076,16.406c-0.025,1.566,0.413,2.675,1.543,3.795
			c11.689,11.601,23.301,23.278,34.993,34.877c1.317,1.308,1.904,2.619,1.834,4.468c-0.129,3.389-0.037,6.783-0.037,10.086
			c0.664,0.391,1.348,0.637,1.819,1.096c3.095,3.035,6.13,6.139,9.226,9.174c0.784,0.769,1.094,1.588,1.083,2.671
			c-0.041,4.338,0,8.678-0.032,13.014c-0.007,0.875,0.225,1.533,0.86,2.163c8.552,8.512,17.083,17.052,25.623,25.583
			c0.131,0.129,0.287,0.234,0.598,0.487c2.631-2.127,5.666-3.039,9.06-2.184c2.272,0.574,4.115,1.852,5.503,3.741
			c2.683,3.662,2.465,8.794-0.503,12.222c-3.051,3.521-8.12,4.443-12.175,2.213c-4.483-2.468-6.044-7.073-4.247-12.884
			c-0.392-0.421-0.834-0.926-1.312-1.402c-8.535-8.533-17.055-17.079-25.622-25.583c-1.058-1.048-1.57-2.118-1.539-3.632
			c0.088-4.146,0.002-8.301,0.048-12.446c0.011-0.956-0.259-1.652-0.948-2.321c-2.379-2.302-4.701-4.666-7.109-7.07
			c-0.395,1.535-0.523,75.33-0.164,78.214c2.919,0.751,5.333,2.312,6.824,5.08c1.148,2.136,1.42,4.411,0.935,6.769
			c-0.914,4.475-5.004,7.708-9.684,7.686c-4.813-0.023-8.77-3.389-9.627-8.194c-0.895-5,1.808-9.094,7.659-11.397
			c0-0.6,0-1.277,0-1.959c0-30.105-0.006-60.216,0.033-90.326c0-1.381-0.33-2.396-1.388-3.279c-0.898-0.744-1.683-1.63-2.853-2.786
			c-0.043,1.147-0.09,1.863-0.09,2.579c-0.005,13.137-0.036,26.273,0.031,39.412c0.009,1.783-0.517,3.076-1.809,4.297
			c-2.788,2.629-5.449,5.396-8.155,8.108c-0.441,0.439-0.859,0.903-1.261,1.326c2.931,6.251,2.25,10.896-2.013,14.068
			c-3.785,2.815-9.027,2.556-12.505-0.621c-3.491-3.188-4.237-8.374-1.786-12.391c2.723-4.463,7.442-5.739,13.313-3.535
			c0.38-0.343,0.805-0.701,1.197-1.091c2.759-2.753,5.499-5.524,8.28-8.253c0.667-0.66,1.026-1.32,1.024-2.3
			c-0.029-14.711-0.027-29.42-0.005-44.125c0-0.875-0.225-1.54-0.86-2.17c-8.249-8.196-16.473-16.419-24.713-24.625
			c-0.203-0.204-0.463-0.352-0.888-0.67c0,12.696,0,25.159,0,37.739c4.277,1.279,7.635,3.736,9.601,7.841
			c1.436,2.99,1.788,6.111,1.071,9.368c-1.391,6.354-7.132,11.031-13.705,11.124c-6.762,0.097-12.576-4.277-14.184-10.733
			c-0.92-3.691-0.489-7.241,1.374-10.578c1.608-2.88,3.211-4.195,8.374-6.929c0-0.608,0-1.29,0-1.972
			c0-19.422-0.014-38.847,0.028-58.271c0.003-1.376-0.409-2.327-1.38-3.285c-5.806-5.746-11.548-11.563-17.318-17.352
			c-0.426-0.427-0.885-0.819-1.544-1.428c0,11.447,0,22.593,0,33.874c3.057,0.842,5.526,2.552,6.927,5.542
			c0.97,2.062,1.191,4.215,0.656,6.435c-1.097,4.551-5.127,7.675-9.773,7.584c-4.67-0.091-8.708-3.557-9.512-8.164
			c-0.879-5.055,1.766-9.025,7.851-11.534c0-0.565,0-1.236,0-1.902c0-10.751-0.003-21.499,0.008-32.248
			c0.003-1.051,0.117-2.105,0.18-3.216c-3.136-3.092-6.351-6.254-9.656-9.511c-0.069,0.355-0.197,0.733-0.208,1.113
			c-0.026,1.192-0.061,2.39,0,3.58c0.114,2.229-0.704,3.97-2.291,5.537c-6.932,6.847-13.777,13.784-20.71,20.628
			c-1.152,1.135-1.686,2.263-1.669,3.918c0.087,8.425,0.068,16.849,0.012,25.271c-0.01,1.297,0.354,2.216,1.278,3.13
			c6.792,6.72,13.505,13.521,20.315,20.225c1.369,1.346,1.917,2.768,1.906,4.668c-0.062,10.871-0.012,21.749-0.054,32.625
			c-0.006,1.228,0.354,2.097,1.226,2.966c11.582,11.529,23.119,23.111,34.714,34.625c1.258,1.251,1.802,2.526,1.79,4.308
			c-0.067,10.874-0.033,21.75-0.033,32.623c0,0.688,0,1.372,0,2.125c3.693,1.234,6.519,3.399,8.149,6.907
			c1.236,2.657,1.506,5.425,0.812,8.28c-1.384,5.715-6.688,9.677-12.699,9.482c-5.59-0.181-10.635-4.417-11.698-9.902
			c-0.661-3.415-0.106-6.629,1.845-9.556C339.74,718.365,342.478,716.706,345.902,715.811z M346.245,472.828
			c-5.803-0.002-10.398,4.57-10.415,10.356c-0.014,5.789,4.58,10.457,10.315,10.482c5.851,0.026,10.547-4.646,10.533-10.477
			C356.664,477.439,352.022,472.828,346.245,472.828z M254.349,714.67c-5.735,0.013-10.42,4.686-10.434,10.41
			c-0.016,5.746,4.619,10.418,10.369,10.459c5.836,0.041,10.574-4.683,10.524-10.489
			C264.758,719.299,260.084,714.659,254.349,714.67z M212.947,487.043c-0.024,5.309,4.22,9.62,9.508,9.65
			c5.317,0.033,9.662-4.188,9.729-9.447c0.066-5.337-4.301-9.78-9.622-9.784C217.309,477.457,212.972,481.777,212.947,487.043z
			 M486.121,618.455c-5.311-0.03-9.604,4.172-9.688,9.482c-0.083,5.325,4.297,9.765,9.633,9.756
			c5.258-0.006,9.572-4.327,9.598-9.607C495.688,622.812,491.403,618.485,486.121,618.455z M152.462,667.966
			c5.327,0.034,9.62-4.177,9.663-9.477c0.043-5.39-4.276-9.775-9.61-9.767c-5.223,0.013-9.605,4.39-9.624,9.618
			C142.873,663.591,147.188,667.927,152.462,667.966z M310.923,712.388c5.263-0.023,9.563-4.354,9.563-9.631
			c-0.002-5.278-4.294-9.589-9.577-9.607c-5.35-0.02-9.713,4.365-9.665,9.717C301.293,708.125,305.648,712.409,310.923,712.388z
			 M280.897,399.704c-5.309-0.028-9.621,4.172-9.717,9.468c-0.096,5.271,4.352,9.771,9.656,9.765
			c5.25-0.005,9.579-4.345,9.592-9.612C290.439,404.014,286.198,399.728,280.897,399.704z M372.017,520.976
			c0.039,5.276,4.378,9.59,9.632,9.564c5.225-0.023,9.6-4.402,9.616-9.627c0.022-5.311-4.419-9.675-9.773-9.616
			C376.188,511.355,371.977,515.654,372.017,520.976z M348.162,719.388c-4.819,0.047-8.765,4.024-8.743,8.813
			c0.021,4.886,4.044,8.803,8.98,8.742c4.808-0.058,8.695-4.057,8.637-8.883C356.976,723.266,352.957,719.336,348.162,719.388z
			 M352.886,621.105c-3.822-0.023-6.983,3.072-7.029,6.888c-0.045,3.777,3.127,7.006,6.907,7.038
			c3.805,0.033,6.966-3.086,6.997-6.915C359.79,624.264,356.72,621.132,352.886,621.105z M275.02,506.936
			c3.363,0.021,6.136-2.66,6.199-5.997c0.063-3.399-2.75-6.225-6.182-6.21c-3.35,0.016-6.095,2.761-6.106,6.101
			C268.921,504.175,271.653,506.912,275.02,506.936z M253.602,616.712c3.345-0.018,6.102-2.78,6.097-6.104
			c-0.006-3.35-2.731-6.087-6.086-6.111c-3.433-0.021-6.272,2.815-6.204,6.195C247.477,614.044,250.241,616.733,253.602,616.712z
			 M289.414,489.948c3.39,0.011,6.122-2.698,6.136-6.082c0.013-3.383-2.705-6.111-6.098-6.118c-3.4-0.008-6.129,2.692-6.144,6.079
			C283.293,487.205,286.016,489.938,289.414,489.948z M392.728,708.264c-3.332-0.048-6.144,2.662-6.229,5.996
			c-0.081,3.381,2.753,6.29,6.141,6.29c3.302,0,6.116-2.798,6.147-6.108C398.821,711.141,396.045,708.309,392.728,708.264z
			 M433.347,611.121c0.017-3.363-2.685-6.137-6.019-6.185c-3.33-0.048-6.134,2.675-6.192,6.012c-0.061,3.44,2.716,6.29,6.117,6.288
			C430.577,617.231,433.332,614.469,433.347,611.121z M361.118,668.237c0.031,3.385,2.782,6.083,6.168,6.051
			c3.378-0.035,6.066-2.792,6.035-6.183c-0.033-3.403-2.77-6.083-6.168-6.044C363.751,662.099,361.089,664.82,361.118,668.237z
			 M320.394,575.385c0,3.399,2.706,6.126,6.083,6.133c3.371,0.007,6.11-2.729,6.116-6.108c0.003-3.4-2.703-6.12-6.096-6.126
			C323.1,569.276,320.394,571.983,320.394,575.385z M446.205,683.162c-0.002-3.358-2.726-6.12-6.056-6.142
			c-3.313-0.025-6.124,2.739-6.17,6.062c-0.042,3.401,2.807,6.279,6.176,6.247C443.476,689.29,446.209,686.506,446.205,683.162z
			 M231.82,656.708c0.033,3.356,2.785,6.069,6.135,6.055c3.374-0.015,6.078-2.72,6.089-6.089c0.01-3.454-2.768-6.202-6.217-6.146
			C234.481,650.582,231.784,653.355,231.82,656.708z M197.905,642.163c-3.418-0.018-6.113,2.643-6.136,6.059
			c-0.021,3.411,2.651,6.133,6.048,6.15c3.399,0.017,6.128-2.671,6.147-6.063C203.984,644.906,201.3,642.183,197.905,642.163z
			 M206.111,670.444c-0.042,3.412,2.616,6.151,6.007,6.192c3.428,0.043,6.146-2.593,6.19-6.003c0.046-3.417-2.607-6.156-6-6.195
			C208.896,664.396,206.153,667.056,206.111,670.444z"/>
		<path fill="#010101" d="M183.782,551.53c0,0.837,0,1.581,0,2.329c0,8.422-0.032,16.845,0.027,25.266
			c0.012,1.577-0.494,2.71-1.604,3.812c-9.324,9.254-18.589,18.57-27.908,27.831c-1.003,0.998-1.472,1.889-1.246,3.423
			c0.743,5.034-2.949,9.877-7.93,10.692c-5.24,0.858-10.183-2.347-11.345-7.355c-0.98-4.236,0.792-8.512,4.453-10.74
			c3.703-2.254,8.208-1.857,11.562,1.027c0.331,0.286,0.646,0.589,1.067,0.973c0.442-0.384,0.873-0.719,1.253-1.103
			c8.938-8.926,17.87-17.862,26.814-26.786c0.684-0.686,1.178-1.338,1.172-2.425c-0.049-8.738-0.028-17.474-0.032-26.214
			c0-0.307-0.04-0.615-0.067-1.038c-0.586-0.194-1.166-0.388-1.745-0.58c-6.904-2.345-11.128-7.109-11.952-14.334
			c-0.833-7.302,2.21-12.996,8.57-16.726c1.314-0.772,1.815-1.514,1.811-3.032c-0.06-15.087-0.036-30.173-0.036-45.262
			c0-0.606,0-1.215,0-1.82c-0.126-0.062-0.252-0.125-0.379-0.186c-1.168,1.167-2.406,2.277-3.468,3.535
			c-0.338,0.401-0.278,1.19-0.281,1.804c-0.018,5.405-0.011,10.811-0.012,16.216c0,6.601-0.025,13.197,0.022,19.8
			c0.009,1.294-0.36,2.263-1.297,3.162c-2.49,2.396-4.883,4.896-7.363,7.307c-0.735,0.711-1.034,1.449-1.029,2.476
			c0.038,6.916,0.04,13.829-0.002,20.742c-0.007,1.094,0.337,1.872,1.115,2.636c3.413,3.34,6.748,6.761,10.166,10.1
			c0.968,0.947,1.489,1.95,1.407,3.322c-0.078,1.313-0.07,2.64-0.002,3.958c0.065,1.29-0.328,2.286-1.3,3.166
			c-1.765,1.604-3.453,3.288-5.2,4.968c1.557,3.133,1.995,6.152,0.665,9.259c-0.928,2.163-2.445,3.785-4.53,4.864
			c-4.116,2.133-9.174,1.08-12.12-2.514c-3.003-3.662-2.994-8.856,0.02-12.515c3.215-3.9,8.215-4.58,13.499-1.683
			c1.613-1.625,3.328-3.264,4.917-5.018c0.342-0.38,0.233-1.176,0.328-1.781c0.325-2.093-0.406-3.635-2.003-5.102
			c-3.192-2.93-6.144-6.12-9.253-9.142c-0.972-0.947-1.425-1.933-1.416-3.31c0.052-7.67,0.049-15.338,0.002-23.005
			c-0.009-1.363,0.385-2.379,1.376-3.323c2.496-2.391,4.893-4.886,7.357-7.309c0.617-0.606,0.946-1.223,0.944-2.129
			c-0.03-10.563-0.019-21.124-0.021-31.683c0-0.244-0.042-0.487-0.083-0.951c-0.445,0.311-0.81,0.491-1.082,0.764
			c-4.721,4.702-9.406,9.438-14.164,14.104c-0.833,0.82-0.925,1.683-0.924,2.712c0.011,19.359-0.017,38.719,0.044,58.078
			c0.008,2.047-0.568,3.54-2.037,4.985c-6.996,6.868-13.893,13.842-20.84,20.759c-0.487,0.485-1.112,0.824-1.63,1.202
			c2.073,4.931,2.259,9.517,0.162,14.06c-1.615,3.496-4.188,6.089-7.663,7.75c-6.982,3.335-15.315,1.233-19.894-4.987
			c-4.63-6.287-4.101-14.95,1.302-20.604c3.101-3.244,6.922-4.912,11.421-5.005c4.43-0.095,8.186,1.581,11.476,4.47
			c0.41-0.369,0.742-0.654,1.052-0.962c6.669-6.661,13.327-13.337,20.017-19.985c0.721-0.714,1.043-1.437,1.042-2.463
			c-0.028-18.547-0.02-37.089-0.022-55.633c0-0.436-0.039-0.871-0.063-1.376c-0.238-0.085-0.461-0.225-0.687-0.229
			c-3.08-0.019-6.159-0.045-9.239,0.005c-0.507,0.007-1.138,0.233-1.49,0.582c-5.356,5.309-10.675,10.658-15.998,15.999
			c-0.083,0.084-0.113,0.223-0.218,0.438c1.377,3.726,1.524,7.528-0.274,11.258c-1.389,2.88-3.56,5.007-6.455,6.355
			c-5.81,2.707-12.708,0.899-16.5-4.293c-3.783-5.186-3.361-12.304,1.008-17.013c4.843-5.216,11.299-5.641,18.796-1.115
			c0.445-0.427,0.938-0.882,1.414-1.354c4.893-4.884,9.807-9.75,14.652-14.684c1.229-1.253,2.52-1.878,4.316-1.824
			c3.643,0.109,7.291,0.013,10.936,0.05c0.881,0.009,1.531-0.246,2.16-0.876c8.786-8.818,17.589-17.617,26.403-26.404
			c0.614-0.613,0.966-1.238,0.938-2.138c-0.055-1.87-0.016-3.745-0.016-5.747c-0.742-0.058-1.288-0.131-1.834-0.133
			c-2.765-0.016-5.53,0.032-8.297-0.026c-1.089-0.021-1.881,0.315-2.65,1.089c-4.816,4.875-9.707,9.675-14.501,14.573
			c-1.096,1.117-2.21,1.622-3.795,1.599c-5.468-0.086-10.938-0.034-16.406-0.034c-0.678,0-1.357,0-2.17,0
			c0,0.787-0.007,1.394,0,1.995c0.059,4.836-3.224,8.928-7.93,9.884c-4.494,0.914-9.123-1.529-10.951-5.785
			c-1.858-4.325-0.396-9.352,3.503-12.028c3.875-2.664,9.013-2.215,12.427,1.199c0.796,0.799,1.581,1.051,2.648,1.042
			c5.972-0.036,11.944-0.045,17.915,0.009c1.171,0.011,1.984-0.362,2.798-1.182c4.768-4.834,9.627-9.578,14.358-14.444
			c1.165-1.197,2.357-1.646,3.979-1.603c3.515,0.091,7.033,0.028,10.655,0.028c0.449-1.545,0.236-3.014,0.147-4.601
			c-0.477-0.059-0.893-0.153-1.308-0.156c-3.583-0.013-7.166,0.024-10.749-0.027c-0.966-0.016-1.646,0.293-2.312,0.975
			c-3.173,3.223-6.422,6.379-9.573,9.627c-1.001,1.033-2.052,1.51-3.492,1.424c-1.752-0.102-3.513-0.021-5.41-0.021
			c-1.029,3.212-2.897,5.703-6.101,6.965c-2.187,0.863-4.418,0.908-6.648,0.196c-4.478-1.433-7.244-5.821-6.691-10.565
			c0.528-4.521,4.174-8.13,8.691-8.596c4.101-0.423,9.22,1.743,10.832,8.26c1.729,0,3.535,0.075,5.327-0.046
			c0.526-0.036,1.083-0.561,1.51-0.981c3.176-3.134,6.353-6.274,9.46-9.476c0.995-1.022,2.039-1.495,3.484-1.465
			c3.707,0.082,7.418-0.043,11.125,0.061c1.499,0.041,2.511-0.405,3.574-1.492c5.935-6.066,11.969-12.03,17.969-18.033
			c0.439-0.438,0.859-0.899,1.461-1.527c-1.183-0.389-2.236-0.078-3.229-0.233c-2.4-0.377-4.076,0.611-5.72,2.341
			c-4.332,4.549-8.873,8.906-13.28,13.385c-0.912,0.927-1.865,1.312-3.159,1.292c-4.023-0.064-8.046-0.023-12.07-0.023
			c-0.623,0-1.248,0-2.027,0c-0.417,3.533-1.837,6.437-4.933,8.285c-1.894,1.13-3.95,1.608-6.146,1.326
			c-4.781-0.617-8.221-4.191-8.708-9.006c-0.445-4.42,2.464-8.736,6.833-10.143c4.813-1.546,9.036,0.397,12.261,5.721
			c0.483,0.03,1.038,0.084,1.592,0.086c3.961,0.007,7.922-0.034,11.879,0.026c1.161,0.02,1.988-0.311,2.81-1.147
			c4.762-4.836,9.607-9.591,14.366-14.436c1.005-1.02,2.039-1.49,3.484-1.442c2.888,0.093,5.783-0.002,8.673,0.043
			c0.944,0.015,1.644-0.237,2.329-0.926c9.758-9.799,19.536-19.579,29.34-29.331c0.744-0.74,0.967-1.506,0.961-2.502
			c-0.033-4.901,0.037-9.807-0.043-14.708c-0.029-1.773,0.53-3.116,1.788-4.352c4.84-4.759,9.618-9.581,14.417-14.384
			c0.476-0.476,0.931-0.976,1.599-1.683c-0.73-0.069-1.192-0.151-1.655-0.151c-6.789-0.008-13.578,0.016-20.367-0.026
			c-1.09-0.005-1.869,0.314-2.639,1.092c-4.634,4.697-9.306,9.362-14.001,13.998c-0.727,0.721-1.052,1.451-1.024,2.478
			c0.062,2.313,0.02,4.628,0.02,7.087c0.736-0.149,1.271-0.27,1.809-0.371c5.593-1.029,10.841,2.554,11.732,8.009
			c0.888,5.446-2.73,10.521-8.276,11.351c-4.028,0.606-7.349-0.876-9.608-4.254c-2.309-3.451-2.324-7.105-0.141-10.651
			c0.585-0.949,0.84-1.781,0.797-2.919c-0.122-3.324-0.023-6.661-0.057-9.992c-0.01-0.888,0.305-1.562,0.916-2.174
			c5.475-5.46,10.95-10.918,16.396-16.407c0.791-0.798,1.68-0.962,2.728-0.96c8.485,0.021,16.973-0.061,25.457,0.064
			c2.042,0.032,2.991-1.053,4.196-2.581c-0.738-0.04-1.217-0.086-1.694-0.086c-10.057-0.005-20.115,0.006-30.171-0.021
			c-0.943-0.002-1.646,0.239-2.327,0.928c-9.373,9.471-18.773,18.916-28.164,28.369c-0.266,0.27-0.509,0.554-0.869,0.944
			c1.566,2.839,2.081,5.846,0.869,8.986c-0.847,2.193-2.31,3.867-4.357,5.023c-4.027,2.273-9.161,1.406-12.199-2.053
			c-3.08-3.508-3.304-8.607-0.546-12.364c3.068-4.177,7.775-5.027,13.605-2.385c0.458-0.439,0.962-0.898,1.442-1.383
			c9.307-9.362,18.628-18.708,27.889-28.113c1.2-1.218,2.435-1.715,4.141-1.707c11.566,0.061,23.131,0.016,34.697,0.056
			c1.227,0.005,2.1-0.343,2.962-1.223c4.853-4.925,9.747-9.808,14.668-14.665c0.861-0.848,1.269-1.696,1.269-2.945
			c-0.03-72.602-0.03-145.204-0.002-217.804c0-1.234-0.371-2.097-1.237-2.959c-9.095-9.039-18.137-18.133-27.243-27.161
			c-1.302-1.292-1.934-2.653-1.888-4.493c0.088-3.581-0.006-7.166,0.044-10.748c0.017-1.215-0.188-2.067-1.4-2.747
			c-1.815-1.019-2.637-2.718-2.633-4.878c0.032-15.903,0.018-31.807,0.021-47.71c0-0.374,0.04-0.747,0.058-1.107
			c1.318-0.41,11.94-0.521,14.533-0.147c0.042,0.452,0.127,0.935,0.127,1.417c0.005,15.778-0.009,31.554,0.02,47.332
			c0.004,2.127-0.739,3.817-2.477,4.994c-0.732,0.496-0.92,1.069-0.912,1.884c0.028,3.206,0.066,6.413-0.017,9.617
			c-0.031,1.182,0.369,1.978,1.185,2.79c8.916,8.864,17.757,17.803,26.722,26.616c1.761,1.732,2.472,3.533,2.468,5.974
			c-0.049,49.596-0.036,99.192-0.036,148.787c0,23.948-0.022,47.896,0.035,71.847c0.006,2.308-0.67,4.011-2.327,5.654
			c-13.88,13.768-27.673,27.622-41.528,41.411c-1.02,1.015-1.448,2.033-1.425,3.464c0.078,4.713-0.017,9.429,0.05,14.144
			c0.028,1.832-0.594,3.206-1.891,4.502c-17.676,17.614-35.305,35.276-52.983,52.891c-1.063,1.06-1.517,2.1-1.513,3.611
			c0.045,22.627,0.032,45.257,0.032,67.887c0,0.744,0,1.488,0,2.373c5.494,0.612,9.962,2.864,13.118,7.359
			c2.329,3.313,3.267,7.017,3.021,11.049C199.631,543.879,193.774,549.641,183.782,551.53z M103.13,587.067
			c0.029,5.839,4.751,10.537,10.554,10.51c5.786-0.03,10.538-4.819,10.516-10.589c-0.022-5.79-4.798-10.514-10.596-10.483
			C107.762,576.53,103.1,581.232,103.13,587.067z M192.773,534.451c0.054-5.262-4.2-9.621-9.485-9.707
			c-5.317-0.089-9.766,4.303-9.758,9.633c0.008,5.268,4.32,9.589,9.59,9.605C188.404,544.004,192.719,539.744,192.773,534.451z
			 M106.96,509.384c-4.384-0.032-7.92,3.462-7.922,7.828c-0.004,4.368,3.52,7.871,7.904,7.862c4.268-0.011,7.779-3.476,7.851-7.75
			C114.867,512.999,111.331,509.414,106.96,509.384z M133.969,461.327c3.362,0.015,6.132-2.688,6.172-6.022
			c0.044-3.359-2.643-6.131-5.997-6.183c-3.452-0.056-6.288,2.701-6.277,6.103C127.876,458.574,130.609,461.306,133.969,461.327z
			 M179.352,377.982c-0.039,3.367,2.625,6.146,5.977,6.236c3.31,0.084,6.145-2.641,6.22-5.981c0.075-3.469-2.639-6.303-6.058-6.315
			C182.146,371.91,179.389,374.631,179.352,377.982z M208.751,382.668c0.004,3.376,2.752,6.128,6.117,6.121
			c3.364-0.006,6.085-2.752,6.085-6.141c0-3.397-2.726-6.13-6.104-6.119C211.472,376.542,208.75,379.285,208.751,382.668z
			 M142.104,437.393c0.05,3.315,2.866,6.076,6.179,6.061c3.3-0.02,6.119-2.838,6.13-6.13c0.012-3.353-2.953-6.253-6.293-6.163
			C144.788,431.251,142.056,434.083,142.104,437.393z M143.333,609.062c-3.324,0.016-6.112,2.785-6.134,6.099
			c-0.024,3.376,2.89,6.258,6.252,6.182c3.331-0.075,6.073-2.895,6.033-6.208C149.444,611.801,146.662,609.055,143.333,609.062z
			 M154.518,577.765c-0.042,3.345,2.647,6.119,6.006,6.19c3.439,0.073,6.262-2.696,6.248-6.131
			c-0.011-3.345-2.751-6.094-6.092-6.112C157.343,571.696,154.56,574.43,154.518,577.765z M111.063,473.242
			c-0.021,3.419,2.643,6.115,6.06,6.133c3.415,0.017,6.126-2.653,6.145-6.055c0.018-3.404-2.669-6.122-6.065-6.14
			C113.793,467.161,111.086,469.839,111.063,473.242z"/>
		<path fill="#010101" d="M445.333,396.363c4.435-2.807,8.818-3.722,13.523-2.492c3.856,1.004,6.938,3.182,9.211,6.465
			c4.468,6.447,3.579,15.244-2.08,20.687c-5.705,5.496-14.616,6.012-20.915,1.247c-5.705-4.321-9.03-13.18-3.547-22.054
			c-0.355-0.391-0.714-0.82-1.106-1.213c-9.109-9.113-18.229-18.214-27.322-27.347c-0.849-0.854-1.695-1.294-2.951-1.277
			c-5.908,0.067-11.818,0.029-17.726,0.029c-0.546,0-1.093,0-1.639,0c-0.062,0.124-0.125,0.247-0.188,0.372
			c0.443,0.471,0.877,0.951,1.335,1.411c6.265,6.271,12.503,12.564,18.822,18.776c1.454,1.426,2.12,2.934,2.1,4.992
			c-0.085,8.36-0.016,16.719-0.059,25.077c-0.004,1.156,0.312,1.982,1.144,2.811c7.811,7.748,15.591,15.521,23.337,23.335
			c0.88,0.887,1.776,1.188,2.985,1.185c10.057-0.037,20.114,0.034,30.172-0.062c2.139-0.02,3.664,0.673,5.135,2.17
			c6.166,6.277,12.427,12.464,18.64,18.695c0.482,0.485,0.855,1.087,1.252,1.601c4.894-2.352,9.587-2.783,14.384-0.983
			c3.856,1.447,6.794,4.012,8.814,7.588c4.057,7.181,2.321,16.234-4.081,21.48c-6.377,5.229-15.601,5.099-21.863-0.272
			c-5.485-4.702-8.668-13.906-2.675-22.987c-0.337-0.386-0.683-0.815-1.072-1.208c-5.815-5.826-11.658-11.633-17.446-17.482
			c-0.865-0.876-1.743-1.236-2.977-1.229c-9.991,0.045-19.987,0.015-29.98,0.029c-1.791,0.003-3.561,0.048-4.961-1.854
			c-0.123,0.768-0.237,1.171-0.237,1.57c-0.009,7.291,0.007,14.584-0.026,21.879c-0.002,0.958,0.297,1.644,0.97,2.318
			c7.354,7.311,14.69,14.643,22.003,21.998c0.723,0.729,1.46,1.028,2.485,1.024c5.72-0.043,11.441,0.023,17.16-0.047
			c1.56-0.026,2.698,0.405,3.814,1.535c8.67,8.754,17.384,17.462,26.135,26.133c1.119,1.111,1.724,2.237,1.558,3.815
			c-0.091,0.858-0.017,1.741-0.017,2.729c5.398,0.938,9.594,3.524,12.263,8.278c1.954,3.483,2.486,7.213,1.705,11.122
			c-1.519,7.577-8.738,13.184-16.438,12.782c-8.282-0.427-14.72-6.647-15.39-15.05c-0.541-6.806,3.657-15.148,13.947-17.077
			c0.359-1.857,0.357-3.434-1.27-5.026c-8.181-7.996-16.233-16.121-24.292-24.24c-0.915-0.924-1.836-1.312-3.13-1.301
			c-5.721,0.058-11.442-0.005-17.162,0.052c-1.363,0.009-2.365-0.421-3.321-1.39c-7.755-7.8-15.533-15.58-23.342-23.328
			c-0.965-0.962-1.382-1.959-1.372-3.326c0.045-8.734-0.086-17.475,0.09-26.206c0.05-2.491-1.519-3.417-2.799-4.771
			c-0.145,0.046-0.288,0.089-0.432,0.13c0,0.539,0,1.078,0,1.617c0,10.499,0.019,20.997-0.024,31.493
			c-0.005,1.229,0.356,2.101,1.229,2.968c9.186,9.125,18.341,18.277,27.468,27.466c0.88,0.885,1.766,1.208,2.977,1.19
			c4.589-0.056,9.181,0.02,13.766-0.045c1.376-0.023,2.376,0.412,3.317,1.394c2.305,2.405,4.817,4.616,7.004,7.12
			c1.291,1.486,2.725,2.494,4.463,3.378c4.012,2.036,5.881,6.741,4.694,11.081c-1.203,4.4-5.038,7.282-9.634,7.239
			c-4.598-0.043-8.413-3.139-9.476-7.694c-0.992-4.247,1.108-8.745,5.05-10.798c0.6-0.311,1.218-0.589,1.998-0.965
			c-2.245-2.232-4.343-4.394-6.544-6.449c-0.427-0.399-1.24-0.528-1.881-0.535c-4.714-0.043-9.43-0.066-14.142,0.005
			c-1.375,0.023-2.348-0.426-3.307-1.385c-9.707-9.766-19.438-19.5-29.206-29.198c-1.081-1.072-1.49-2.177-1.485-3.667
			c0.043-12.066-0.049-24.135,0.091-36.202c0.028-2.398-1.126-3.615-2.943-4.986c-0.049,0.776-0.114,1.319-0.114,1.861
			c-0.007,15.214,0.004,30.423-0.025,45.639c-0.002,1.147,0.292,1.993,1.128,2.825c10.695,10.642,21.354,21.314,32.022,31.979
			c0.351,0.35,0.735,0.66,1.067,0.958c6.012-1.965,10.627-0.565,13.192,3.943c2.318,4.067,1.408,9.292-2.147,12.34
			c-3.549,3.044-8.895,3.146-12.527,0.242c-4.183-3.348-4.726-8.042-1.574-14.114c-0.452-0.472-0.913-0.975-1.4-1.462
			c-10.574-10.576-21.137-21.172-31.759-31.707c-1.216-1.205-1.708-2.439-1.701-4.142c0.05-16.783,0.019-33.563,0.056-50.348
			c0.003-1.417-0.336-2.472-1.401-3.475c-2.608-2.452-5.057-5.075-7.64-7.559c-1.226-1.175-1.74-2.497-1.734-4.185
			c0.044-8.485-0.004-16.972,0.046-25.455c0.006-1.233-0.373-2.095-1.24-2.959c-18.869-18.823-37.713-37.67-56.562-56.515
			c-0.392-0.391-0.811-0.757-1.424-1.323c-0.089,0.664-0.206,1.116-0.206,1.568c-0.012,11.127-0.004,22.252-0.016,33.381
			c-0.002,0.846,0.141,1.54,0.8,2.191c5.185,5.127,10.33,10.293,15.49,15.442c0.13,0.129,0.301,0.216,0.556,0.391
			c2.697-1.486,5.576-2.104,8.624-1.044c2.216,0.77,3.971,2.14,5.214,4.135c2.463,3.958,1.831,9.049-1.516,12.275
			c-3.329,3.214-8.488,3.672-12.33,1.096c-4.378-2.942-5.343-7.566-2.82-13.796c-0.448-0.469-0.913-0.973-1.396-1.456
			c-4.936-4.938-9.844-9.895-14.826-14.78c-1.068-1.051-1.528-2.118-1.522-3.626c0.05-12.635,0.004-25.27,0.061-37.904
			c0.002-1.379-0.382-2.352-1.382-3.283c-1.933-1.796-3.698-3.774-5.641-5.561c-1.452-1.337-2.009-2.836-2.007-4.825
			c0.051-48.401,0.042-96.8,0.051-145.202c0.005-25.583,0.042-51.166,0-76.748c-0.004-2.438,0.683-4.276,2.455-6.007
			c8.463-8.247,16.801-16.621,25.234-24.898c1.037-1.016,1.436-2.041,1.404-3.461c-0.085-3.45-0.029-6.902-0.029-10.302
			c-0.548-0.419-1.01-0.74-1.436-1.101c-1.319-1.112-2.043-2.5-2.03-4.267c0.022-3.206,0.005-6.412,0.005-9.618
			c0-12.445,0-24.891,0-37.337c0-0.686,0-1.372,0-2.024c1.403-0.424,12.083-0.531,14.727-0.139c0,0.689,0,1.422,0,2.154
			c0,15.148-0.057,30.299,0.045,45.447c0.021,3.149-0.767,5.567-3.79,6.897c-0.028,0.656-0.078,1.21-0.08,1.766
			c-0.005,3.649-0.069,7.299,0.024,10.946c0.048,1.836-0.533,3.215-1.851,4.509c-8.607,8.459-17.137,16.994-25.748,25.45
			c-1.079,1.06-1.493,2.114-1.491,3.617c0.045,21.874,0.034,43.749,0.03,65.623c-0.009,27.972-0.021,55.943-0.038,83.914
			c-0.011,22.818-0.016,45.634-0.077,68.452c-0.003,1.513,0.46,2.549,1.523,3.607c13.725,13.655,27.411,27.345,41.074,41.062
			c0.965,0.974,1.917,1.38,3.292,1.369c8.106-0.062,16.216,0.043,24.322-0.074c2.314-0.035,3.987,0.619,5.634,2.288
			c9.081,9.23,18.28,18.347,27.429,27.508C444.426,395.146,444.816,395.727,445.333,396.363z M505.614,563.431
			c5.797,0.013,10.562-4.722,10.577-10.507c0.019-5.781-4.741-10.574-10.513-10.598c-5.768-0.02-10.562,4.752-10.574,10.53
			C495.088,558.652,499.826,563.42,505.614,563.431z M465.316,409.368c-0.024-5.829-4.727-10.467-10.589-10.434
			c-5.801,0.027-10.547,4.822-10.489,10.591c0.053,5.748,4.938,10.561,10.646,10.492
			C460.695,419.946,465.336,415.205,465.316,409.368z M494.215,485.68c0.004,5.321,4.24,9.582,9.547,9.602
			c5.284,0.021,9.629-4.236,9.694-9.504c0.069-5.276-4.403-9.77-9.688-9.735C498.494,476.074,494.21,480.399,494.215,485.68z
			 M458.676,526.436c-3.356-0.026-6.13,2.668-6.188,6.012c-0.061,3.403,2.736,6.207,6.18,6.192c3.38-0.013,6.085-2.714,6.088-6.089
			C464.761,529.211,462.022,526.457,458.676,526.436z M368.347,392.172c-3.381-0.026-6.153,2.684-6.187,6.053
			c-0.034,3.376,2.682,6.141,6.063,6.174c3.375,0.036,6.149-2.682,6.181-6.049C374.436,394.976,371.711,392.202,368.347,392.172z
			 M475.802,532.651c0.04,3.399,2.778,6.042,6.204,5.99c3.405-0.052,6.051-2.787,5.999-6.203c-0.049-3.38-2.812-6.051-6.208-6.001
			C478.407,526.487,475.765,529.227,475.802,532.651z"/>
		<path fill="#FFFFFF" d="M346.245,472.828c5.777,0,10.419,4.611,10.434,10.362c0.017,5.831-4.683,10.503-10.533,10.475
			c-5.735-0.023-10.329-4.691-10.315-10.48C335.847,477.398,340.442,472.826,346.245,472.828z"/>
		<path fill="#FFFFFF" d="M254.349,714.67c5.736-0.011,10.409,4.629,10.459,10.38c0.05,5.807-4.688,10.53-10.524,10.489
			c-5.75-0.041-10.384-4.713-10.369-10.459C243.928,719.355,248.613,714.683,254.349,714.67z"/>
		<path fill="#FFFFFF" d="M212.947,487.043c0.025-5.266,4.362-9.586,9.614-9.581c5.32,0.004,9.688,4.447,9.622,9.784
			c-0.066,5.259-4.411,9.48-9.729,9.447C217.167,496.663,212.922,492.352,212.947,487.043z"/>
		<path fill="#FFFFFF" d="M486.121,618.455c5.282,0.03,9.566,4.357,9.544,9.631c-0.027,5.28-4.342,9.604-9.6,9.607
			c-5.336,0.009-9.716-4.431-9.633-9.756C476.518,622.627,480.811,618.425,486.121,618.455z"/>
		<path fill="#FFFFFF" d="M152.462,667.966c-5.275-0.032-9.59-4.373-9.572-9.625c0.019-5.229,4.401-9.605,9.625-9.618
			c5.333-0.009,9.652,4.377,9.61,9.767C162.083,663.789,157.79,668,152.462,667.966z"/>
		<path fill="#FFFFFF" d="M310.923,712.388c-5.273,0.021-9.63-4.263-9.678-9.521c-0.049-5.352,4.315-9.736,9.665-9.717
			c5.283,0.019,9.575,4.329,9.577,9.607C320.486,708.033,316.186,712.364,310.923,712.388z"/>
		<path fill="#FFFFFF" d="M280.897,399.704c5.301,0.023,9.542,4.31,9.531,9.62c-0.013,5.268-4.34,9.607-9.592,9.612
			c-5.305,0.009-9.752-4.493-9.656-9.765C271.276,403.876,275.589,399.676,280.897,399.704z"/>
		<path fill="#FFFFFF" d="M372.017,520.976c-0.04-5.321,4.172-9.62,9.475-9.679c5.358-0.059,9.796,4.306,9.773,9.616
			c-0.017,5.225-4.392,9.604-9.616,9.627C376.395,530.565,372.056,526.252,372.017,520.976z"/>
		<path fill="#FFFFFF" d="M348.162,719.388c4.795-0.052,8.813,3.878,8.874,8.673c0.059,4.826-3.832,8.822-8.637,8.883
			c-4.937,0.061-8.959-3.856-8.98-8.742C339.397,723.412,343.343,719.435,348.162,719.388z"/>
		<path fill="#FFFFFF" d="M352.886,621.105c3.834,0.026,6.904,3.158,6.875,7.011c-0.031,3.829-3.192,6.948-6.997,6.915
			c-3.78-0.032-6.952-3.261-6.907-7.038C345.902,624.178,349.063,621.082,352.886,621.105z"/>
		<path fill="#FFFFFF" d="M275.02,506.936c-3.367-0.023-6.099-2.761-6.09-6.106c0.012-3.34,2.758-6.085,6.107-6.101
			c3.432-0.015,6.245,2.812,6.18,6.21C281.156,504.275,278.383,506.957,275.02,506.936z"/>
		<path fill="#FFFFFF" d="M253.602,616.712c-3.36,0.021-6.126-2.668-6.194-6.021c-0.069-3.382,2.771-6.217,6.204-6.195
			c3.356,0.024,6.081,2.762,6.086,6.111C259.703,613.932,256.947,616.694,253.602,616.712z"/>
		<path fill="#FFFFFF" d="M289.414,489.948c-3.396-0.011-6.121-2.743-6.105-6.121c0.014-3.387,2.743-6.087,6.142-6.079
			c3.394,0.007,6.112,2.735,6.099,6.118C295.535,487.25,292.804,489.959,289.414,489.948z"/>
		<path fill="#FFFFFF" d="M392.728,708.264c3.317,0.045,6.092,2.877,6.06,6.178c-0.031,3.311-2.846,6.108-6.147,6.108
			c-3.388,0-6.222-2.909-6.141-6.29C386.584,710.926,389.396,708.216,392.728,708.264z"/>
		<path fill="#FFFFFF" d="M433.347,611.121c-0.015,3.348-2.77,6.11-6.094,6.115c-3.401,0.002-6.178-2.848-6.117-6.288
			c0.059-3.337,2.862-6.06,6.192-6.012C430.662,604.984,433.363,607.758,433.347,611.121z"/>
		<path fill="#FFFFFF" d="M361.118,668.237c-0.029-3.417,2.633-6.139,6.037-6.176c3.396-0.039,6.135,2.641,6.166,6.044
			c0.037,3.391-2.654,6.147-6.033,6.183C363.9,674.32,361.149,671.622,361.118,668.237z"/>
		<path fill="#FFFFFF" d="M320.394,575.385c0-3.401,2.706-6.108,6.107-6.102c3.392,0.006,6.095,2.726,6.092,6.126
			c-0.006,3.38-2.745,6.115-6.116,6.108C323.1,581.511,320.394,578.782,320.394,575.385z"/>
		<path fill="#FFFFFF" d="M446.205,683.162c0.004,3.344-2.729,6.128-6.05,6.167c-3.369,0.032-6.218-2.846-6.172-6.247
			c0.042-3.322,2.853-6.087,6.166-6.062C443.479,677.042,446.203,679.804,446.205,683.162z"/>
		<path fill="#FFFFFF" d="M231.82,656.708c-0.036-3.353,2.661-6.126,6.008-6.18c3.448-0.057,6.225,2.691,6.214,6.146
			c-0.009,3.369-2.713,6.074-6.088,6.089C234.604,662.777,231.853,660.064,231.82,656.708z"/>
		<path fill="#FFFFFF" d="M197.905,642.163c3.395,0.02,6.08,2.743,6.059,6.146c-0.018,3.393-2.748,6.085-6.147,6.063
			c-3.396-0.018-6.07-2.739-6.047-6.15C191.792,644.806,194.486,642.146,197.905,642.163z"/>
		<path fill="#FFFFFF" d="M206.111,670.444c0.042-3.389,2.786-6.049,6.198-6.006c3.393,0.039,6.044,2.778,6,6.195
			c-0.044,3.41-2.763,6.046-6.19,6.003C208.727,676.596,206.069,673.856,206.111,670.444z"/>
		<path fill="#FFFFFF" d="M103.13,587.067c-0.03-5.835,4.633-10.537,10.473-10.562c5.798-0.03,10.573,4.693,10.597,10.483
			c0.021,5.77-4.732,10.556-10.517,10.586C107.882,597.604,103.159,592.906,103.13,587.067z"/>
		<path fill="#FFFFFF" d="M192.773,534.451c-0.055,5.293-4.37,9.553-9.653,9.531c-5.27-0.017-9.582-4.338-9.59-9.605
			c-0.008-5.33,4.44-9.722,9.758-9.633C188.575,524.83,192.829,529.189,192.773,534.451z"/>
		<path fill="#FFFFFF" d="M106.96,509.384c4.37,0.03,7.907,3.615,7.833,7.94c-0.072,4.274-3.583,7.739-7.851,7.75
			c-4.385,0.006-7.907-3.494-7.904-7.862C99.04,512.846,102.576,509.352,106.96,509.384z"/>
		<path fill="#FFFFFF" d="M133.969,461.327c-3.358-0.021-6.092-2.753-6.102-6.103c-0.011-3.401,2.826-6.158,6.277-6.103
			c3.354,0.052,6.042,2.823,5.997,6.183C140.099,458.639,137.331,461.342,133.969,461.327z"/>
		<path fill="#FFFFFF" d="M179.352,377.982c0.037-3.352,2.794-6.072,6.139-6.061c3.419,0.013,6.133,2.847,6.058,6.315
			c-0.075,3.341-2.91,6.065-6.22,5.981C181.977,384.128,179.314,381.35,179.352,377.982z"/>
		<path fill="#FFFFFF" d="M208.751,382.668c-0.002-3.383,2.721-6.126,6.098-6.137c3.379-0.013,6.104,2.72,6.104,6.117
			c0.001,3.389-2.72,6.135-6.085,6.141C211.504,388.796,208.755,386.044,208.751,382.668z"/>
		<path fill="#FFFFFF" d="M142.104,437.393c-0.049-3.31,2.684-6.142,6.016-6.232c3.34-0.09,6.304,2.811,6.293,6.163
			c-0.011,3.292-2.83,6.11-6.13,6.13C144.97,443.469,142.155,440.705,142.104,437.393z"/>
		<path fill="#FFFFFF" d="M143.333,609.062c3.33-0.008,6.112,2.738,6.151,6.072c0.041,3.313-2.702,6.133-6.033,6.208
			c-3.363,0.076-6.276-2.806-6.252-6.182C137.22,611.846,140.009,609.078,143.333,609.062z"/>
		<path fill="#FFFFFF" d="M154.518,577.765c0.042-3.335,2.825-6.068,6.162-6.053c3.34,0.019,6.081,2.768,6.092,6.112
			c0.014,3.435-2.809,6.204-6.248,6.131C157.165,583.884,154.475,581.109,154.518,577.765z"/>
		<path fill="#FFFFFF" d="M111.063,473.242c0.021-3.403,2.729-6.083,6.14-6.062c3.396,0.018,6.083,2.74,6.065,6.142
			c-0.019,3.399-2.731,6.069-6.145,6.053C113.707,479.357,111.043,476.661,111.063,473.242z"/>
		<path fill="#FFFFFF" d="M505.614,563.431c-5.788-0.011-10.526-4.778-10.51-10.574c0.013-5.778,4.807-10.55,10.574-10.53
			c5.771,0.023,10.531,4.816,10.513,10.598C516.177,558.709,511.411,563.443,505.614,563.431z"/>
		<path fill="#FFFFFF" d="M465.316,409.368c0.02,5.837-4.621,10.578-10.433,10.649c-5.708,0.068-10.589-4.744-10.646-10.492
			c-0.056-5.769,4.691-10.563,10.489-10.591C460.59,398.901,465.294,403.539,465.316,409.368z"/>
		<path fill="#FFFFFF" d="M494.215,485.68c-0.005-5.28,4.281-9.605,9.553-9.638c5.285-0.034,9.758,4.459,9.688,9.735
			c-0.065,5.268-4.41,9.525-9.694,9.504C498.455,495.262,494.219,491.001,494.215,485.68z"/>
		<path fill="#FFFFFF" d="M458.676,526.436c3.347,0.021,6.085,2.775,6.079,6.117c-0.005,3.373-2.708,6.074-6.088,6.089
			c-3.443,0.013-6.24-2.791-6.18-6.194C452.546,529.104,455.319,526.409,458.676,526.436z"/>
		<path fill="#FFFFFF" d="M368.347,392.172c3.364,0.03,6.089,2.804,6.058,6.178c-0.031,3.371-2.806,6.085-6.181,6.049
			c-3.382-0.033-6.098-2.798-6.063-6.174C362.193,394.855,364.966,392.146,368.347,392.172z"/>
		<path fill="#FFFFFF" d="M475.802,532.651c-0.037-3.425,2.605-6.164,5.992-6.214c3.399-0.05,6.159,2.621,6.211,6.001
			c0.05,3.416-2.596,6.151-5.999,6.203C478.58,538.693,475.842,536.051,475.802,532.651z"/>
	</g>
</g>
</svg>
